<?xml version="1.0" standalone="no"?>
<!DOCTYPE svg PUBLIC "-//W3C//DTD SVG 20010904//EN"
 "http://www.w3.org/TR/2001/REC-SVG-20010904/DTD/svg10.dtd">
<svg version="1.0" xmlns="http://www.w3.org/2000/svg"
 width="960.000000pt" height="1080.000000pt" viewBox="0 0 960.000000 1080.000000"
 preserveAspectRatio="xMidYMid meet">

<g transform="translate(0.000000,1080.000000) scale(0.100000,-0.100000)"
fill="#000000" stroke="none">
<path d="M7549 10743 c-1 -60 0 -364 2 -378 0 -5 4 1 9 15 12 40 12 410 0 410
-5 0 -10 -21 -11 -47z"/>
<path d="M9562 10620 l-23 -19 1 -367 1 -367 -32 -44 -33 -43 -130 0 c-72 0
-265 -2 -428 -3 l-297 -2 -10 -42 c-6 -23 -11 -47 -11 -52 0 -8 131 -11 418
-11 l417 0 58 -62 58 -63 -6 -119 c-7 -125 -7 -126 38 -88 15 13 17 35 17 174
0 87 -3 158 -7 158 -3 0 -21 -12 -40 -26 -19 -14 -36 -24 -39 -21 -3 2 3 24
12 47 l17 43 -27 24 c-32 28 -29 36 14 35 26 -1 33 5 50 41 19 39 20 61 20
434 0 216 -4 393 -8 393 -4 -1 -17 -9 -30 -20z"/>
<path d="M7428 10579 c-10 -5 -18 -17 -18 -24 0 -23 16 -17 28 10 6 14 11 25
9 25 -1 0 -10 -5 -19 -11z"/>
<path d="M7410 10500 c0 -19 3 -21 12 -12 9 9 9 15 0 24 -9 9 -12 7 -12 -12z"/>
<path d="M7410 10460 c0 -5 5 -10 11 -10 5 0 7 5 4 10 -3 6 -8 10 -11 10 -2 0
-4 -4 -4 -10z"/>
<path d="M7550 10324 c0 -8 5 -12 10 -9 6 4 8 11 5 16 -9 14 -15 11 -15 -7z"/>
<path d="M7482 9960 c-13 -13 -22 -33 -22 -51 0 -19 -6 -32 -17 -36 -10 -3
-36 -23 -58 -44 l-40 -39 -613 0 c-430 0 -612 -4 -612 -11 0 -6 7 -9 14 -6 10
4 13 1 9 -9 -3 -8 -12 -13 -20 -10 -8 3 -11 2 -8 -3 3 -5 1 -12 -4 -15 -5 -4
-12 -2 -16 4 -8 14 -24 3 -36 -24 -9 -21 -10 -21 -5 2 2 12 0 22 -5 22 -5 0
-9 -8 -9 -18 0 -15 -8 -19 -36 -20 -20 -1 -38 -3 -40 -5 -5 -4 831 -17 1155
-17 l226 -1 37 -43 37 -43 2 -221 c0 -121 -2 -225 -5 -231 -9 -13 -12 -339 -4
-347 11 -10 62 23 101 65 l37 41 0 128 c0 124 -1 129 -22 140 l-23 11 23 7
c18 5 22 13 22 50 0 24 -2 44 -4 44 -3 0 -17 -11 -31 -24 -14 -13 -36 -26 -48
-29 -20 -6 -20 -4 5 16 15 12 36 29 48 37 17 12 22 26 23 75 1 42 -2 60 -10
61 -7 1 -17 2 -22 3 -5 0 -16 43 -26 94 -23 127 -23 125 -53 129 -22 2 -27 8
-27 31 -1 16 -7 32 -14 37 -11 6 -11 12 2 30 8 12 13 30 10 41 -4 15 0 19 19
19 14 0 35 11 48 25 l24 26 16 -21 c14 -18 31 -26 64 -29 4 -1 5 -8 2 -18 -4
-10 2 -25 15 -40 l22 -23 -22 -24 c-12 -13 -21 -29 -19 -37 2 -7 -7 -15 -19
-17 -35 -5 -48 -28 -33 -57 14 -27 30 -33 30 -12 0 6 17 31 39 55 l39 42 336
0 337 0 95 51 c52 28 94 53 94 55 0 3 -4 2 -10 -1 -5 -3 -193 -6 -417 -5
l-408 0 -56 56 c-39 38 -58 52 -62 43 -3 -8 -6 14 -6 49 -1 68 -11 77 -49 42z
m-1272 -184 c0 -2 -7 -6 -15 -10 -8 -3 -15 -1 -15 4 0 6 7 10 15 10 8 0 15 -2
15 -4z m1270 -426 c-13 -31 -33 -39 -46 -18 -7 12 44 63 53 54 3 -3 0 -19 -7
-36z"/>
<path d="M7485 9810 c-3 -5 -1 -10 4 -10 6 0 11 5 11 10 0 6 -2 10 -4 10 -3 0
-8 -4 -11 -10z"/>
<path d="M9591 9784 c0 -11 3 -14 6 -6 3 7 2 16 -1 19 -3 4 -6 -2 -5 -13z"/>
<path d="M7485 9782 c-63 -8 -85 -60 -42 -100 28 -26 79 -29 98 -6 17 21 12
75 -9 94 -10 10 -29 14 -47 12z"/>
<path d="M8501 9748 c-38 -62 -44 -72 -35 -63 64 69 76 85 63 85 -8 0 -20 -10
-28 -22z"/>
<path d="M9574 9739 c-3 -6 1 -18 10 -27 15 -15 16 -14 16 11 0 27 -13 36 -26
16z"/>
<path d="M9557 9686 c-4 -10 -1 -13 8 -9 8 3 12 9 9 14 -7 12 -11 11 -17 -5z"/>
<path d="M7495 9640 c-3 -5 -1 -10 4 -10 6 0 11 5 11 10 0 6 -2 10 -4 10 -3 0
-8 -4 -11 -10z"/>
<path d="M7487 9589 c7 -9 10 -19 6 -22 -3 -4 -1 -7 5 -7 17 0 15 16 -5 31
-16 12 -17 12 -6 -2z"/>
<path d="M1655 9013 c-183 -10 -479 -52 -652 -93 -95 -23 -141 -47 -63 -33 74
13 366 7 477 -11 285 -44 458 -110 623 -237 97 -75 236 -204 210 -195 -267 89
-330 100 -555 93 -195 -6 -321 -26 -531 -87 -136 -39 -298 -100 -318 -120 -13
-13 -5 -13 117 6 115 18 446 21 475 5 15 -9 15 -10 -4 -11 -33 0 -242 -66
-338 -106 -95 -40 -168 -98 -232 -185 l-36 -49 -411 2 -412 3 0 -615 0 -615
35 0 35 0 3 145 c1 80 4 150 6 156 3 6 51 14 118 17 62 4 132 10 156 13 l43 7
-55 -80 c-106 -154 -172 -287 -196 -396 -19 -85 -9 -102 24 -39 26 51 193 229
204 218 3 -3 0 -11 -5 -18 -10 -12 -80 -205 -102 -278 -10 -35 -10 -35 -5 8 6
42 6 43 -23 39 -28 -4 -28 -4 -30 -87 -2 -46 -8 -89 -13 -96 -8 -8 -39 -12
-100 -11 l-90 2 0 -67 0 -68 85 0 c92 0 97 -4 67 -48 -10 -15 -22 -35 -25 -45
-11 -31 -98 -147 -118 -158 -10 -5 -19 -14 -19 -19 0 -12 33 -13 46 -1 5 5 42
23 83 41 45 19 105 58 153 97 43 36 76 59 74 51 -2 -7 -11 -51 -20 -98 -8 -47
-22 -122 -31 -168 -26 -139 -16 -435 16 -506 12 -26 14 -23 34 61 12 48 29
106 38 128 l17 40 -27 -30 c-18 -20 -24 -24 -19 -10 5 11 25 74 46 140 42 136
66 198 111 286 16 34 28 68 25 76 -3 8 -1 11 4 8 6 -3 10 -2 10 2 0 5 7 18 14
29 13 17 15 10 15 -66 -1 -128 90 -646 132 -757 5 -14 7 -28 5 -31 -13 -13
-139 314 -171 443 -22 91 -38 117 -30 50 20 -159 110 -394 249 -644 25 -46 46
-85 46 -87 0 -2 -7 -4 -16 -4 -9 0 -14 -7 -12 -17 3 -16 15 -18 113 -14 61 2
112 5 115 8 13 12 -33 23 -97 23 -71 0 -73 1 -79 28 -3 15 -12 49 -20 76 -8
29 -14 95 -14 160 l0 111 26 -33 c23 -29 153 -138 277 -235 71 -54 140 -204
153 -330 4 -37 10 -67 13 -67 9 0 24 60 53 207 12 68 25 123 28 123 12 0 111
-169 131 -225 34 -93 41 -90 37 13 -1 50 -1 92 1 92 3 0 91 -73 138 -114 10
-9 5 -35 -18 -116 -17 -58 -36 -111 -41 -118 -7 -7 -39 -12 -87 -13 -56 -1
-68 -3 -46 -9 17 -4 49 -8 73 -9 48 -1 57 -22 20 -42 -38 -20 -47 -41 -48
-104 0 -34 -5 -66 -12 -73 -7 -7 -39 -12 -75 -12 -35 0 -63 -4 -63 -10 0 -6
26 -8 65 -6 36 2 65 0 65 -4 0 -5 -16 -30 -36 -55 -19 -26 -39 -57 -44 -68 -8
-19 -9 -18 -9 11 -1 17 -6 32 -12 32 -5 0 -7 5 -4 10 3 6 2 10 -3 10 -13 0
-21 -48 -13 -79 12 -46 1 -67 -82 -163 -100 -115 -129 -153 -146 -196 -16 -40
-9 -106 18 -168 l20 -44 -55 -31 c-30 -17 -63 -42 -74 -56 -33 -42 -27 -127
20 -288 l39 -137 -19 -99 c-11 -54 -17 -105 -14 -113 6 -16 29 -21 172 -36 57
-6 116 -16 130 -21 53 -19 122 -54 122 -61 0 -5 5 -8 11 -8 5 0 37 -18 69 -40
32 -22 62 -40 65 -40 4 0 21 -11 38 -24 18 -13 55 -36 82 -50 28 -15 75 -42
105 -61 83 -52 157 -85 202 -90 16 -3 36 -9 44 -16 15 -12 38 -3 29 12 -4 5 6
4 21 -3 24 -11 25 -13 8 -17 -10 -2 -23 -7 -29 -11 -20 -15 -107 -20 -413 -22
-283 -2 -314 -4 -328 -19 -15 -16 -13 -21 22 -63 21 -25 43 -46 49 -46 194 4
578 -12 710 -30 88 -11 199 -25 247 -30 82 -9 301 -71 323 -91 5 -5 17 -9 26
-9 9 0 22 -7 29 -15 11 -13 8 -15 -16 -15 -16 0 -74 7 -129 15 -55 9 -154 22
-220 30 -66 8 -154 20 -195 26 -80 13 -593 13 -1006 0 -184 -5 -235 -10 -255
-22 -13 -9 -58 -24 -99 -34 -80 -19 -108 -31 -165 -70 l-36 -24 33 -14 c18 -7
61 -24 96 -36 41 -16 62 -29 62 -40 0 -10 -48 -44 -127 -91 -132 -78 -179 -99
-128 -56 17 14 30 30 30 36 0 6 7 15 15 20 12 8 12 10 1 10 -8 0 -12 3 -8 6 3
3 11 3 17 -1 8 -5 7 -11 -2 -23 -8 -10 4 -7 31 9 26 15 45 34 46 45 4 41 17
65 33 60 67 -20 63 -11 -8 19 -51 21 -94 33 -107 30 -13 -3 -23 -1 -23 5 0 6
-28 24 -62 40 -35 16 -58 29 -52 29 11 1 84 -20 117 -34 11 -5 17 -3 17 7 0 8
9 23 19 32 10 10 21 25 23 34 4 15 -7 17 -121 14 -69 -2 -127 -7 -128 -10 -4
-9 -286 -2 -295 6 -4 4 -44 5 -90 2 l-83 -5 -3 -160 c-2 -101 3 -205 13 -280
8 -66 17 -151 20 -190 3 -38 10 -108 15 -155 6 -47 10 -119 10 -160 0 -67 -4
-80 -30 -119 -29 -43 -39 -81 -21 -81 5 0 12 8 16 19 3 10 14 26 24 35 17 16
19 15 24 -21 3 -21 11 -101 17 -178 14 -170 8 -195 -44 -195 -19 0 -37 -3 -40
-8 -2 -4 -1 -35 3 -70 4 -36 3 -66 -2 -71 -5 -5 -7 -17 -4 -25 5 -12 21 -16
61 -16 l54 0 7 -55 c7 -60 2 -77 -20 -69 -8 4 -12 11 -8 17 3 5 1 7 -4 4 -6
-4 -16 0 -23 8 -10 12 -9 16 4 21 20 8 21 24 1 24 -8 0 -15 -6 -15 -12 0 -9
-4 -8 -10 2 -5 8 -10 11 -10 6 0 -5 -7 -3 -15 4 -38 31 -8 -3 67 -79 60 -59
79 -84 69 -90 -10 -6 -10 -17 -3 -44 14 -48 1 -57 -80 -57 -91 0 -87 -18 4
-22 68 -3 73 -5 78 -28 l6 -25 159 -3 c88 -1 164 -1 170 2 8 3 9 26 4 77 -6
54 -5 75 4 81 7 4 8 8 3 8 -5 0 -17 -7 -27 -16 -17 -15 -18 -15 -7 14 10 26 9
34 -7 51 -22 25 -9 28 17 4 15 -14 15 -9 -4 28 -13 24 -24 46 -26 49 -2 3 -9
-3 -16 -12 -8 -10 -17 -14 -26 -8 -10 6 -9 13 8 35 12 15 19 31 16 36 -6 11
-34 12 -34 2 -6 -117 -23 -194 -50 -218 -18 -17 -21 -17 -45 -1 -26 17 -33 40
-15 51 6 3 14 -5 20 -19 22 -58 43 -11 56 120 6 71 6 72 -21 85 -36 18 -37 33
-2 37 26 3 27 5 27 70 0 42 -11 108 -30 177 -30 112 -37 165 -21 165 5 0 13
-6 18 -13 13 -15 49 -156 58 -222 7 -54 43 -185 54 -198 4 -4 17 20 29 53 12
34 17 58 12 55 -15 -9 -30 39 -32 104 l-3 59 -18 -27 -19 -26 8 30 c16 63 0
192 -24 198 -14 4 -13 6 6 12 20 7 22 12 15 44 -15 76 -6 203 20 266 40 96 47
90 67 -60 16 -117 19 -131 39 -154 24 -28 35 -118 17 -146 -7 -11 -16 -47 -19
-80 l-6 -60 22 65 c15 43 28 66 40 68 25 5 22 -32 -12 -140 -16 -51 -32 -120
-36 -153 -6 -60 -6 -60 12 -35 10 14 27 34 39 45 11 11 30 35 43 53 50 72 98
0 51 -76 -24 -40 -46 -49 -73 -33 -21 13 -23 12 -47 -31 -9 -15 -5 -15 48 -3
32 8 81 23 108 34 l49 20 -33 7 c-29 6 -46 24 -22 24 6 0 10 10 10 23 0 28 32
98 52 115 21 17 48 5 48 -23 0 -13 -16 -44 -35 -69 -19 -26 -35 -49 -35 -51 0
-16 43 21 71 60 28 39 59 59 59 39 0 -13 -72 -104 -83 -104 -5 0 -8 -3 -4 -6
9 -9 269 123 289 146 21 25 51 26 46 3 -7 -38 -371 -204 -532 -244 l-49 -12
26 -19 c14 -10 24 -25 21 -32 -4 -10 2 -12 20 -9 14 3 26 9 26 13 0 5 3 16 7
25 5 14 2 16 -15 10 -13 -4 -22 -2 -22 4 0 6 14 11 30 11 23 0 30 -5 30 -19 0
-11 6 -21 12 -24 19 -6 -21 -48 -42 -45 -21 4 -72 -30 -65 -42 4 -6 15 -10 25
-10 22 0 29 -20 32 -100 3 -50 1 -55 -17 -52 -18 3 -17 0 8 -25 34 -36 36 -55
2 -23 -30 28 -34 9 -5 -20 26 -26 36 -25 56 5 9 14 21 25 27 25 6 0 0 -11 -12
-24 l-23 -24 147 -1 147 -2 -7 78 c-12 126 -12 127 8 131 48 10 64 -5 81 -75
8 -38 17 -81 18 -98 l3 -30 355 2 355 1 89 31 c50 17 91 31 93 31 1 0 -2 -12
-7 -26 -6 -14 -10 -28 -10 -32 0 -12 252 4 293 18 27 10 37 19 37 35 0 29 10
37 28 22 8 -6 17 -11 19 -9 13 10 22 -2 17 -23 -8 -32 6 -32 37 1 20 22 31 25
71 22 27 -2 48 0 48 4 0 4 -13 29 -28 55 -15 26 -54 100 -86 163 -32 63 -60
116 -61 118 -1 1 -2 -28 -2 -65 0 -63 0 -64 6 -19 l6 48 28 -56 c30 -63 32
-70 15 -60 -6 4 3 -11 21 -33 20 -25 30 -46 26 -54 -6 -8 -10 -7 -17 5 -6 11
-14 14 -21 8 -7 -5 -20 -8 -30 -7 -9 2 -15 -1 -11 -6 7 -12 -5 -49 -16 -49 -5
0 -11 21 -13 47 l-3 48 -2 -52 c-1 -28 -7 -55 -13 -59 -9 -5 -10 29 -5 132 8
164 16 244 25 243 3 0 53 -96 111 -212 l105 -211 160 -28 c154 -27 177 -28
603 -33 243 -3 442 -2 442 2 0 4 -32 40 -72 80 -57 57 -70 75 -60 85 7 7 12
19 12 27 0 15 -14 7 -16 -10 -1 -5 -2 -12 -3 -16 -1 -7 -41 27 -41 36 0 3 12
7 26 8 42 2 77 35 113 108 l33 68 38 -44 c37 -43 38 -46 33 -104 -6 -85 -6
-84 -5 -142 1 -29 6 -53 11 -53 11 0 16 33 31 220 28 348 28 353 56 377 19 17
21 23 9 23 -28 0 -89 -37 -111 -67 -23 -31 -74 -139 -74 -157 0 -16 -79 -167
-97 -188 -38 -43 -106 -8 -236 118 -56 55 -76 81 -72 93 4 9 14 78 24 153 10
75 23 144 30 152 17 20 65 21 81 1 10 -13 10 -36 -4 -121 -16 -96 -21 -109
-49 -134 -18 -16 -29 -32 -25 -36 5 -4 17 1 28 11 20 18 20 18 20 -28 0 -26 4
-47 9 -47 5 0 11 -13 15 -30 3 -16 10 -30 16 -30 7 0 8 24 4 68 -5 50 1 109
21 232 24 144 26 182 21 295 -19 399 -19 396 2 561 32 239 32 242 5 297 -16
33 -42 61 -86 93 -81 60 -139 89 -349 173 -95 38 -235 97 -310 130 -76 34
-146 61 -155 61 -10 0 -63 21 -118 46 -55 25 -152 68 -215 95 -248 108 -462
227 -709 396 -146 100 -248 180 -256 201 -4 10 6 25 27 41 18 14 88 79 156
143 68 65 128 115 133 112 6 -3 77 61 160 143 209 207 292 252 405 224 68 -17
141 -72 309 -231 83 -78 242 -222 355 -319 544 -468 630 -530 1010 -724 107
-55 209 -110 227 -123 17 -13 47 -49 65 -80 18 -31 85 -135 149 -232 185 -284
202 -315 341 -642 39 -91 97 -222 129 -292 101 -220 101 -220 104 -478 1 -152
7 -252 18 -310 25 -134 25 -194 3 -219 l-19 -21 671 0 672 0 0 23 c0 40 30
350 45 465 8 62 15 178 15 256 0 167 -15 230 -78 336 -65 109 -286 268 -497
359 l-70 30 -72 -72 c-40 -39 -73 -67 -73 -62 0 5 28 38 63 73 47 48 59 65 48
71 -7 5 -88 34 -180 65 -188 63 -432 127 -567 150 -50 9 -127 27 -170 40 -43
14 -110 32 -149 40 -38 9 -81 24 -94 34 -19 14 -71 92 -71 106 0 8 190 -11
245 -24 22 -5 65 -10 95 -10 30 0 93 -7 140 -16 47 -9 112 -19 145 -24 95 -12
584 -131 661 -160 15 -6 29 -9 31 -6 3 2 -55 63 -128 135 -74 71 -130 133
-126 137 4 5 72 -58 150 -139 136 -142 144 -147 182 -147 34 0 47 7 92 52 29
29 53 48 53 42 0 -5 -22 -32 -50 -59 -27 -27 -50 -55 -50 -61 0 -7 19 -19 43
-29 23 -9 69 -30 102 -45 33 -16 71 -31 85 -35 23 -5 23 -5 8 8 -22 18 -23 28
-3 20 13 -4 15 1 12 31 -2 19 -1 33 4 31 4 -3 9 5 11 17 2 12 8 23 13 25 6 2
9 -28 7 -80 l-4 -84 43 -22 c29 -16 44 -19 49 -11 8 12 22 189 26 312 1 65 -1
76 -15 76 -9 0 -28 2 -43 5 -21 4 -27 1 -32 -17 -5 -19 -11 -22 -36 -18 -30 4
-34 10 -30 47 1 15 -14 4 -59 -39 -33 -33 -63 -58 -65 -55 -3 3 24 34 59 69
57 56 84 93 56 75 -5 -3 -12 -1 -16 5 -8 14 -35 13 -35 -1 0 -6 7 -9 15 -6 20
8 28 -8 10 -23 -12 -10 -15 -10 -15 1 0 11 -2 11 -10 -1 -7 -12 -9 -11 -8 5 0
11 -3 37 -7 58 -7 36 -6 37 22 37 64 0 64 1 78 265 l6 121 -40 -4 c-23 -2 -41
0 -41 6 0 10 60 42 79 42 6 0 11 5 11 10 0 13 -6 12 -59 -4 -42 -12 -45 -15
-47 -52 -6 -105 -34 -267 -34 -196 0 12 -11 33 -25 47 -14 14 -23 25 -19 25 3
0 -1 11 -9 24 -18 26 -15 59 5 84 11 13 10 15 -4 9 -92 -34 -437 -322 -520
-434 -21 -29 -43 -53 -49 -53 -6 0 -21 12 -33 28 -11 15 -55 66 -96 113 -138
157 -160 184 -160 192 0 4 21 18 48 30 26 12 63 34 83 49 45 35 128 72 258
115 120 39 324 91 396 99 28 4 57 10 65 14 9 5 45 12 80 15 l65 7 -40 -26
c-22 -14 -45 -26 -52 -26 -6 0 -15 -5 -18 -10 -4 -7 14 -9 50 -6 30 2 58 0 61
-5 2 -4 228 -9 501 -9 428 0 500 -2 529 -16 18 -9 35 -23 39 -32 7 -19 17
-126 40 -437 8 -115 26 -347 40 -515 13 -167 21 -308 19 -312 -3 -4 0 -8 5 -8
6 0 11 -5 11 -11 0 -5 -5 -7 -10 -4 -24 15 -22 -32 16 -323 3 -23 2 -42 -3
-41 -19 3 -23 -2 -14 -19 8 -15 0 -26 -44 -62 -30 -25 -53 -45 -52 -46 1 -1
20 -4 43 -7 39 -6 42 -4 77 44 21 27 42 49 47 49 5 0 8 -31 7 -70 l-2 -70 -42
0 c-24 0 -43 5 -43 10 0 18 -104 11 -145 -10 -22 -11 -51 -21 -65 -21 -21 -1
-19 -3 10 -10 20 -5 -31 -6 -125 -3 -88 2 -166 0 -174 -5 -19 -13 4 -51 31
-51 l22 0 -22 20 c-12 12 -22 24 -22 27 0 4 13 -5 28 -20 21 -21 38 -27 70
-27 49 0 57 19 10 22 -18 1 1 4 42 7 41 3 95 3 120 0 25 -4 35 -7 23 -8 -37
-2 -35 -19 2 -23 19 -2 35 0 35 4 0 5 10 2 23 -6 53 -33 253 -52 340 -32 41 9
52 31 12 24 -14 -3 -30 1 -36 8 -7 8 -31 14 -58 14 -34 0 -51 5 -64 20 -20 24
-11 26 15 3 10 -9 21 -13 25 -9 4 4 2 11 -6 15 -10 6 -8 10 5 15 12 5 23 1 30
-9 10 -14 16 -14 32 -4 17 10 23 10 36 -1 9 -7 19 -10 22 -7 9 8 -13 44 -33
53 -13 6 -4 9 32 13 42 5 50 9 53 29 2 12 7 20 12 17 5 -3 20 -1 34 5 22 8 25
15 22 42 -2 20 -12 38 -26 47 l-23 16 5 -48 c4 -31 2 -47 -6 -47 -7 0 -12 37
-14 115 -1 63 0 115 2 115 3 0 20 -9 40 -20 45 -27 178 -69 239 -77 27 -3 56
-13 64 -22 12 -12 31 -14 87 -11 39 3 125 5 191 4 66 0 316 -2 555 -4 383 -3
445 -1 515 14 85 19 127 37 163 69 l22 20 0 -79 c0 -43 3 -103 7 -132 l6 -53
86 3 86 3 1 35 c1 26 1 28 -3 8 -5 -34 -21 -37 -28 -5 -8 38 -37 415 -33 429
3 7 16 -79 29 -192 13 -113 25 -195 27 -182 4 23 -35 362 -44 395 -4 11 -15
17 -34 17 -21 0 -29 5 -29 17 0 10 -7 97 -15 193 -47 538 -78 961 -92 1245 -4
72 -10 166 -14 210 -4 44 -3 88 2 97 4 9 7 27 7 40 -1 19 -3 18 -9 -7 -7 -28
-8 -27 -9 13 0 24 -6 63 -12 87 -8 31 -8 49 0 63 8 14 8 57 2 144 -14 185 -22
569 -11 533 5 -16 13 -70 18 -120 7 -72 10 -80 11 -37 l1 52 48 2 c40 1 42 2
12 5 -42 5 -65 23 -29 23 37 0 68 26 73 63 12 75 17 282 7 267 -9 -12 -11 -11
-11 8 0 26 3 27 24 6 15 -14 16 -6 16 93 0 142 4 153 46 153 18 0 35 -4 39 -9
3 -6 16 -56 29 -113 l24 -103 1 408 c1 294 -2 406 -10 401 -8 -4 -8 -1 -1 12
6 11 10 52 10 92 l0 72 -36 -1 c-21 -1 -67 5 -103 12 -39 7 -73 9 -85 4 -14
-6 1 -11 54 -16 40 -4 79 -12 87 -19 10 -8 20 -9 37 0 l23 11 -22 -19 c-19
-17 -35 -19 -136 -16 -106 3 -120 6 -218 45 -95 38 -203 64 -171 42 9 -7 -4
-23 -50 -58 -35 -26 -155 -141 -267 -254 l-204 -205 24 -18 c13 -10 44 -36 69
-57 77 -65 110 -60 74 11 l-17 32 34 -29 c57 -48 106 -65 190 -65 53 0 86 5
110 17 36 19 110 23 194 11 l50 -7 -43 39 -43 39 43 11 c111 28 191 68 110 55
-42 -7 -43 -7 -30 14 17 28 46 35 116 28 l57 -6 -25 22 c-14 12 -37 30 -50 40
-24 17 -24 17 10 1 19 -9 46 -26 59 -38 l23 -21 -6 23 c-14 43 27 124 54 107
8 -5 7 -12 -3 -23 -27 -31 -28 -59 -7 -180 11 -65 20 -122 20 -126 0 -3 11 -6
24 -6 25 0 54 -26 42 -37 -4 -4 -16 -2 -26 5 -11 7 -49 12 -85 12 -60 0 -66
-2 -75 -24 -5 -14 -17 -29 -27 -34 -20 -11 -132 -28 -148 -23 -5 2 -64 5 -130
6 -66 1 -132 5 -147 10 -19 5 -28 3 -28 -4 0 -8 -6 -9 -17 -3 -10 5 -63 8
-118 6 -55 -1 -108 3 -119 8 -10 5 -39 10 -65 10 -25 0 -58 4 -72 9 -17 7 -53
6 -105 -1 -43 -6 -113 -10 -154 -10 -41 1 -115 -6 -165 -14 -102 -16 -137 -17
-147 -2 -8 12 -109 13 -128 1 -9 -5 -15 -4 -18 3 -5 15 -72 16 -109 1 -15 -6
-82 -13 -148 -15 -154 -4 -205 -10 -218 -23 -6 -6 -19 -11 -29 -11 -19 0 -34
55 -25 90 3 11 1 20 -4 20 -9 0 -12 -13 -10 -42 1 -9 -5 -32 -14 -50 -14 -28
-14 -30 0 -14 14 19 15 19 15 -7 0 -29 3 -30 80 -31 l45 -1 3 -275 c3 -264 9
-330 34 -330 6 0 5 7 -3 16 -10 12 -13 74 -15 252 -3 265 9 239 24 -57 8 -161
11 -176 31 -192 l21 -18 -22 -4 c-13 -2 -1 -5 25 -6 l48 -1 -3 -42 -3 -43 -80
0 c-82 1 -134 9 -166 25 -17 9 -139 -3 -179 -18 -8 -3 55 -9 140 -14 217 -12
274 -20 278 -39 2 -11 -16 -20 -75 -33 -43 -10 -85 -21 -93 -24 -9 -3 -11 -1
-7 4 5 5 29 16 55 25 25 8 48 21 50 27 5 17 -123 15 -184 -3 -26 -8 -60 -12
-74 -9 -19 4 -22 3 -10 -5 12 -8 6 -10 -25 -10 -47 2 -111 16 -80 18 19 2 19
2 2 12 -9 6 -27 7 -40 4 -21 -6 -21 -6 -3 9 11 9 26 16 33 16 19 0 15 13 -10
31 -18 13 -34 15 -87 8 -36 -5 -101 -11 -145 -14 -104 -7 -133 -13 -175 -38
-60 -36 -160 -125 -261 -233 -185 -196 -270 -257 -396 -284 -67 -15 -105 -44
-101 -78 2 -14 9 -27 16 -28 7 -1 8 0 2 3 -5 2 -10 15 -10 29 0 25 35 49 80
55 30 4 30 4 30 -65 l0 -55 -47 -4 -48 -3 53 -2 c39 -2 52 -6 52 -17 0 -8 -4
-15 -10 -15 -5 0 -10 -9 -10 -20 0 -12 7 -20 16 -20 14 0 14 3 4 15 -7 8 -9
15 -5 15 4 0 16 -11 26 -24 10 -13 42 -39 71 -57 l52 -34 -29 -7 c-27 -7 -26
-7 6 -4 46 5 72 -9 32 -18 -15 -3 -101 -9 -191 -12 -152 -7 -161 -8 -147 -24
9 -10 13 -24 9 -35 -7 -16 -3 -17 34 -12 48 8 66 -8 25 -23 -15 -6 -37 -15
-48 -20 -11 -6 -121 -35 -245 -66 -240 -59 -380 -106 -607 -203 -78 -34 -146
-61 -151 -61 -6 0 -37 44 -70 98 -33 53 -69 102 -80 109 -11 6 -79 78 -153
160 -73 81 -152 168 -176 192 -23 25 -41 47 -39 49 3 2 42 -6 88 -17 160 -39
490 -84 723 -97 115 -7 461 10 530 26 22 5 66 12 98 15 41 5 57 11 57 22 0 12
-8 14 -40 9 -22 -3 -58 -9 -80 -12 -32 -5 -40 -3 -40 10 0 18 -55 23 -65 6 -7
-11 -74 -10 -80 0 -2 4 -33 2 -67 -3 -35 -5 -184 -10 -333 -11 -269 -1 -271
-1 -417 31 -422 92 -659 155 -1013 267 -476 151 -496 156 -675 166 -147 8
-186 17 -303 70 -46 20 -99 82 -104 120 -3 24 -52 159 -83 227 -15 33 -39 68
-52 77 -27 17 -199 78 -205 72 -2 -2 36 -18 84 -36 49 -18 98 -39 111 -47 26
-16 57 -83 96 -203 14 -47 31 -98 36 -113 l9 -28 -32 29 c-18 16 -63 60 -102
97 -111 107 -211 183 -258 196 -31 9 -62 9 -115 1 -60 -8 -85 -17 -140 -54
-83 -56 -229 -185 -437 -387 -88 -86 -206 -194 -262 -240 -57 -47 -103 -90
-103 -96 0 -12 144 -35 217 -35 22 0 46 -6 52 -14 10 -11 -3 -13 -81 -9 -98 4
-229 20 -237 29 -3 3 3 49 12 103 l17 99 -25 78 c-42 129 -56 191 -57 251 -2
53 0 58 34 87 31 26 156 103 263 160 90 48 467 226 508 240 107 36 199 14 297
-71 104 -90 156 -117 76 -38 -26 25 -50 45 -53 45 -3 0 -21 11 -39 25 -98 75
-191 91 -305 54 -73 -24 -264 -110 -318 -143 -20 -12 -49 -28 -66 -35 l-30
-13 20 24 c11 12 45 50 75 83 31 33 64 71 75 85 44 57 73 68 248 96 122 20
175 33 193 47 31 24 25 34 -8 13 -13 -8 -99 -26 -197 -40 -187 -27 -221 -40
-270 -106 -12 -17 -25 -30 -30 -30 -5 0 -9 41 -10 92 -1 50 -4 95 -7 100 -3 5
-3 25 1 44 8 44 37 58 168 79 187 30 400 76 447 96 26 11 59 32 72 46 l23 25
-35 -14 c-19 -8 -53 -18 -75 -22 -22 -4 -85 -23 -140 -41 -60 -20 -158 -42
-244 -54 -78 -12 -147 -23 -151 -26 -10 -6 -43 163 -38 200 2 16 14 36 30 48
29 21 79 28 393 47 236 15 325 26 339 40 8 9 4 9 -19 3 -49 -13 -219 -6 -260
11 -43 18 -69 21 -60 6 3 -5 15 -10 26 -10 11 0 18 -4 14 -9 -3 -6 -13 -9 -23
-9 -9 0 -44 -2 -77 -6 -69 -7 -63 -1 8 9 51 7 54 20 7 30 -16 4 -39 18 -50 32
-16 21 -20 23 -20 8 0 -10 -3 -16 -6 -13 -5 6 18 99 38 151 13 32 36 47 75 47
27 0 151 -23 302 -55 40 -9 115 -20 166 -24 187 -18 216 -33 328 -168 29 -34
97 -113 153 -175 55 -62 125 -145 155 -183 66 -87 156 -197 231 -285 67 -80
118 -107 271 -144 142 -35 391 -61 699 -72 137 -4 202 -3 211 4 7 6 54 14 105
18 51 4 92 11 92 16 0 9 -119 2 -193 -13 -58 -11 -294 -12 -301 -1 -7 11 483
92 519 85 30 -5 55 -27 55 -48 0 -7 -15 -17 -32 -23 -32 -10 -31 -10 22 -11
30 0 120 8 200 19 80 11 235 29 345 40 110 11 227 24 260 29 l60 8 -60 2 c-67
1 -262 -19 -529 -55 -99 -13 -182 -21 -185 -18 -3 3 10 20 29 37 79 69 174
159 155 147 -17 -12 -71 -55 -156 -127 -14 -12 -30 -4 -120 55 -143 94 -179
127 -179 163 0 16 14 68 30 116 17 48 29 96 29 107 -1 12 -1 114 -1 229 l2
207 30 0 c17 0 33 6 36 14 3 7 -13 40 -34 72 -121 180 -159 265 -178 394 -9
69 -70 297 -99 373 -33 88 -32 91 10 84 19 -3 37 -1 40 4 4 5 -14 9 -39 9 -39
0 -48 4 -61 28 -18 31 -18 30 36 -128 52 -150 74 -238 99 -393 13 -79 29 -141
42 -165 43 -76 153 -247 162 -254 28 -19 -21 -17 -221 11 -314 43 -510 64
-537 57 -30 -7 -60 -68 -60 -121 1 -22 9 -94 18 -160 17 -115 26 -153 26 -107
0 11 4 24 10 27 5 3 19 27 30 53 12 26 30 56 41 68 18 19 20 33 17 119 l-3 97
40 -7 c22 -3 43 -9 46 -13 9 -10 -16 -185 -42 -290 -12 -48 -32 -107 -47 -132
-31 -55 -132 -196 -132 -184 0 5 7 36 15 69 8 33 14 74 13 90 0 32 -1 31 -35
-133 -8 -41 -16 -72 -18 -70 -2 2 3 49 11 103 21 140 20 280 -4 403 l-19 102
28 45 c37 59 37 70 -1 25 -16 -19 -30 -30 -30 -24 0 17 66 124 74 119 3 -3 4
-2 2 1 -2 3 27 69 64 147 70 147 143 332 138 349 -2 6 -23 -39 -48 -98 -48
-119 -107 -243 -165 -344 -90 -157 -87 -149 -80 -225 4 -38 13 -104 21 -145
26 -140 6 -403 -37 -479 -39 -70 -57 -62 -203 90 -120 124 -142 154 -99 130
10 -5 52 -26 93 -46 41 -21 89 -48 107 -61 19 -14 34 -20 38 -14 8 13 -55 52
-182 114 -99 48 -102 51 -148 123 -33 51 -64 84 -99 108 -28 19 -64 45 -80 58
l-29 24 109 12 c172 20 205 28 237 59 70 65 318 480 317 529 0 10 -29 -39 -64
-109 -57 -115 -185 -320 -244 -389 -29 -35 -64 -46 -187 -59 -55 -5 -161 -16
-235 -25 -74 -8 -186 -15 -247 -15 l-113 0 -42 41 c-23 22 -53 46 -68 53 -30
16 -177 46 -223 46 -19 0 -70 21 -127 51 -219 115 -422 209 -530 244 -63 20
-116 38 -118 40 -2 2 -12 43 -23 92 -10 48 -21 99 -24 113 -5 19 14 5 75 -59
44 -46 83 -81 86 -78 3 3 -3 22 -14 44 -21 42 -63 167 -85 255 -17 64 -17 63
50 97 l43 21 50 -25 c67 -34 75 -32 31 12 l-36 36 45 20 c25 10 123 45 219 78
95 32 176 60 178 63 6 6 -23 13 -89 20 -74 9 -144 -10 -258 -67 -57 -28 -107
-53 -111 -55 -20 -9 -122 296 -145 429 -23 140 -17 335 14 402 l21 48 48 -5
c26 -3 77 -8 113 -11 219 -21 546 -126 659 -212 26 -20 33 -23 28 -9 -30 77
-199 267 -323 362 -41 31 -73 58 -71 60 2 2 19 -1 38 -6 19 -5 82 -13 141 -19
58 -6 148 -20 200 -32 51 -11 140 -31 199 -44 99 -22 219 -61 219 -71 0 -2
-31 -34 -70 -70 -38 -36 -92 -97 -120 -134 -42 -56 -53 -80 -61 -131 -5 -34
-7 -86 -3 -116 l6 -53 39 76 c64 125 153 255 245 356 37 41 37 41 66 25 32
-19 34 -16 11 19 -16 25 -15 26 38 80 30 31 71 69 93 87 32 26 41 29 57 19 10
-7 19 -8 19 -3 0 5 -6 12 -12 15 -15 5 26 46 46 46 19 0 157 -69 205 -103 25
-18 52 -33 59 -35 20 -4 6 34 -30 86 -16 23 -25 42 -21 42 11 0 104 -96 168
-173 26 -32 49 -56 50 -55 2 2 -3 39 -11 83 -26 143 6 248 96 305 102 66 181
50 282 -59 70 -75 131 -172 171 -273 34 -85 37 -196 7 -283 -22 -64 -95 -205
-142 -273 -31 -44 -77 -72 -121 -72 -23 0 -23 -1 -19 -92 2 -54 -3 -141 -12
-207 -9 -63 -14 -116 -12 -118 6 -6 36 168 36 210 0 20 3 37 6 37 3 0 30 -7
59 -16 53 -15 54 -16 61 -61 6 -44 1 -171 -12 -258 -5 -35 -4 -38 8 -20 17 27
24 295 9 353 -11 38 -15 43 -56 53 -26 7 -45 17 -45 25 0 8 -5 14 -12 14 -6 0
-4 8 6 19 10 11 15 24 12 29 -3 6 6 14 22 20 40 14 65 40 110 113 80 132 142
295 142 377 0 126 -76 305 -175 411 -33 35 -65 76 -72 90 -8 19 -12 21 -12 8
-1 -15 -6 -14 -51 9 -40 21 -59 25 -89 20 -83 -13 -192 -101 -206 -167 -4 -16
-13 -33 -21 -37 -13 -7 -13 -17 1 -81 21 -103 19 -110 -19 -60 -42 55 -254
242 -236 208 7 -13 37 -61 67 -106 29 -44 53 -84 53 -88 0 -4 -17 8 -39 28
-55 50 -157 107 -306 171 -72 31 -148 66 -170 77 -33 17 -23 4 60 -76 86 -82
94 -93 60 -77 -57 28 -339 122 -365 122 -13 0 -54 31 -108 83 -48 46 -108 98
-134 116 -26 19 -45 38 -42 42 3 5 -7 9 -23 9 l-28 0 37 -23 c47 -29 198 -177
315 -308 94 -106 216 -259 210 -265 -1 -2 -30 10 -62 25 -97 46 -240 90 -395
121 -148 29 -412 70 -455 70 -22 0 -68 16 -117 41 -10 5 -23 9 -30 9 -7 0 16
-16 52 -36 89 -47 206 -136 297 -225 75 -73 163 -171 163 -181 0 -3 -34 11
-75 32 -80 40 -241 97 -370 129 -159 40 -461 56 -501 26 -15 -12 -16 -14 -3
-15 16 0 47 -113 85 -310 8 -41 21 -110 30 -152 28 -145 109 -379 160 -459 13
-22 21 -39 16 -39 -33 0 -252 213 -252 246 0 8 -6 14 -13 14 -14 0 -70 90
-111 180 l-26 55 0 -40 c0 -45 13 -158 34 -315 8 -57 12 -108 10 -112 -3 -5 0
-25 6 -44 9 -28 15 -33 22 -23 12 18 -1 -30 -14 -51 -7 -11 -8 -7 -4 12 4 15
2 29 -3 32 -5 4 -12 25 -16 49 -13 77 -63 196 -145 346 l-81 149 11 102 c6 56
14 109 17 118 3 9 3 14 -1 10 -8 -6 -37 -113 -115 -413 -46 -177 -73 -343 -66
-411 4 -44 4 -46 -6 -19 -20 55 -22 366 -5 573 18 214 28 273 57 348 23 58 44
81 109 118 25 14 40 26 35 26 -18 0 -158 -84 -246 -147 -106 -77 -180 -150
-225 -225 -20 -33 -38 -57 -40 -55 -9 9 81 277 119 352 58 118 108 182 195
251 48 39 105 82 127 97 22 15 51 36 65 47 l25 20 -55 -16 c-30 -9 -71 -28
-90 -42 l-35 -25 24 26 c30 33 19 35 -68 12 -31 -8 -74 -16 -97 -19 -87 -11
-303 -101 -409 -170 -38 -25 -37 -24 10 18 27 24 54 42 59 39 5 -4 7 1 3 11
-4 10 -3 15 3 11 6 -3 10 -2 10 3 0 5 16 27 35 48 19 20 33 40 30 42 -8 8 137
147 185 177 63 40 201 107 288 140 l73 27 -103 35 c-221 74 -431 197 -572 336
-67 67 -166 191 -166 210 0 2 39 -15 87 -39 48 -24 103 -46 122 -50 20 -3 68
-14 106 -25 184 -49 535 -83 713 -70 112 9 161 21 86 21 -31 1 -36 3 -21 11 9
5 22 7 29 3 7 -4 8 -3 4 4 -4 7 -17 9 -31 6 -12 -3 -25 -2 -28 3 -9 14 3 51
17 56 6 2 -2 2 -19 -1 -43 -6 -194 -59 -211 -73 -10 -8 -42 -8 -128 0 -130 13
-275 36 -285 46 -3 4 37 47 89 95 52 49 91 92 87 96 -10 10 -98 -34 -157 -77
-26 -19 -58 -34 -76 -35 l-31 -2 51 102 c63 126 108 188 193 266 63 57 75 79
24 44 -22 -16 -23 -16 -11 5 8 16 19 21 40 19 16 -2 29 0 30 5 1 29 -1 37 -10
32 -6 -4 -7 -11 -4 -17 4 -7 2 -8 -4 -4 -6 4 -26 -1 -44 -10 l-33 -16 25 25
c33 34 178 88 350 131 208 52 328 67 550 69 120 1 178 5 150 9 -25 4 -142 7
-260 6 -130 -1 -255 4 -315 12 -70 9 -159 11 -300 7 -121 -4 -194 -2 -184 3
28 16 222 67 355 94 158 31 276 46 369 46 85 0 276 -23 365 -44 149 -34 260
-108 260 -173 0 -18 5 -33 10 -33 17 0 11 58 -9 99 -42 82 -254 279 -396 368
-80 51 -178 93 -236 102 -30 5 -90 18 -134 29 -112 28 -202 42 -335 50 l-115
8 80 12 c318 51 575 64 751 38 121 -18 261 -61 330 -101 24 -14 44 -27 44 -28
0 -1 11 -47 25 -101 14 -55 32 -153 40 -219 8 -66 18 -123 21 -126 15 -15 -33
316 -57 395 -25 81 -53 103 -196 153 -146 52 -318 74 -508 64z m-685 -907 c0
-2 -8 -10 -17 -17 -16 -13 -17 -12 -4 4 13 16 21 21 21 13z m-216 -221 c-9
-14 -18 -25 -21 -25 -5 0 5 18 20 38 17 22 18 13 1 -13z m-81 -130 c-3 -9 -8
-14 -10 -11 -3 3 -2 9 2 15 9 16 15 13 8 -4z m-32 -58 c-10 -9 -11 -8 -5 6 3
10 9 15 12 12 3 -3 0 -11 -7 -18z m804 -77 c3 -5 1 -10 -4 -10 -6 0 -11 5 -11
10 0 6 2 10 4 10 3 0 8 -4 11 -10z m-147 -57 c-10 -2 -26 -2 -35 0 -10 3 -2 5
17 5 19 0 27 -2 18 -5z m79 1 c-3 -3 -12 -4 -19 -1 -8 3 -5 6 6 6 11 1 17 -2
13 -5z m-632 -286 c5 -5 6 -8 2 -8 -3 0 -23 14 -44 32 -35 30 -36 30 -13 4 14
-16 54 -50 89 -77 35 -27 57 -49 48 -49 -25 0 -146 -50 -202 -84 -119 -71
-324 -258 -378 -344 -35 -54 -52 -63 -32 -15 23 55 75 146 143 249 66 100 274
341 300 347 10 2 31 -8 47 -22 17 -14 34 -29 40 -33z m-541 -49 c-8 -14 -101
-59 -119 -59 -12 0 -15 8 -13 33 3 30 6 32 48 37 54 6 92 1 84 -11z m821 -125
c13 -5 14 -8 3 -15 -17 -11 -31 -11 -24 0 4 5 0 12 -6 14 -9 4 -9 6 -1 6 6 1
19 -2 28 -5z m-105 -28 c-37 -14 -54 -11 -30 4 8 6 26 9 40 9 22 0 21 -2 -10
-13z m70 4 c0 -5 -4 -10 -10 -10 -5 0 -10 5 -10 10 0 6 5 10 10 10 6 0 10 -4
10 -10z m-125 -10 c-3 -5 -12 -10 -18 -10 -7 0 -6 4 3 10 19 12 23 12 15 0z
m-45 -24 c0 -2 -9 -6 -20 -9 -11 -3 -18 -1 -14 4 5 9 34 13 34 5z m-165 -66
c-3 -5 -31 -34 -62 -62 -30 -29 -73 -84 -96 -123 -22 -38 -63 -108 -91 -155
-28 -47 -65 -114 -83 -150 -18 -36 -33 -58 -33 -50 0 40 63 242 106 336 26 55
112 133 206 184 59 33 62 34 53 20z m85 -63 c0 -2 -19 -21 -42 -42 l-43 -40
40 43 c36 39 45 47 45 39z m2161 -91 c131 -42 248 -85 273 -98 20 -11 20 -11
1 -18 -11 -4 -56 -33 -99 -64 -43 -32 -82 -54 -85 -49 -4 4 -34 41 -67 82 -32
41 -81 99 -108 128 -27 30 -42 53 -34 53 8 0 62 -15 119 -34z m317 -26 c28
-12 52 -25 52 -29 0 -3 -13 -12 -28 -18 -26 -12 -31 -10 -87 43 -65 61 -69 61
63 4z m-2138 -33 c0 -2 -15 -16 -32 -33 l-33 -29 29 33 c28 30 36 37 36 29z
m-315 -87 c-16 -4 -39 -8 -50 -8 -16 0 -15 2 5 8 14 4 36 8 50 8 22 0 22 -1
-5 -8z m2360 -25 c-22 -19 -54 -51 -71 -70 -26 -29 -33 -33 -43 -21 -10 11 2
24 66 70 88 63 107 72 48 21z m-2334 -8 c-10 -9 -11 -8 -5 6 3 10 9 15 12 12
3 -3 0 -11 -7 -18z m-147 -2 c-10 -8 -15 -15 -10 -15 5 0 3 -7 -4 -15 -9 -11
-15 -13 -20 -5 -11 19 -41 -5 -75 -60 -16 -27 -31 -47 -33 -46 -1 2 8 23 20
49 16 32 37 54 73 76 51 32 84 43 49 16z m42 -32 c-10 -10 -19 5 -10 18 6 11
8 11 12 0 2 -7 1 -15 -2 -18z m224 3 c0 -3 -4 -8 -10 -11 -5 -3 -10 -1 -10 4
0 6 5 11 10 11 6 0 10 -2 10 -4z m-72 -130 c-34 -67 -53 -94 -58 -85 -4 8 -5
28 -3 46 4 24 9 31 24 28 10 -2 19 0 19 6 0 5 -5 9 -10 9 -7 0 -7 7 0 20 6 11
14 19 18 16 4 -2 6 12 6 32 -1 40 21 59 43 38 10 -9 1 -33 -39 -110z m-164 89
c-4 -8 -8 -15 -10 -15 -2 0 -4 7 -4 15 0 8 4 15 10 15 5 0 7 -7 4 -15z m-176
-27 c-21 -33 -93 -214 -108 -273 -17 -65 -55 -112 -138 -173 -149 -109 -195
-120 -95 -23 85 82 223 268 277 375 45 87 63 116 73 116 3 0 -1 -10 -9 -22z
m146 8 c-2 -6 -25 -11 -51 -12 -36 -1 -43 1 -31 10 20 14 87 16 82 2z m2327
-26 c17 -10 12 -18 -57 -98 -41 -48 -92 -113 -113 -145 l-39 -58 3 63 c3 61 5
65 54 120 47 52 55 57 83 51 28 -5 30 -4 20 12 -7 14 -6 25 7 42 19 26 17 26
42 13z m-2404 -52 c-10 -5 -17 -15 -17 -23 0 -9 -6 -12 -15 -9 -8 4 -15 1 -15
-5 0 -6 4 -11 8 -11 4 0 8 -9 9 -20 2 -17 0 -18 -12 -6 -8 8 -20 16 -26 18
-19 6 8 48 30 48 15 0 18 5 14 21 -5 19 -4 20 17 9 21 -11 21 -13 7 -22z
m1044 6 c-2 -10 -9 -53 -16 -94 l-13 -75 0 55 c0 30 -3 64 -7 75 -5 16 -5 17
4 5 8 -12 11 -7 11 23 0 27 4 37 13 34 6 -2 10 -13 8 -23z m-1360 -57 c-13
-13 -15 1 -4 30 7 17 8 17 11 -1 2 -10 -1 -23 -7 -29z m380 -52 l-6 -60 -52
-3 c-48 -3 -52 -5 -58 -32 -5 -24 -9 -27 -19 -17 -8 6 -11 18 -9 25 3 7 8 10
11 7 4 -3 11 11 17 32 7 21 17 37 23 36 7 -2 12 9 12 27 0 20 5 30 15 30 9 0
26 9 37 20 29 27 36 11 29 -65z m-126 20 c9 -8 8 -14 -7 -28 -18 -17 -18 -17
-12 8 3 14 2 25 -4 25 -5 0 -12 -12 -15 -27 -3 -16 -9 -36 -12 -46 -6 -13 -3
-16 9 -11 15 6 14 2 -3 -29 -11 -20 -34 -73 -50 -119 -22 -58 -29 -71 -25 -43
4 22 10 44 15 50 5 5 9 22 9 37 0 15 5 28 11 28 5 0 7 5 4 10 -3 6 -1 10 5 10
7 0 10 7 7 15 -6 15 19 114 33 129 5 5 6 16 3 25 -3 10 0 8 8 -4 7 -11 18 -24
24 -30z m226 18 c13 -16 12 -17 -3 -4 -17 13 -22 21 -14 21 2 0 10 -8 17 -17z
m-510 -89 c-24 -68 -31 -76 -51 -64 -13 8 -12 10 3 10 14 0 17 5 12 21 -5 14
-3 19 3 15 6 -3 18 14 28 39 25 66 29 48 5 -21z m454 27 c-3 -6 -11 -8 -17 -5
-6 4 -5 9 3 15 16 10 23 4 14 -10z m-485 -21 c0 -5 -5 -10 -11 -10 -5 0 -7 5
-4 10 3 6 8 10 11 10 2 0 4 -4 4 -10z m370 -109 c0 -16 5 -31 12 -33 9 -3 9
-6 0 -12 -7 -4 -12 -2 -12 3 0 12 -26 15 -33 4 -2 -5 -2 -2 0 5 1 8 3 25 3 38
0 15 6 24 15 24 10 0 15 -10 15 -29z m-70 -25 c0 -3 -3 -5 -7 -5 -21 3 -33 -3
-33 -17 0 -9 5 -13 13 -9 6 4 5 0 -4 -7 -9 -7 -27 -45 -40 -83 -13 -39 -25
-62 -27 -53 -2 9 6 38 16 65 11 26 27 69 37 95 14 41 19 46 31 34 8 -8 14 -17
14 -20z m-10 -78 c0 -17 -3 -19 -9 -9 -7 11 -10 9 -16 -8 -3 -11 -10 -21 -15
-21 -4 0 -3 14 3 30 13 35 37 40 37 8z m45 -18 c3 -5 1 -10 -4 -10 -6 0 -11 5
-11 10 0 6 2 10 4 10 3 0 8 -4 11 -10z m-21 -105 c-9 -14 -19 -23 -22 -20 -5
4 26 45 35 45 2 0 -4 -11 -13 -25z m-113 -110 c-3 -5 -7 2 -9 18 -2 15 -7 25
-11 22 -5 -2 -6 8 -3 23 5 26 6 25 17 -13 6 -22 9 -44 6 -50z m-30 -28 c-13
-13 -15 11 -4 40 7 16 8 15 11 -6 2 -13 -1 -28 -7 -34z m-14 -49 c-3 -8 -6 -5
-6 6 -1 11 2 17 5 13 3 -3 4 -12 1 -19z m390 -50 c-3 -8 -6 -5 -6 6 -1 11 2
17 5 13 3 -3 4 -12 1 -19z m-400 -30 c-3 -8 -6 -5 -6 6 -1 11 2 17 5 13 3 -3
4 -12 1 -19z m439 -48 c7 -9 38 -68 69 -133 34 -70 68 -127 87 -142 16 -14 25
-25 19 -25 -17 0 47 -84 70 -92 11 -4 17 -12 14 -18 -3 -5 1 -20 10 -32 l17
-23 -7 25 c-6 24 -6 24 19 -5 14 -16 31 -42 38 -57 7 -16 16 -28 19 -28 4 0 9
-7 13 -15 16 -42 -333 255 -359 305 -9 17 -15 63 -16 124 -1 53 -5 96 -8 96
-3 0 -7 17 -7 38 -1 20 0 28 3 17 3 -11 11 -27 19 -35z m-449 -52 c-2 -13 -4
-3 -4 22 0 25 2 35 4 23 2 -13 2 -33 0 -45z m1356 -44 c-15 -13 -31 -23 -35
-24 -5 0 -8 23 -8 51 l0 50 36 -27 35 -27 -28 -23z m-1356 -6 c-3 -8 -6 -5 -6
6 -1 11 2 17 5 13 3 -3 4 -12 1 -19z m10 -135 c-3 -10 -5 -2 -5 17 0 19 2 27
5 18 2 -10 2 -26 0 -35z m1153 17 c-6 -11 -8 -26 -4 -32 4 -7 3 -8 -4 -4 -7 4
-12 2 -12 -5 0 -7 -3 -10 -6 -7 -6 6 23 68 32 68 2 0 0 -9 -6 -20z m-395 -30
c-4 -17 -9 -29 -12 -26 -3 2 -2 19 2 36 4 17 9 29 12 26 3 -2 2 -19 -2 -36z
m-316 -55 c-1 -16 -5 -43 -9 -60 -8 -29 -8 -28 -8 10 0 46 -7 98 -17 117 -4 7
3 2 14 -12 11 -14 20 -38 20 -55z m351 12 c0 -13 160 -187 173 -187 4 0 7 7 7
15 0 8 -3 15 -7 15 -5 0 -9 23 -11 50 -2 32 1 50 9 50 6 0 9 -6 6 -14 -3 -8 1
-20 8 -26 8 -7 13 -16 10 -19 -7 -12 17 -81 28 -81 5 0 6 8 3 17 -4 9 -1 20 6
24 10 7 11 12 1 28 -7 11 -10 27 -7 36 4 10 0 15 -10 15 -9 0 -16 6 -15 13 3
25 -1 38 -11 32 -11 -7 -12 2 -2 27 5 13 29 -16 97 -117 49 -74 92 -135 96
-135 8 0 22 131 14 138 -3 4 -10 0 -15 -8 -7 -11 -10 -3 -9 25 0 22 3 33 6 25
3 -8 14 -26 24 -39 11 -13 19 -32 19 -42 0 -11 5 -19 11 -19 5 0 7 -4 4 -10
-3 -5 -1 -18 4 -27 10 -17 10 -16 11 2 1 34 15 -1 49 -125 18 -63 49 -147 70
-187 21 -40 33 -69 27 -66 -16 9 -111 89 -175 146 -29 26 -55 46 -57 44 -2 -2
3 -39 11 -82 9 -43 13 -80 11 -82 -2 -2 -17 25 -34 60 -16 35 -46 88 -66 118
-37 53 -184 229 -192 229 -13 0 3 -25 52 -81 l56 -63 -6 -55 c-3 -31 -11 -74
-17 -96 l-12 -40 -14 69 c-8 38 -22 83 -31 100 -9 17 -18 42 -20 56 -2 14 -11
36 -20 49 -9 13 -20 29 -23 35 -55 107 -69 136 -68 143 1 4 0 10 -1 13 -6 16
-5 48 2 44 4 -3 8 -11 8 -17z m145 -7 c-3 -5 -2 -10 3 -10 6 0 8 -9 5 -20 -7
-25 -8 -23 -17 13 -4 17 -2 27 4 27 6 0 8 -4 5 -10z m-496 -194 c0 -16 -2 -26
-5 -23 -4 4 -8 30 -9 59 -3 41 -1 46 5 23 4 -16 8 -43 9 -59z m925 68 c5 -14
4 -15 -9 -4 -17 14 -19 20 -6 20 5 0 12 -7 15 -16z m-184 -29 c0 -8 -4 -15
-10 -15 -5 0 -7 7 -4 15 4 8 8 15 10 15 2 0 4 -7 4 -15z m180 -204 c0 -5 -6
-14 -14 -20 -11 -9 -15 -7 -19 9 -4 15 0 20 14 20 10 0 19 -4 19 -9z m89 -22
l31 -11 -31 -36 c-27 -31 -30 -40 -25 -76 6 -40 51 -95 87 -108 22 -8 3 -21
-19 -14 -40 13 -75 50 -103 110 -55 115 -32 167 60 135z m111 -54 c7 -9 18
-14 24 -12 21 8 62 -17 101 -60 l37 -43 -75 0 c-75 0 -97 -9 -110 -42 -9 -24
-48 27 -54 69 -9 71 42 130 77 88z m-75 -5 c-3 -5 -12 -10 -18 -10 -7 0 -6 4
3 10 19 12 23 12 15 0z m-538 -82 c-3 -7 -5 -2 -5 12 0 14 2 19 5 13 2 -7 2
-19 0 -25z m939 -66 c-2 -2 -13 1 -24 7 -11 6 -22 8 -26 6 -3 -3 -4 -2 -1 2 3
3 -3 12 -13 20 -9 8 2 4 25 -8 24 -12 41 -24 39 -27z m7324 27 c0 -6 9 -8 20
-4 11 4 20 2 20 -4 0 -6 -7 -11 -15 -11 -8 0 -20 -10 -26 -22 -9 -16 -14 -19
-17 -9 -4 11 -6 11 -13 0 -6 -11 -16 -10 -56 2 l-48 15 55 22 c63 24 80 26 80
11z m-7794 -71 c27 -24 52 -47 55 -51 3 -5 9 -2 12 6 3 9 -1 18 -10 21 -9 4
-13 9 -10 12 3 3 14 1 25 -5 20 -11 20 -12 -12 -103 l-33 -93 -69 -6 c-38 -4
-73 -4 -77 -2 -10 6 -3 56 17 123 8 25 19 66 26 93 7 26 16 47 20 47 4 0 29
-19 56 -42z m7699 -6 c-15 -14 -91 -56 -80 -45 22 22 68 53 78 53 7 0 7 -3 2
-8z m-4960 -32 c71 -10 80 -14 81 -33 1 -12 7 -51 14 -87 18 -99 16 -252 -5
-355 -10 -49 -19 -103 -20 -118 -7 -74 -8 -74 -92 -81 -63 -4 -358 -3 -461 3
-22 1 -21 3 21 89 24 48 59 132 78 187 24 70 52 127 95 190 33 50 78 121 99
159 38 67 38 68 74 63 20 -3 72 -11 116 -17z m-1315 -125 c13 -14 56 -45 95
-69 66 -42 74 -51 130 -148 44 -76 87 -131 163 -211 57 -60 101 -112 97 -115
-12 -12 -208 199 -254 273 -24 39 -55 87 -68 108 -14 23 -31 37 -44 37 -40 0
-98 -40 -168 -117 l-71 -78 -31 35 c-17 19 -81 88 -142 154 -62 65 -113 121
-114 125 -2 3 55 7 125 8 102 2 197 10 253 22 3 0 16 -10 29 -24z m-1349 -32
c-12 -20 -14 -14 -5 12 4 9 9 14 11 11 3 -2 0 -13 -6 -23z m-291 -284 c11 -38
10 -41 -19 -69 -30 -27 -31 -30 -31 -123 0 -73 -4 -97 -15 -107 -9 -7 -14 -19
-11 -26 2 -6 2 -15 -2 -18 -12 -12 -8 -45 5 -50 8 -3 11 -1 8 4 -9 14 4 70 16
70 5 0 9 -23 9 -51 0 -48 -4 -56 -56 -118 -31 -36 -64 -76 -75 -88 -17 -20
-128 -83 -146 -83 -12 0 -53 106 -53 136 0 46 57 138 154 249 70 81 109 137
148 212 29 57 54 103 55 103 1 0 7 -18 13 -41z m6216 -64 c-23 -17 -36 -19
-36 -6 0 11 18 19 40 20 11 0 10 -3 -4 -14z m1072 8 c-32 -2 -86 -2 -120 0
-35 2 -9 3 57 3 66 0 94 -1 63 -3z m255 0 c-13 -2 -35 -2 -50 0 -16 2 -5 4 22
4 28 0 40 -2 28 -4z m-1015 -10 c-10 -2 -28 -2 -40 0 -13 2 -5 4 17 4 22 1 32
-1 23 -4z m1150 -94 c-1 -38 -10 -37 -24 4 -6 17 -15 41 -19 52 -7 18 -6 18
18 -4 17 -15 25 -33 25 -52z m-1528 51 c0 -12 -28 -25 -36 -17 -9 9 6 27 22
27 8 0 14 -5 14 -10z m-4292 -74 l42 -46 -60 0 -60 0 0 55 c0 50 2 55 18 46 9
-5 36 -30 60 -55z m6037 -5 c3 -5 1 -12 -5 -16 -5 -3 -10 1 -10 9 0 18 6 21
15 7z m-1091 -59 c9 -48 18 -167 12 -162 -3 3 -10 39 -16 80 -6 41 -13 86 -16
98 -3 14 -1 21 5 18 5 -4 12 -19 15 -34z m1101 18 c3 -5 2 -10 -4 -10 -5 0
-13 5 -16 10 -3 6 -2 10 4 10 5 0 13 -4 16 -10z m-5720 -80 c3 -5 -3 -10 -15
-10 -12 0 -18 5 -15 10 3 6 10 10 15 10 5 0 12 -4 15 -10z m683 -40 c34 -2 65
-7 68 -12 3 -4 9 -6 14 -3 4 3 13 -2 19 -9 15 -18 0 -28 -49 -33 -19 -2 -36
-8 -38 -13 -5 -15 -32 -12 -32 3 0 16 -20 -14 -20 -31 0 -9 7 -11 20 -7 11 3
20 3 20 -2 0 -7 -41 -17 -264 -66 -58 -12 -209 1 -441 40 -161 27 -195 37
-151 45 14 3 26 1 26 -3 0 -5 4 -9 8 -9 4 0 8 12 7 28 0 22 6 29 33 37 17 5
32 13 32 18 0 4 16 5 35 1 25 -4 35 -3 35 7 0 8 6 5 15 -7 8 -10 15 -15 15
-10 0 5 7 3 15 -4 9 -7 13 -21 9 -35 -4 -16 1 -29 18 -45 34 -32 57 -39 171
-46 109 -7 111 -7 147 45 9 13 21 19 32 15 10 -3 18 0 18 7 0 8 5 8 17 -2 15
-12 16 -12 10 6 -7 19 -6 19 7 3 16 -22 27 -23 20 -3 -4 10 -2 14 7 10 8 -3
21 0 29 5 13 9 13 11 0 20 -8 6 -28 9 -45 7 -16 -2 -37 -1 -45 4 -8 4 -27 10
-42 14 -16 3 -28 10 -28 15 0 14 121 18 308 10z m4040 -28 c2 -7 -5 -12 -16
-12 -13 0 -24 -10 -31 -27 -10 -26 -10 -26 -5 7 8 46 40 66 52 32z m-4874 -23
c-3 -5 -10 -7 -15 -3 -5 3 -7 10 -3 15 3 5 10 7 15 3 5 -3 7 -10 3 -15z m4816
-159 c0 -5 -5 -10 -11 -10 -5 0 -7 5 -4 10 3 6 8 10 11 10 2 0 4 -4 4 -10z
m-863 -66 c-3 -3 -12 -4 -19 -1 -8 3 -5 6 6 6 11 1 17 -2 13 -5z m1665 -104
c4 -47 19 -249 33 -450 14 -201 32 -464 40 -585 8 -121 20 -287 25 -370 6 -82
17 -242 25 -355 8 -113 20 -272 25 -355 6 -82 13 -183 16 -224 l6 -74 -29 7
c-15 4 -36 9 -47 13 -11 3 -16 1 -12 -5 3 -5 23 -13 43 -17 21 -4 40 -10 43
-15 3 -4 4 -62 2 -129 l-3 -121 -33 -25 c-49 -37 -145 -59 -266 -59 -87 -1
-129 5 -243 33 -84 21 -136 38 -134 45 5 15 29 12 112 -13 99 -31 270 -40 327
-18 50 19 106 70 150 137 17 25 40 56 52 70 12 14 5 9 -14 -11 -19 -20 -57
-62 -84 -94 -73 -85 -112 -99 -246 -92 -106 7 -150 15 -227 43 -37 13 -43 20
-43 43 0 16 -5 41 -10 57 -9 26 -21 33 -103 58 -50 16 -87 30 -82 32 6 3 42
-6 81 -20 l70 -23 13 26 c7 14 21 49 32 76 11 28 37 70 58 95 l38 45 -44 23
c-23 12 -43 20 -43 17 0 -2 14 -11 30 -20 17 -9 30 -20 30 -25 0 -5 -16 -31
-35 -56 -20 -25 -47 -70 -61 -100 -14 -30 -32 -54 -40 -54 -27 0 -127 40 -167
66 -24 16 -46 42 -58 70 -11 24 -24 44 -30 44 -6 0 -8 4 -5 9 4 5 2 11 -3 13
-4 1 -12 13 -15 26 -7 21 -5 22 56 23 35 1 51 4 35 6 -15 2 -25 9 -22 14 4 5
1 9 -4 9 -6 0 -11 -5 -11 -12 0 -6 -9 -2 -20 10 -12 12 -26 22 -33 22 -7 0
-24 14 -39 32 -23 28 -26 29 -21 10 4 -17 2 -21 -9 -17 -18 7 -103 -66 -111
-94 -4 -16 6 -27 41 -51 25 -16 51 -30 59 -30 9 0 13 -13 13 -40 0 -22 -3 -40
-7 -40 -16 0 -31 16 -34 35 -3 12 -29 32 -74 55 -54 28 -78 48 -103 85 -18 27
-36 62 -39 77 -3 15 -11 28 -18 28 -7 0 -18 7 -25 15 -7 9 -19 14 -26 11 -7
-3 -16 -1 -19 5 -4 5 -11 7 -16 4 -5 -3 -6 0 -4 7 4 9 -7 18 -30 27 -20 7 -35
15 -33 17 6 5 107 -25 141 -42 18 -8 25 -9 21 -2 -4 6 -11 25 -15 42 l-7 31
-1 -29 c-1 -24 -4 -27 -13 -18 -9 9 -14 67 -16 187 -4 158 5 298 15 253 3 -10
11 -18 19 -18 8 0 14 -3 14 -7 0 -5 12 -21 26 -38 41 -48 -20 42 -105 155 -61
82 -141 214 -141 235 0 3 5 3 12 -1 7 -4 8 -3 4 5 -4 6 -11 9 -15 6 -17 -10
-85 176 -111 304 -41 200 -52 247 -65 266 -10 17 -9 74 7 315 11 162 22 298
26 302 13 13 200 -10 239 -29 55 -27 71 -64 93 -214 20 -134 41 -210 111 -394
l38 -100 1 55 c0 43 -4 58 -18 67 -11 6 -32 51 -50 100 -44 127 -50 154 -72
292 -22 140 -42 181 -102 208 -21 9 -38 22 -38 28 0 21 25 45 55 53 l30 9 -24
12 c-20 11 -30 10 -61 -4 -35 -16 -42 -16 -87 -2 -26 9 -63 19 -80 22 -30 6
-33 10 -33 45 0 37 1 39 38 43 20 2 361 4 757 3 l720 -1 7 -85z m-2180 -1
c-33 -14 -54 -17 -85 -12 l-42 7 65 12 c95 17 111 15 62 -7z m-4158 -318 c40
-12 96 -21 135 -21 96 0 230 -24 356 -63 61 -19 141 -42 179 -52 38 -11 64
-21 58 -23 -6 -2 -81 17 -167 43 -85 25 -161 43 -166 39 -6 -4 -15 -1 -19 5
-4 7 -33 14 -66 16 -49 4 -53 3 -24 -4 19 -5 39 -7 44 -4 5 4 7 -1 3 -10 -4
-11 -2 -14 9 -10 8 3 20 1 27 -5 6 -5 28 -13 47 -17 43 -8 151 -37 290 -77 98
-29 267 -69 279 -67 4 0 -7 7 -24 14 -16 8 -23 14 -15 14 21 0 78 -27 60 -29
-43 -3 129 -66 273 -100 106 -24 113 -28 185 -92 92 -82 382 -370 382 -379 0
-5 -171 -9 -380 -9 l-380 0 -117 61 c-312 163 -434 247 -739 512 -96 84 -202
174 -235 201 -33 27 -57 51 -54 54 3 3 11 0 17 -6 7 -7 19 -12 28 -12 8 0 2 7
-14 15 -15 8 -32 12 -37 9 -5 -3 -21 7 -36 21 l-28 27 30 -15 c17 -8 61 -24
99 -36z m6446 -126 c0 -5 -5 -3 -10 5 -5 8 -10 20 -10 25 0 6 5 3 10 -5 5 -8
10 -19 10 -25z m-1726 -264 c-10 -127 -20 -140 -28 -35 -8 106 -1 151 21 133
11 -10 12 -30 7 -98z m-6193 82 c13 -17 13 -17 -6 -3 -11 8 -22 16 -24 17 -2
2 0 3 6 3 6 0 17 -8 24 -17z m6106 -39 c-3 -3 -12 -4 -19 -1 -8 3 -5 6 6 6 11
1 17 -2 13 -5z m173 -181 c0 -2 -11 -3 -25 -3 -27 0 -30 12 -18 84 l6 39 18
-59 c10 -33 19 -60 19 -61z m-2057 60 c-7 -2 -19 -2 -25 0 -7 3 -2 5 12 5 14
0 19 -2 13 -5z m650 -90 c-7 -2 -19 -2 -25 0 -7 3 -2 5 12 5 14 0 19 -2 13 -5z
m1406 -33 c0 -10 -3 -8 -9 5 -12 27 -12 43 0 25 5 -8 9 -22 9 -30z m-1739 0
c0 -5 -4 -10 -9 -10 -6 0 -13 5 -16 10 -3 6 1 10 9 10 9 0 16 -4 16 -10z
m1640 -37 c-1 -56 -57 -443 -65 -451 -4 -4 -5 8 -2 25 4 18 12 126 18 240 11
195 16 222 42 223 4 0 7 -17 7 -37z m112 -90 c-11 -84 -9 -257 9 -676 10 -209
9 -280 0 -325 -20 -93 -41 -162 -51 -162 -5 0 -22 12 -39 26 -17 14 -40 26
-52 27 -21 1 -21 5 -15 77 3 41 20 269 36 505 17 237 33 471 36 522 l7 92 31
3 c17 2 35 0 40 -4 5 -4 4 -40 -2 -85z m-217 -40 c-3 -60 -22 -310 -41 -558
-20 -247 -39 -506 -44 -575 -4 -69 -8 -128 -9 -132 -1 -5 -9 -8 -19 -8 -17 0
-20 12 -25 108 -13 217 -56 841 -68 972 -9 110 -17 146 -39 197 -16 34 -26 64
-22 67 9 9 70 7 76 -3 8 -12 104 -21 129 -12 12 5 31 18 42 29 11 12 21 21 23
21 2 1 0 -47 -3 -106z m-260 7 c9 -17 10 -31 4 -41 -12 -20 -11 -56 2 -65 8
-5 10 1 7 20 -4 17 -1 25 6 23 6 -2 12 -23 13 -48 2 -24 10 -150 18 -279 40
-622 53 -827 52 -855 -1 -16 2 -42 6 -58 11 -40 -15 -35 -35 6 -11 23 -20 91
-28 223 -12 200 -20 308 -44 599 -8 99 -17 214 -20 255 -5 84 -22 168 -38 187
-17 21 9 45 35 32 19 -11 18 -9 -4 22 -16 24 -18 30 -5 20 9 -8 23 -26 31 -41z
m498 -131 c-6 -145 -9 -162 -14 -104 -6 71 -1 249 7 274 12 37 14 -11 7 -170z
m-223 -240 c0 -10 -4 -19 -10 -19 -5 0 -10 12 -10 26 0 14 4 23 10 19 6 -3 10
-15 10 -26z m61 -229 c-10 -154 -21 -296 -36 -480 -2 -30 -7 -108 -11 -172
l-7 -118 -52 0 c-51 0 -52 0 -47 29 3 23 12 31 43 41 45 15 46 18 53 145 11
193 27 421 31 441 3 11 8 63 11 115 4 52 8 101 10 109 1 8 3 38 5 65 1 30 4
40 6 25 3 -14 0 -104 -6 -200z m-72 90 c-4 -47 -10 -130 -13 -185 -15 -261
-21 -319 -36 -343 -7 -12 -9 15 -5 93 3 61 8 121 10 135 3 14 9 95 15 180 13
186 20 239 30 219 4 -8 3 -52 -1 -99z m-7130 -45 c39 -49 71 -94 71 -99 0 -13
-6 -7 -94 104 -42 52 -76 99 -76 105 0 13 18 -7 99 -110z m5385 75 c31 29 44
25 16 -5 l-23 -25 51 -54 c66 -70 69 -90 4 -32 -13 12 -27 20 -30 19 -4 -2 -7
0 -7 5 0 16 -17 32 -27 26 -7 -4 -8 -2 -4 4 14 23 -11 11 -39 -18 -16 -16 -31
-28 -34 -25 -2 3 10 20 28 39 l32 33 -28 34 -28 34 34 -28 34 -28 21 21z m258
15 c10 -13 -2 -147 -13 -159 -6 -6 -9 -6 -9 0 0 5 -13 10 -28 11 -15 1 -41 5
-57 8 -17 4 -37 7 -46 8 -15 2 -89 66 -89 77 0 4 7 15 15 26 8 10 15 15 14 9
-3 -24 2 -28 14 -11 9 12 35 20 81 26 37 4 70 10 72 13 8 8 39 3 46 -8z m1515
-32 c-3 -10 -5 -2 -5 17 0 19 2 27 5 18 2 -10 2 -26 0 -35z m-10 -120 c-2 -16
-4 -5 -4 22 0 28 2 40 4 28 2 -13 2 -35 0 -50z m1860 20 c-3 -10 -5 -2 -5 17
0 19 2 27 5 18 2 -10 2 -26 0 -35z m-8577 23 c0 -2 -7 -7 -16 -10 -8 -3 -12
-2 -9 4 6 10 25 14 25 6z m-40 -58 c0 -10 2 -10 8 -1 4 7 13 9 20 4 9 -5 5
-11 -13 -19 -14 -6 -25 -10 -25 -8 0 3 -3 11 -6 20 -3 9 -1 16 5 16 6 0 11 -6
11 -12z m532 -25 c24 -21 26 -93 2 -93 -24 0 -64 42 -64 67 0 12 8 27 18 32
23 14 23 14 44 -6z m6215 -45 c-3 -8 -6 -5 -6 6 -1 11 2 17 5 13 3 -3 4 -12 1
-19z m1885 -30 c-3 -61 -12 -60 -12 2 0 29 3 50 7 47 3 -4 6 -26 5 -49z
m-1891 -150 c-25 -313 -28 -340 -30 -273 0 33 3 110 9 170 5 61 10 139 11 175
2 67 8 95 17 86 3 -3 -1 -74 -7 -158z m-6861 128 c0 -8 -61 -48 -66 -43 -3 2
10 14 28 26 35 22 38 23 38 17z m8757 -128 c-2 -13 -4 -5 -4 17 -1 22 1 32 4
23 2 -10 2 -28 0 -40z m-1632 -65 c-2 -7 -9 -13 -15 -13 -11 0 -14 103 -2 114
8 9 24 -83 17 -101z m-7197 -112 c-3 -119 -4 -120 -85 -86 -56 23 -32 29 27 6
l52 -20 -4 125 c-2 73 0 116 4 103 5 -12 7 -70 6 -128z m7247 89 c-3 -5 -11
-10 -16 -10 -6 0 -7 5 -4 10 3 6 11 10 16 10 6 0 7 -4 4 -10z m75 0 c4 0 6 -9
3 -20 -5 -20 -33 -29 -33 -11 0 5 -3 17 -7 27 -5 14 -3 16 11 11 10 -4 21 -7
26 -7z m-112 -17 c-2 -9 -13 -27 -25 -39 -26 -26 -31 -59 -9 -51 10 4 13 1 9
-9 -3 -7 0 -14 6 -14 6 0 11 7 11 15 0 8 5 15 10 15 6 0 4 -13 -5 -30 -15 -28
-26 -39 -24 -22 3 19 -2 23 -16 12 -13 -11 -14 -10 -9 4 3 9 4 16 1 16 -3 0
-9 -13 -15 -28 -8 -23 -7 -29 4 -29 8 0 14 4 14 9 0 5 5 6 10 3 19 -12 10 -25
-18 -25 -16 0 -31 2 -34 6 -3 3 3 27 13 55 11 27 19 60 19 73 0 27 24 56 46
56 8 0 14 -7 12 -17z m-7128 2 c0 -16 -26 -55 -37 -55 -16 0 -16 2 -1 35 9 21
38 36 38 20z m7190 -10 c7 -9 8 -15 2 -15 -5 0 -12 7 -16 15 -3 8 -4 15 -2 15
2 0 9 -7 16 -15z m1567 -37 c-2 -13 -4 -5 -4 17 -1 22 1 32 4 23 2 -10 2 -28
0 -40z m-8906 -5 c-11 -21 -20 -35 -21 -31 0 12 33 78 38 74 2 -2 -6 -21 -17
-43z m345 -22 c-3 -5 10 -17 30 -26 27 -13 33 -19 23 -26 -9 -5 5 -8 36 -7 42
2 50 -1 47 -15 -2 -9 3 -17 9 -17 7 0 3 -9 -10 -21 -27 -26 -24 -54 7 -53 12
0 22 -5 22 -13 0 -7 -5 -13 -11 -13 -17 0 -34 -23 -37 -50 -5 -53 -9 -63 -25
-72 -9 -5 -17 -6 -17 -3 0 3 -9 1 -21 -5 -15 -9 -19 -18 -15 -34 4 -18 0 -26
-20 -35 -17 -8 -24 -17 -20 -27 3 -9 6 -20 6 -25 0 -6 5 -7 10 -4 6 3 10 2 10
-3 0 -6 -7 -13 -16 -16 -12 -4 -14 -13 -10 -31 7 -26 -15 -71 -27 -58 -4 3 -7
1 -7 -7 0 -9 -3 -10 -14 -1 -11 9 -15 7 -19 -11 -8 -27 1 -38 13 -18 7 11 10
9 10 -12 0 -15 -4 -30 -10 -33 -5 -3 -10 -16 -10 -27 0 -34 -9 -15 -14 28 -2
21 -13 111 -25 199 -19 141 -38 456 -25 398 7 -30 22 -29 34 3 6 14 14 22 20
19 5 -3 10 -2 10 4 0 5 15 12 33 14 17 2 33 5 35 5 2 1 1 -2 -2 -7z m7059 -11
c65 -17 115 -42 115 -57 0 -8 4 -11 10 -8 7 4 7 -2 1 -18 -8 -21 -6 -26 10
-30 15 -4 18 -1 13 17 -3 12 -1 33 4 46 l10 25 10 -25 c5 -14 26 -49 46 -77
39 -57 37 -64 -9 -33 -34 23 -48 25 -43 8 2 -6 12 -12 22 -14 45 -6 32 -22
-43 -51 -42 -16 -45 -16 -75 1 -47 27 -189 102 -203 107 -8 3 -4 21 15 62 29
63 39 67 117 47z m-7432 -25 c-3 -9 -8 -14 -10 -11 -3 3 -2 9 2 15 9 16 15 13
8 -4z m7164 -29 c34 -31 35 -34 17 -40 -12 -3 -37 1 -57 9 -29 12 -37 21 -37
40 0 36 32 32 77 -9z m717 2 c7 -13 17 -36 20 -52 l7 -29 -26 31 c-22 26 -30
30 -45 22 -36 -19 -43 -10 -15 20 34 36 40 37 59 8z m-759 -48 c18 -8 17 -9
-7 -9 -15 -1 -30 4 -33 9 -7 12 12 12 40 0z m745 -9 c21 -40 1 -44 -24 -6 -14
21 -14 25 -2 25 9 0 20 -9 26 -19z m0 -68 c0 -14 -34 -4 -75 23 -31 20 -31 28
-2 41 19 9 26 6 49 -21 15 -17 27 -37 28 -43z m-514 22 c49 -24 109 -56 134
-70 25 -14 50 -25 57 -25 7 0 13 -4 13 -9 0 -12 98 -53 110 -46 6 3 10 2 10
-3 0 -23 199 -49 258 -33 44 12 83 4 46 -10 -15 -5 -12 -7 11 -7 62 1 149 -25
175 -52 14 -15 34 -30 45 -34 18 -7 18 -8 -5 -21 -77 -45 -81 -45 -335 -45
-245 0 -367 10 -416 35 -14 8 -51 43 -82 79 -41 46 -69 68 -98 78 -37 12 -42
17 -45 51 -2 20 -7 45 -13 54 -6 12 -7 2 -4 -32 l6 -48 -34 8 c-19 4 -46 8
-60 8 l-26 0 21 39 c13 22 26 36 34 33 9 -3 11 1 8 13 -8 25 43 81 75 81 14 1
66 -19 115 -44z m-185 22 c-5 -5 -27 -11 -50 -14 -31 -4 -41 -2 -41 8 0 10 14
14 50 14 27 0 45 -4 41 -8z m-2251 -102 c-41 -41 -76 -72 -79 -69 -6 6 130
144 143 144 6 0 -23 -34 -64 -75z m2077 53 c-3 -8 -6 -5 -6 6 -1 11 2 17 5 13
3 -3 4 -12 1 -19z m947 -58 l21 -25 -24 20 c-22 19 -51 66 -51 82 1 4 8 -5 17
-22 8 -16 25 -41 37 -55z m-804 63 c0 -5 -16 -35 -35 -68 -36 -63 -41 -59 -29
29 6 43 9 46 35 46 16 0 29 -3 29 -7z m635 -34 l49 -31 -64 -25 c-36 -14 -73
-25 -83 -24 -26 0 -107 32 -107 42 0 9 40 28 110 55 46 17 39 18 95 -17z m124
-49 c8 -24 7 -30 -5 -30 -9 0 -14 10 -14 30 0 17 2 30 4 30 2 0 9 -13 15 -30z
m-2659 2 c28 -23 40 -102 17 -120 -12 -10 -18 -7 -36 23 -11 19 -25 35 -30 35
-14 0 -23 36 -16 60 8 25 36 26 65 2z m2620 -31 c53 -29 54 -30 26 -37 -33 -8
-137 3 -150 16 -6 6 1 13 16 19 15 5 29 15 33 20 9 16 16 14 75 -18z m170 -12
l25 -21 -33 19 c-19 10 -39 24 -45 32 -10 12 -9 12 8 3 11 -6 31 -21 45 -33z
m-819 -10 c89 -29 97 -34 157 -100 95 -104 85 -101 396 -111 322 -9 365 -6
430 27 27 14 51 23 54 21 8 -9 -7 -52 -26 -76 -17 -21 -28 -22 -222 -30 -159
-7 -237 -6 -346 5 -187 20 -274 43 -424 115 -69 33 -133 60 -143 60 -15 0 -18
7 -15 42 2 34 8 45 28 55 33 17 36 16 111 -8z m979 -89 c0 -5 -2 -10 -4 -10
-3 0 -8 5 -11 10 -3 6 -1 10 4 10 6 0 11 -4 11 -10z m50 -19 c14 -28 13 -33
-8 -20 -10 7 -19 18 -19 25 0 20 15 17 27 -5z m-787 -218 c-7 -2 -19 -2 -25 0
-7 3 -2 5 12 5 14 0 19 -2 13 -5z m-339 -104 c-5 -8 -10 -6 -16 5 -5 9 -6 21
-2 27 5 8 10 6 16 -5 5 -9 6 -21 2 -27z m-6484 -135 c0 -14 3 -14 15 -4 22 18
31 4 12 -18 -10 -10 -17 -26 -17 -35 0 -21 -2 -21 -43 2 l-34 19 5 -25 c4 -19
1 -24 -9 -21 -16 5 -25 68 -10 68 5 0 16 3 25 6 11 4 16 1 16 -10 0 -9 5 -16
10 -16 6 0 10 11 10 25 0 14 5 25 10 25 6 0 10 -7 10 -16z m-950 -64 c0 -5
-15 -10 -32 -9 -31 1 -32 1 -8 9 35 11 40 11 40 0z m775 -40 c0 -30 -35 -40
-55 -15 -10 12 -10 18 0 30 20 25 55 15 55 -15z m-75 -9 c0 -16 3 -37 6 -46 5
-13 2 -16 -12 -13 -21 4 -29 28 -20 64 9 33 26 30 26 -5z m140 19 c8 -5 12
-12 9 -15 -8 -8 -39 5 -39 16 0 11 11 11 30 -1z m-183 -86 c-3 -3 -12 -4 -19
-1 -8 3 -5 6 6 6 11 1 17 -2 13 -5z m385 -204 c8 -49 -3 -65 -34 -49 -13 7
-18 22 -18 55 0 41 2 45 22 42 18 -2 24 -12 30 -48z m1283 30 c9 8 14 6 19 -5
3 -9 2 -13 -3 -10 -5 3 -16 -4 -24 -16 -8 -11 -18 -16 -21 -11 -3 6 -1 12 6
14 6 2 8 10 4 16 -4 7 -16 10 -27 7 -11 -4 -19 -2 -19 5 0 6 4 9 9 5 5 -3 13
0 17 6 5 8 10 6 16 -5 7 -13 13 -14 23 -6z m-500 -46 c171 -14 314 -30 319
-35 12 -11 -178 -12 -457 -2 l-197 6 0 29 c0 16 5 28 13 28 6 0 152 -11 322
-26z"/>
<path d="M865 6580 c3 -5 8 -10 11 -10 2 0 4 5 4 10 0 6 -5 10 -11 10 -5 0 -7
-4 -4 -10z"/>
<path d="M1367 5183 c6 -70 9 -83 23 -96 8 -8 11 -8 6 0 -3 6 -2 13 3 15 11 3
-18 118 -29 118 -3 0 -5 -17 -3 -37z"/>
<path d="M1523 5109 c7 -22 74 -126 87 -134 19 -12 10 24 -12 48 -28 29 -51
58 -68 83 -7 12 -10 13 -7 3z"/>
<path d="M1421 5054 c0 -11 3 -14 6 -6 3 7 2 16 -1 19 -3 4 -6 -2 -5 -13z"/>
<path d="M1626 4965 c-3 -8 -1 -15 4 -15 6 0 10 7 10 15 0 8 -2 15 -4 15 -2 0
-6 -7 -10 -15z"/>
<path d="M1640 4930 c0 -5 5 -10 11 -10 5 0 7 5 4 10 -3 6 -8 10 -11 10 -2 0
-4 -4 -4 -10z"/>
<path d="M3085 4340 c-21 -22 -36 -40 -31 -40 4 0 25 18 46 40 21 22 35 40 31
40 -4 0 -25 -18 -46 -40z"/>
<path d="M4300 3861 c0 -12 26 -32 33 -25 3 3 3 -3 0 -15 -8 -30 4 -26 22 9
20 39 20 40 -20 40 -19 0 -35 -4 -35 -9z"/>
<path d="M3627 3843 c-12 -12 -7 -22 8 -17 8 4 15 10 15 15 0 11 -14 12 -23 2z"/>
<path d="M3743 3816 c0 -15 21 -16 34 -1 4 4 2 5 -4 1 -7 -4 -13 -2 -13 3 0 6
-4 11 -8 11 -5 0 -9 -6 -9 -14z"/>
<path d="M7681 2714 c0 -11 3 -14 6 -6 3 7 2 16 -1 19 -3 4 -6 -2 -5 -13z"/>
<path d="M7696 2655 c8 -37 14 -45 14 -19 0 10 -5 26 -10 34 -8 11 -9 7 -4
-15z"/>
<path d="M7750 2421 c0 -6 4 -13 10 -16 6 -3 7 1 4 9 -7 18 -14 21 -14 7z"/>
<path d="M7890 2111 c0 -6 4 -13 10 -16 6 -3 7 1 4 9 -7 18 -14 21 -14 7z"/>
<path d="M8001 1864 c0 -11 3 -14 6 -6 3 7 2 16 -1 19 -3 4 -6 -2 -5 -13z"/>
<path d="M7993 1720 c0 -41 2 -58 4 -37 2 20 2 54 0 75 -2 20 -4 3 -4 -38z"/>
<path d="M8003 1570 c0 -30 2 -43 4 -27 2 15 2 39 0 55 -2 15 -4 2 -4 -28z"/>
<path d="M8226 1607 c3 -10 9 -15 12 -12 3 3 0 11 -7 18 -10 9 -11 8 -5 -6z"/>
<path d="M8270 1512 c11 -29 20 -62 20 -74 0 -12 3 -19 6 -16 3 4 27 -3 52
-15 86 -38 232 -19 232 30 0 14 -3 14 -15 -4 -18 -25 -85 -39 -139 -29 -28 5
-122 66 -102 66 6 0 -5 14 -51 69 l-22 26 19 -53z"/>
<path d="M8570 1512 c6 -13 14 -21 18 -18 3 4 -2 14 -12 24 -18 16 -18 16 -6
-6z"/>
<path d="M8610 1446 c0 -8 4 -17 9 -20 5 -4 7 3 4 14 -6 23 -13 26 -13 6z"/>
<path d="M8640 1390 c20 -38 53 -80 63 -80 5 0 -6 19 -24 43 -44 57 -54 66
-39 37z"/>
<path d="M8596 1341 c-16 -17 -16 -19 0 -25 10 -4 22 -1 28 5 8 9 7 10 -3 4
-11 -6 -13 -3 -9 13 7 27 6 27 -16 3z"/>
<path d="M8458 1323 c7 -3 16 -2 19 1 4 3 -2 6 -13 5 -11 0 -14 -3 -6 -6z"/>
<path d="M8870 1251 c25 -10 53 -21 63 -24 16 -6 14 -11 -16 -42 -19 -20 -49
-65 -66 -100 -18 -36 -36 -65 -40 -65 -4 0 -22 11 -41 25 -40 29 -53 31 -75 8
-16 -16 -14 -17 26 -30 68 -20 220 -11 296 18 44 16 20 19 -37 4 -54 -15 -130
-20 -130 -10 0 11 53 110 73 137 16 21 28 28 47 25 14 -2 19 -2 13 0 -7 3 -13
9 -13 14 0 11 -106 59 -129 58 -9 0 4 -8 29 -18z"/>
<path d="M9018 1183 c7 -3 16 -2 19 1 4 3 -2 6 -13 5 -11 0 -14 -3 -6 -6z"/>
<path d="M9058 1173 c7 -3 16 -2 19 1 4 3 -2 6 -13 5 -11 0 -14 -3 -6 -6z"/>
<path d="M9092 1165 c2 -3 24 -7 48 -9 29 -3 39 -1 29 5 -14 9 -86 13 -77 4z"/>
<path d="M9085 1095 c-22 -19 -35 -35 -29 -35 5 0 25 16 44 35 43 44 37 44
-15 0z"/>
<path d="M7362 1550 c0 -19 2 -27 5 -17 2 9 2 25 0 35 -3 9 -5 1 -5 -18z"/>
<path d="M7222 1960 c0 -19 2 -27 5 -17 2 9 2 25 0 35 -3 9 -5 1 -5 -18z"/>
<path d="M7252 1655 c0 -16 2 -22 5 -12 2 9 2 23 0 30 -3 6 -5 -1 -5 -18z"/>
<path d="M7262 1465 c0 -16 2 -22 5 -12 2 9 2 23 0 30 -3 6 -5 -1 -5 -18z"/>
<path d="M7270 1317 c0 -25 4 -48 9 -51 8 -5 3 84 -5 93 -2 2 -4 -16 -4 -42z"/>
<path d="M7461 1144 c0 -11 3 -14 6 -6 3 7 2 16 -1 19 -3 4 -6 -2 -5 -13z"/>
<path d="M5740 1950 c0 -5 5 -10 11 -10 5 0 7 5 4 10 -3 6 -8 10 -11 10 -2 0
-4 -4 -4 -10z"/>
<path d="M8660 910 c0 -5 -6 -10 -14 -10 -8 0 -16 -7 -20 -15 -7 -20 8 -19 28
1 15 15 21 34 11 34 -3 0 -5 -4 -5 -10z"/>
<path d="M8582 858 c5 -14 47 -18 55 -5 3 6 1 7 -5 3 -6 -3 -13 -2 -17 4 -9
14 -38 13 -33 -2z"/>
<path d="M2416 8353 c-6 -14 -5 -15 5 -6 7 7 10 15 7 18 -3 3 -9 -2 -12 -12z"/>
<path d="M2443 8337 c-24 -17 -41 -32 -39 -35 6 -5 86 49 86 59 0 11 2 13 -47
-24z"/>
<path d="M755 8294 c-27 -13 -39 -21 -25 -17 38 9 107 42 90 42 -8 0 -37 -11
-65 -25z"/>
<path d="M1545 8289 c-170 -25 -453 -102 -462 -126 -8 -20 2 -26 24 -15 87 47
212 80 478 128 22 4 108 10 190 14 l150 7 -160 0 c-88 0 -187 -3 -220 -8z"/>
<path d="M7540 8152 c0 -11 -9 -27 -20 -37 -10 -9 -19 -20 -18 -24 2 -20 -6
-34 -44 -73 l-43 -43 -3 -212 c-3 -169 -1 -213 9 -213 10 0 10 -3 1 -12 -8 -8
-12 -48 -12 -114 l0 -102 70 46 70 47 0 377 c0 208 -2 378 -5 378 -3 0 -5 -8
-5 -18z"/>
<path d="M9541 8094 c0 -11 3 -14 6 -6 3 7 2 16 -1 19 -3 4 -6 -2 -5 -13z"/>
<path d="M9541 8044 c0 -11 3 -14 6 -6 3 7 2 16 -1 19 -3 4 -6 -2 -5 -13z"/>
<path d="M9567 7963 l-29 -33 -3 -595 -2 -596 25 -19 c13 -11 29 -20 33 -20 5
0 9 42 9 93 l-1 92 -22 -37 c-12 -21 -24 -38 -27 -38 -3 0 -4 52 -3 116 2 106
4 119 27 155 l26 39 -2 438 -3 437 -28 -32z"/>
<path d="M1578 7663 c7 -3 16 -2 19 1 4 3 -2 6 -13 5 -11 0 -14 -3 -6 -6z"/>
<path d="M2378 7493 c7 -3 16 -2 19 1 4 3 -2 6 -13 5 -11 0 -14 -3 -6 -6z"/>
<path d="M2318 7483 c6 -2 18 -2 25 0 6 3 1 5 -13 5 -14 0 -19 -2 -12 -5z"/>
<path d="M2143 7473 c26 -2 68 -2 95 0 26 2 4 3 -48 3 -52 0 -74 -1 -47 -3z"/>
<path d="M2555 7435 c-33 -24 -76 -60 -96 -80 -49 -47 -147 -105 -178 -105
-14 0 -32 -4 -40 -9 -9 -6 24 -9 90 -9 57 -1 135 -6 173 -12 38 -6 70 -9 73
-7 7 8 -121 27 -175 27 -58 0 -66 12 -24 34 48 25 262 207 241 206 -2 -1 -31
-21 -64 -45z"/>
<path d="M7547 7245 c-32 -7 -74 -25 -95 -39 -20 -14 -48 -34 -62 -43 -14 -10
-36 -31 -49 -46 -19 -23 -26 -26 -39 -15 -13 11 -14 10 -4 -9 15 -28 8 -32
-67 -39 -34 -4 -61 -11 -61 -17 0 -5 14 -7 30 -5 38 6 38 2 0 -17 -20 -10 -27
-20 -23 -31 3 -8 -3 -28 -14 -43 -26 -34 -58 -98 -67 -131 -4 -14 5 -2 20 25
24 46 80 115 94 115 3 0 4 -31 2 -69 -2 -38 1 -77 6 -87 12 -22 10 -26 35 79
29 120 72 157 182 157 l66 0 -25 -25 c-14 -14 -33 -25 -42 -25 -10 0 -14 -5
-10 -15 4 -12 0 -14 -18 -9 -23 5 -45 -11 -31 -24 3 -3 10 -1 14 7 7 10 10 9
14 -3 8 -20 -2 -48 -14 -40 -5 3 -7 10 -4 15 4 5 1 9 -5 9 -8 0 -10 -9 -6 -26
5 -18 1 -33 -11 -47 -10 -11 -12 -17 -5 -13 7 4 12 1 12 -8 0 -11 -10 -16 -34
-16 -29 0 -33 -3 -29 -20 6 -21 23 -28 23 -9 0 5 4 7 10 4 10 -6 -6 -43 -24
-56 -5 -4 -6 -11 -2 -17 3 -6 2 -13 -4 -17 -5 -3 -10 -17 -10 -30 0 -18 7 -26
26 -31 15 -4 23 -12 20 -20 -3 -8 0 -11 10 -7 7 3 14 0 14 -5 0 -15 -34 -24
-64 -16 -14 3 -26 2 -26 -2 0 -12 110 -64 133 -64 15 0 17 -7 13 -50 -6 -53 1
-63 21 -31 8 13 19 18 33 14 21 -6 24 -16 12 -45 -7 -16 -94 -88 -107 -88 -4
0 3 15 14 34 20 32 20 35 4 72 l-17 39 -5 -30 c-6 -30 -6 -29 -20 15 -26 86
-32 99 -51 97 -15 -1 -16 -5 -7 -30 13 -40 3 -127 -22 -173 l-20 -39 -1 55
c-1 30 -6 68 -13 83 l-12 29 -28 -26 c-20 -18 -27 -35 -28 -63 l-1 -38 -10 31
-10 32 -35 -20 c-18 -11 -36 -19 -38 -17 -2 3 16 28 41 58 24 29 46 63 48 75
2 11 9 48 14 81 6 33 13 68 17 78 11 28 -11 20 -24 -9 -6 -15 -27 -46 -47 -69
-19 -24 -44 -60 -55 -81 l-20 -39 5 58 c2 31 3 57 1 57 -18 0 -65 -183 -50
-198 3 -3 5 0 5 6 0 7 5 12 10 12 6 0 10 -6 10 -14 0 -7 6 -19 14 -25 8 -7 17
-30 21 -52 7 -41 13 -47 33 -27 9 9 12 4 13 -22 1 -19 1 -38 0 -42 -3 -20 11
-5 20 22 13 36 24 32 33 -11 3 -17 17 -44 31 -61 l25 -30 0 26 c0 40 15 31 46
-29 16 -30 32 -55 35 -55 4 0 10 10 14 23 6 20 8 19 15 -13 4 -19 10 -62 14
-95 l6 -60 -19 24 c-13 17 -24 22 -37 17 -15 -6 -12 -9 17 -24 42 -21 47 -44
16 -75 l-23 -24 90 -44 c50 -24 127 -68 171 -97 55 -38 72 -46 55 -27 -23 25
-23 27 -3 14 20 -12 25 -11 50 13 32 30 95 59 74 34 -10 -12 -9 -14 7 -9 11 3
41 -9 73 -30 57 -36 139 -80 139 -74 0 2 -41 28 -92 58 -154 91 -220 174 -234
292 -6 54 -8 57 -34 57 -33 0 -49 17 -89 97 -31 63 -40 124 -21 153 8 12 10
10 11 -10 4 -78 7 -98 23 -132 25 -53 36 -59 90 -52 38 6 45 10 41 24 -3 9 1
23 9 29 21 18 30 93 17 134 -6 18 -23 49 -37 68 -19 27 -31 33 -52 31 -21 -3
-24 -1 -15 8 15 16 66 4 88 -20 9 -10 27 -47 40 -82 13 -35 27 -61 31 -59 5 2
15 34 22 70 7 36 27 95 45 131 l31 65 6 -50 5 -50 37 60 c21 33 49 74 63 90
l25 30 -6 -42 c-4 -24 -4 -43 0 -43 3 0 23 18 43 41 41 45 52 40 29 -15 -12
-29 -21 -36 -43 -37 -15 0 -37 -4 -47 -8 -18 -7 -18 -8 5 -14 13 -4 34 -7 47
-7 21 0 22 -3 16 -50 -4 -27 -4 -50 -1 -50 2 0 23 18 45 40 44 44 59 47 140
26 46 -13 69 -8 42 9 -5 3 -10 9 -10 13 0 11 101 75 107 68 4 -3 0 -6 -8 -6
-10 -1 -9 -3 4 -11 9 -5 17 -17 17 -24 0 -29 20 -14 21 15 1 17 3 35 4 40 1 6
3 21 4 35 1 23 5 25 49 25 73 0 182 12 177 19 -22 37 115 54 309 40 179 -14
216 -11 249 18 28 25 71 42 133 52 l49 9 -48 1 c-27 0 -58 -4 -69 -10 -16 -9
-19 -8 -16 2 3 8 15 16 27 19 13 3 29 16 36 30 8 14 14 21 15 16 0 -14 40 25
40 40 0 7 -4 16 -10 19 -6 3 -7 -1 -4 -9 9 -25 -22 -30 -55 -10 -17 10 -31 21
-31 25 0 7 -87 59 -98 59 -3 0 14 -14 38 -31 50 -36 89 -79 90 -97 0 -22 -32
-26 -64 -7 -54 32 -164 85 -176 85 -7 0 16 -20 50 -45 34 -25 60 -51 58 -57
-6 -17 -93 -13 -119 6 -13 9 -33 16 -44 16 -12 0 -30 7 -41 15 -27 20 -36 19
-22 -4 9 -15 9 -23 -1 -35 -16 -20 -86 -39 -118 -33 -24 4 -33 -8 -10 -16 6
-2 -28 -7 -77 -11 -64 -5 -91 -4 -96 4 -7 11 -97 6 -109 -5 -2 -2 -12 0 -22 6
-24 13 -24 4 2 -37 11 -19 29 -34 39 -34 10 0 22 -4 25 -10 4 -6 -15 -10 -52
-9 -43 1 -50 3 -28 8 l29 6 -52 38 c-29 21 -52 43 -52 48 0 20 -16 7 -29 -23
-10 -25 -15 -29 -18 -15 -6 22 -8 22 -47 -8 -35 -26 -116 -59 -125 -50 -3 3
17 26 43 52 41 39 76 94 76 120 0 4 -16 -10 -35 -31 -19 -21 -39 -35 -45 -31
-5 3 -10 2 -10 -2 0 -5 -18 -7 -39 -5 -32 3 -48 -2 -78 -24 -25 -19 -33 -22
-22 -9 31 39 34 48 10 35 -12 -6 -27 -9 -34 -6 -7 2 -4 5 6 5 9 1 17 5 17 9 0
5 24 25 53 45 29 20 68 53 87 73 l35 37 -41 -23 -42 -22 -65 32 c-66 32 -90
53 -122 102 l-17 28 44 -25 c98 -55 211 -70 289 -38 l42 16 -39 20 c-22 10
-54 33 -71 50 -39 37 -43 24 -8 -27 22 -32 23 -37 9 -43 -46 -17 -208 31 -281
83 -15 11 -23 12 -23 5 0 -17 38 -91 67 -129 13 -17 21 -37 18 -42 -3 -6 1 -7
9 -4 12 5 16 0 16 -19 0 -30 -14 -36 -94 -42 -50 -3 -54 -2 -21 4 38 8 39 8 8
10 -38 1 -53 19 -30 36 10 7 17 20 17 29 0 9 4 16 9 16 14 0 21 -28 9 -32 -8
-3 -8 -10 1 -24 10 -14 11 -15 7 -2 -3 10 -1 20 4 23 15 9 -8 46 -27 43 -9 -2
-18 3 -21 10 -2 7 2 13 9 11 50 -6 61 10 32 46 -15 20 -15 20 -10 -3 3 -12 1
-20 -4 -16 -5 3 -9 14 -9 25 0 11 -4 17 -10 14 -5 -3 -10 -1 -10 5 0 14 -26
41 -37 39 -17 -3 -33 1 -32 9 4 24 -3 33 -21 27 -12 -4 -27 -1 -35 5 -8 7 -15
9 -15 4 0 -4 -9 2 -20 14 -14 14 -33 22 -55 22 -24 0 -35 5 -35 15 0 8 -5 15
-10 15 -6 0 -10 -6 -9 -12 3 -25 -1 -38 -12 -38 -5 0 -7 5 -3 11 3 6 -8 3 -25
-6 -19 -9 -29 -20 -25 -27 5 -8 1 -9 -12 -4 -53 22 -94 28 -125 17 -47 -16
-46 -7 2 29 41 29 127 61 176 64 12 0 23 5 23 10 0 5 -23 6 -51 4 -57 -6 -55
-1 19 37 75 39 71 42 -31 20z m128 -415 c3 -5 1 -10 -4 -10 -6 0 -11 5 -11 10
0 6 2 10 4 10 3 0 8 -4 11 -10z m299 -96 c-35 -30 -43 -33 -84 -27 -53 7 -83
20 -75 33 3 6 0 7 -8 4 -8 -3 -19 1 -24 8 -9 11 12 13 110 14 l120 2 -39 -34z
m1212 17 c18 -14 21 -22 12 -27 -7 -4 -14 -2 -16 5 -3 10 -6 10 -12 1 -5 -8
-9 -3 -12 14 -6 31 -3 32 28 7z m-1416 -23 c0 -5 -7 -3 -15 6 -8 8 -15 18 -15
22 0 3 7 1 15 -6 8 -7 15 -17 15 -22z m1185 22 c3 -5 11 -10 16 -10 6 0 7 5 4
10 -9 15 7 11 30 -7 20 -15 20 -15 -2 -10 -13 3 -23 0 -23 -5 0 -6 -7 -5 -16
3 -13 10 -17 10 -24 -1 -5 -8 -13 -11 -17 -6 -4 5 -2 11 5 13 6 3 10 9 6 14
-3 5 -1 9 5 9 5 0 13 -4 16 -10z m-1595 -40 c0 -5 -5 -10 -11 -10 -5 0 -7 5
-4 10 3 6 8 10 11 10 2 0 4 -4 4 -10z m436 -45 c-8 -15 -20 -48 -28 -71 -15
-52 -23 -55 -32 -13 -11 54 -8 66 10 43 15 -19 15 -18 9 3 -3 12 -1 24 5 28 5
3 10 0 10 -7 0 -7 7 0 16 17 10 19 11 31 5 33 -6 2 -11 9 -11 15 0 7 6 5 15
-4 14 -14 14 -19 1 -44z m1360 0 c-11 -8 -30 -15 -42 -15 -12 0 -37 -3 -55 -6
-26 -4 -30 -3 -19 5 8 6 31 11 50 11 19 0 42 5 50 10 24 15 37 11 16 -5z
m-1760 -53 c-18 -16 -18 -16 -6 6 6 13 14 21 18 18 3 -4 -2 -14 -12 -24z m284
-8 c-19 -21 -100 -68 -107 -60 -3 3 9 12 28 20 19 8 45 24 58 35 28 25 39 27
21 5z m-170 -9 c-7 -9 -15 -13 -19 -10 -3 3 1 10 9 15 21 14 24 12 10 -5z
m875 5 c3 -5 1 -10 -4 -10 -6 0 -11 5 -11 10 0 6 2 10 4 10 3 0 8 -4 11 -10z
m-925 -21 c0 -5 -17 -9 -37 -9 -34 1 -36 2 -20 14 18 14 57 11 57 -5z m909
-18 c-6 -2 -18 4 -27 13 -15 15 -15 15 10 4 15 -7 23 -15 17 -17z m-815 -20
c3 -5 -3 -11 -15 -14 -16 -4 -18 -3 -8 9 13 16 16 17 23 5z m-21 -196 c-9 -19
-18 -33 -21 -31 -4 5 26 66 33 66 3 0 -3 -16 -12 -35z m-45 -250 c0 -29 0 -29
-8 -5 -4 14 -8 41 -8 60 l0 35 8 -30 c4 -16 8 -43 8 -60z"/>
<path d="M7834 6738 c-7 -11 28 -10 46 2 11 7 8 9 -13 8 -16 -2 -31 -6 -33
-10z"/>
<path d="M2635 7194 c28 -7 55 -13 60 -13 17 2 -69 27 -90 27 -11 0 3 -6 30
-14z"/>
<path d="M2718 7173 c7 -3 16 -2 19 1 4 3 -2 6 -13 5 -11 0 -14 -3 -6 -6z"/>
<path d="M2795 7140 c3 -5 16 -10 28 -10 18 0 19 2 7 10 -20 13 -43 13 -35 0z"/>
<path d="M2588 7133 c29 -2 74 -2 100 0 26 2 2 3 -53 3 -55 0 -76 -1 -47 -3z"/>
<path d="M2748 7133 c7 -3 16 -2 19 1 4 3 -2 6 -13 5 -11 0 -14 -3 -6 -6z"/>
<path d="M8189 7060 c13 -11 28 -20 33 -20 6 0 -1 9 -15 20 -33 26 -49 26 -18
0z"/>
<path d="M7084 7044 c-18 -14 -18 -15 4 -4 12 6 22 13 22 15 0 8 -5 6 -26 -11z"/>
<path d="M7425 7010 c3 -5 12 -7 20 -3 21 7 19 13 -6 13 -11 0 -18 -4 -14 -10z"/>
<path d="M7345 6880 c-3 -5 -1 -10 4 -10 6 0 11 5 11 10 0 6 -2 10 -4 10 -3 0
-8 -4 -11 -10z"/>
<path d="M3840 6820 c-6 -11 -8 -20 -6 -20 3 0 10 9 16 20 6 11 8 20 6 20 -3
0 -10 -9 -16 -20z"/>
<path d="M3800 6744 c-6 -14 -9 -37 -9 -52 1 -24 2 -22 9 8 4 19 11 43 15 53
4 9 4 17 1 17 -4 0 -11 -12 -16 -26z"/>
<path d="M7269 6753 c-13 -16 -12 -17 4 -4 9 7 17 15 17 17 0 8 -8 3 -21 -13z"/>
<path d="M7300 6750 c0 -5 5 -10 10 -10 6 0 10 5 10 10 0 6 -4 10 -10 10 -5 0
-10 -4 -10 -10z"/>
<path d="M7207 6613 c-4 -3 -7 -11 -7 -17 0 -6 5 -5 12 2 6 6 9 14 7 17 -3 3
-9 2 -12 -2z"/>
<path d="M3792 6578 c-3 -49 5 -67 28 -61 24 6 145 -21 203 -46 50 -22 77 -60
77 -111 0 -23 -6 -33 -23 -39 -13 -5 -29 -17 -37 -27 -12 -13 -5 -12 28 7 23
13 45 32 48 42 10 30 -5 82 -29 105 -31 29 -161 79 -229 87 -57 7 -57 7 -61
44 l-4 36 -1 -37z"/>
<path d="M6991 6554 c0 -11 3 -14 6 -6 3 7 2 16 -1 19 -3 4 -6 -2 -5 -13z"/>
<path d="M9430 6490 c8 -5 20 -10 25 -10 6 0 3 5 -5 10 -8 5 -19 10 -25 10 -5
0 -3 -5 5 -10z"/>
<path d="M9373 6483 c9 -2 23 -2 30 0 6 3 -1 5 -18 5 -16 0 -22 -2 -12 -5z"/>
<path d="M9328 6473 c7 -3 16 -2 19 1 4 3 -2 6 -13 5 -11 0 -14 -3 -6 -6z"/>
<path d="M9497 6456 c27 -23 45 -86 25 -86 -4 0 -8 -9 -9 -20 -1 -11 3 -20 9
-20 6 0 7 -8 3 -17 -9 -24 -10 -91 -2 -100 11 -10 8 -43 -4 -43 -5 0 -8 -3 -5
-8 7 -12 10 -337 3 -349 -6 -10 46 -33 76 -33 4 0 7 142 7 315 l0 314 -32 17
c-18 9 -44 25 -57 35 -35 28 -47 23 -14 -5z"/>
<path d="M8335 6363 c-10 -27 -26 -59 -35 -73 -31 -47 -32 -55 -1 -20 27 30
67 127 57 137 -2 2 -11 -18 -21 -44z"/>
<path d="M3800 6396 c0 -2 7 -7 16 -10 8 -3 12 -2 9 4 -6 10 -25 14 -25 6z"/>
<path d="M3880 6357 c12 -12 80 -35 80 -27 0 5 -10 12 -22 15 -52 15 -63 17
-58 12z"/>
<path d="M8065 6310 c-24 -6 -18 -8 31 -9 33 0 65 -6 72 -13 9 -9 12 -8 12 4
0 27 -48 35 -115 18z"/>
<path d="M3331 6285 c-156 -34 -214 -71 -293 -188 -57 -83 -118 -210 -108
-222 4 -5 11 -29 15 -52 9 -54 21 -62 29 -20 5 26 9 29 17 17 8 -11 9 -8 5 15
-4 22 4 48 28 95 l34 65 11 -28 c6 -16 11 -31 11 -34 0 -4 18 -30 40 -59 61
-81 166 -145 158 -96 -2 13 5 18 34 20 20 2 38 9 41 16 3 9 -4 11 -24 8 -17
-3 -29 0 -29 7 0 6 5 11 11 11 27 0 69 42 75 76 3 19 10 37 15 40 12 7 11 -32
0 -74 -5 -17 -8 -32 -6 -32 9 0 29 47 34 80 6 33 9 35 48 38 39 3 42 1 52 -31
10 -29 8 -43 -9 -90 -30 -80 -104 -125 -175 -106 -16 5 -33 5 -38 0 -14 -14
49 -24 99 -16 54 8 109 53 135 110 26 56 25 147 -2 202 -26 54 -99 130 -142
148 -29 12 -30 14 -12 22 31 13 207 9 232 -5 16 -9 26 -32 40 -89 l17 -78 7
55 c4 30 7 87 8 126 l1 71 -46 7 c-77 10 -245 5 -313 -9z m-18 -301 c30 -28
34 -67 6 -72 -27 -5 -69 36 -69 69 0 37 25 39 63 3z"/>
<path d="M7972 6261 c-29 -10 -57 -22 -62 -27 -4 -5 8 -36 27 -69 30 -53 33
-56 27 -25 -13 64 -11 72 26 86 19 7 54 13 77 13 l41 1 -36 -71 c-37 -71 -37
-96 -2 -107 7 -3 10 0 7 5 -4 6 5 21 18 33 15 14 21 26 15 30 -7 4 -3 16 10
32 21 27 27 54 10 43 -5 -3 -10 -2 -10 4 0 17 24 19 43 3 15 -14 17 -13 17 1
0 9 -4 27 -10 41 -9 24 -14 26 -77 26 -39 -1 -91 -8 -121 -19z"/>
<path d="M3977 6243 c-11 -10 -8 -83 3 -83 6 0 10 20 10 45 0 46 -2 50 -13 38z"/>
<path d="M2987 6133 c-53 -66 -113 -170 -104 -180 3 -2 19 23 37 55 18 33 54
88 82 122 27 34 47 64 45 67 -3 2 -30 -26 -60 -64z"/>
<path d="M4007 6180 c-3 -11 -1 -20 4 -20 5 0 9 9 9 20 0 11 -2 20 -4 20 -2 0
-6 -9 -9 -20z"/>
<path d="M63 6153 c15 -2 37 -2 50 0 12 2 0 4 -28 4 -27 0 -38 -2 -22 -4z"/>
<path d="M5550 5975 c27 -14 36 -13 25 4 -3 6 -16 11 -28 11 -21 -1 -21 -1 3
-15z"/>
<path d="M7970 5880 c-8 -15 -7 -27 5 -51 9 -17 19 -28 23 -25 3 4 0 12 -6 18
-15 15 -15 51 0 66 9 9 9 12 0 12 -6 0 -16 -9 -22 -20z"/>
<path d="M8550 5849 c-41 -22 -87 -52 -102 -67 -16 -14 -28 -22 -28 -18 0 5
-16 -4 -35 -18 -20 -15 -34 -24 -33 -19 6 22 -15 104 -25 100 -15 -4 -41 -59
-75 -152 -20 -56 -26 -95 -30 -194 -3 -74 -8 -118 -13 -110 -5 8 -9 32 -9 53
0 22 -3 36 -7 33 -3 -4 -17 3 -31 15 l-24 23 6 -60 c3 -33 8 -98 12 -145 3
-46 14 -106 24 -132 20 -53 6 -55 -16 -2 l-14 34 -75 0 c-87 0 -99 -15 -22
-27 48 -7 53 -11 72 -50 17 -35 25 -42 55 -45 30 -3 32 -5 15 -13 -11 -4 -50
-28 -86 -51 -65 -42 -122 -101 -226 -234 -54 -69 -103 -119 -103 -105 0 4 8
14 18 22 13 11 14 13 2 12 -8 -1 -28 3 -43 9 -16 7 -40 12 -53 12 -14 0 -34 5
-46 11 -41 22 -27 0 26 -39 38 -29 60 -40 73 -35 16 6 16 5 3 -8 -23 -24 -56
-39 -83 -39 -34 0 -224 183 -281 270 -62 94 -105 185 -99 209 6 25 39 27 133
6 92 -20 91 -20 76 16 -9 22 -28 37 -67 55 -74 34 -228 136 -229 152 0 6 6 12
13 12 8 0 7 3 -2 9 -12 8 -5 20 34 63 27 29 59 59 70 67 11 8 5 -2 -14 -22
-19 -20 -32 -40 -28 -43 10 -11 -13 -34 -27 -28 -8 3 -16 -2 -19 -10 -5 -13 0
-13 39 -1 45 13 79 34 70 43 -3 2 1 17 9 32 8 15 13 37 10 47 -2 14 13 37 50
73 l53 53 49 -16 c86 -28 89 -29 53 -8 -20 10 -52 22 -71 26 -33 6 -41 2 -95
-43 -135 -112 -278 -282 -368 -435 -32 -57 -28 -72 9 -31 25 28 26 28 19 5 -3
-13 -7 -29 -8 -36 -1 -7 -9 -20 -19 -29 -21 -21 -21 -26 -2 -62 21 -40 19 -81
-5 -111 -19 -24 -20 -24 -20 -5 0 11 4 22 9 24 5 2 3 9 -4 15 -12 11 -13 5
-11 -30 1 -23 -4 -55 -12 -70 -23 -46 -7 -41 25 8 l30 46 24 -20 c13 -11 19
-20 14 -21 -6 0 -16 5 -23 12 -6 6 -15 9 -18 5 -4 -3 6 -12 21 -19 23 -10 68
-76 70 -101 0 -4 5 -11 11 -15 14 -9 29 -51 26 -73 -2 -8 11 -28 27 -44 16
-17 26 -36 23 -44 -3 -9 -1 -12 6 -7 7 4 12 1 12 -6 0 -29 21 -38 48 -20 20
13 26 14 30 4 6 -20 31 18 32 47 0 18 -26 50 -97 120 -66 64 -99 104 -101 121
-5 53 -7 59 -16 57 -5 -1 -11 7 -13 18 -1 11 0 14 3 7 3 -6 9 -10 13 -8 4 3
29 -30 55 -73 26 -44 59 -89 73 -102 l25 -24 -16 30 c-23 41 -59 128 -60 141
-1 7 -14 27 -31 46 -16 18 -49 58 -73 89 l-42 56 13 70 c13 69 55 143 81 143
18 0 34 -37 40 -95 3 -27 10 -79 16 -115 5 -36 10 -85 10 -110 0 -28 9 -60 24
-86 13 -22 35 -72 50 -110 25 -66 46 -107 46 -92 0 19 -73 321 -91 376 -25 75
-20 105 6 36 10 -27 26 -60 35 -74 40 -57 62 -113 56 -141 -3 -16 -1 -31 4
-34 6 -3 10 1 10 9 0 39 30 20 134 -83 l113 -111 -101 0 -101 0 -27 58 c-23
48 -26 51 -21 22 3 -19 7 -57 7 -85 2 -43 4 -50 21 -47 16 3 17 2 6 -12 -12
-14 -12 -16 2 -10 8 3 18 12 21 20 4 11 30 14 123 14 101 0 122 -3 143 -20 14
-10 23 -21 20 -23 -3 -2 -41 0 -85 5 -134 15 -245 -2 -245 -37 0 -18 19 -19
111 -3 54 8 88 8 152 -2 45 -7 96 -13 112 -14 17 0 44 -9 60 -19 l30 -18 -29
25 -29 24 34 15 c54 23 128 90 169 154 21 32 81 109 134 172 84 99 95 116 80
124 -19 11 -17 13 -155 -149 -42 -49 -99 -118 -125 -154 -76 -100 -158 -148
-195 -114 -26 23 -24 28 17 43 52 19 94 60 188 185 47 62 102 127 123 145 21
18 55 48 76 67 20 19 37 29 37 22 0 -7 15 -21 33 -31 17 -10 47 -31 65 -48
l33 -29 -20 -44 c-10 -25 -17 -47 -14 -49 13 -14 -87 -171 -161 -254 l-46 -51
49 -41 49 -41 92 0 c85 0 94 2 133 29 46 33 172 154 317 306 89 93 86 94 -14
3 -23 -20 -49 -44 -58 -52 -10 -9 -22 -16 -28 -16 -5 0 -9 -4 -7 -8 3 -11 -57
-62 -73 -62 -6 0 -9 -4 -6 -8 2 -4 -9 -17 -25 -27 -16 -11 -32 -28 -35 -37 -3
-9 -14 -20 -25 -23 -10 -4 -17 -10 -14 -15 3 -5 -4 -11 -15 -15 -11 -3 -20
-11 -20 -16 0 -6 -4 -8 -8 -5 -5 3 -24 -3 -43 -12 -19 -9 -41 -17 -49 -16 -8
1 -23 2 -34 3 -15 1 -17 7 -13 44 2 23 16 80 31 127 14 47 31 114 37 150 5 35
17 72 26 82 8 9 70 49 137 89 172 102 239 147 335 223 46 37 92 71 101 76 10
5 21 21 24 35 3 13 19 31 34 39 15 8 52 37 82 65 33 30 71 55 95 62 22 6 53
18 68 26 16 8 67 18 113 23 46 5 100 14 119 21 42 15 52 8 39 -29 -9 -27 -15
-30 -130 -61 -23 -6 -53 -22 -69 -37 -15 -14 -29 -24 -31 -22 -5 6 10 24 31
36 11 6 15 12 9 12 -16 0 -77 -43 -78 -55 -1 -13 91 -23 131 -14 18 4 60 1 95
-6 94 -19 168 -27 168 -18 0 11 -170 37 -247 38 -34 0 -65 3 -68 7 -9 9 69 48
96 48 31 0 95 39 110 67 11 20 10 26 -4 40 -15 16 -21 16 -89 0 -92 -22 -162
-23 -155 -3 3 8 8 32 12 53 l5 38 -15 -40 c-22 -58 -39 -68 -84 -49 -39 16
-101 71 -101 90 0 7 27 14 70 18 66 7 69 8 57 27 -14 22 -33 24 -67 4 -36 -21
-61 -18 -67 6 -4 13 -8 17 -13 9 -5 -8 -18 -4 -44 14 -21 14 -65 31 -99 37
l-60 12 49 24 c41 21 54 23 83 14 19 -6 37 -9 39 -7 2 2 -6 7 -17 11 -12 3
-21 11 -21 16 0 6 -5 7 -11 3 -13 -8 -89 16 -89 28 0 4 16 1 36 -7 42 -17 44
-18 44 -7 0 5 -18 14 -40 21 -22 6 -40 16 -40 21 0 28 -172 0 -251 -41 l-41
-20 27 46 c15 25 26 48 23 50 -2 2 -37 -14 -78 -36z m441 -237 l17 -37 -5 40
-4 40 33 -60 c23 -43 47 -69 80 -90 26 -16 47 -33 47 -36 1 -4 -14 -10 -32
-13 -18 -3 -47 -20 -64 -36 l-31 -30 -43 20 -44 20 47 -4 c56 -4 54 6 -9 38
-43 22 -48 28 -74 99 -29 84 -29 83 36 86 26 1 32 -5 46 -37z m-107 -43 c14
-33 26 -64 26 -68 0 -5 -30 0 -67 11 -38 10 -86 23 -107 29 l-40 11 45 27 c38
24 90 48 110 50 4 1 18 -26 33 -60z m-1539 -129 c-3 -5 -11 -10 -16 -10 -6 0
-7 5 -4 10 3 6 11 10 16 10 6 0 7 -4 4 -10z m-99 -171 c19 -22 19 -22 -2 -11
-12 6 -24 8 -28 5 -3 -3 -6 -2 -6 4 0 8 10 23 15 23 1 0 10 -10 21 -21z m-19
-41 c-3 -8 -6 -5 -6 6 -1 11 2 17 5 13 3 -3 4 -12 1 -19z m-142 -356 c6 -22 5
-23 -14 -13 -23 13 -23 13 -15 36 8 19 19 10 29 -23z m46 -44 c27 -33 23 -45
-6 -18 -24 22 -32 40 -19 40 3 0 14 -10 25 -22z m-1 -58 c6 -11 8 -20 6 -20
-3 0 -10 9 -16 20 -6 11 -8 20 -6 20 3 0 10 -9 16 -20z m80 -170 c12 -23 12
-24 -3 -11 -10 7 -17 20 -17 29 0 18 3 16 20 -18z"/>
<path d="M8898 5883 c7 -3 16 -2 19 1 4 3 -2 6 -13 5 -11 0 -14 -3 -6 -6z"/>
<path d="M8082 5854 c10 -10 20 -15 24 -12 3 4 -5 12 -18 18 -22 12 -22 12 -6
-6z"/>
<path d="M8640 5860 c0 -5 4 -10 9 -10 6 0 13 5 16 10 3 6 -1 10 -9 10 -9 0
-16 -4 -16 -10z"/>
<path d="M8495 5850 c-3 -5 -2 -10 4 -10 5 0 13 5 16 10 3 6 2 10 -4 10 -5 0
-13 -4 -16 -10z"/>
<path d="M4095 5840 c11 -5 27 -9 35 -9 9 0 8 4 -5 9 -11 5 -27 9 -35 9 -9 0
-8 -4 5 -9z"/>
<path d="M8935 5835 c17 -8 37 -14 45 -14 8 0 2 7 -15 14 -16 8 -37 14 -45 14
-8 0 -1 -7 15 -14z"/>
<path d="M4672 5795 c-34 -25 -62 -48 -62 -51 0 -7 16 3 78 49 46 35 59 47 49
47 -2 0 -31 -20 -65 -45z"/>
<path d="M4158 5823 c7 -3 16 -2 19 1 4 3 -2 6 -13 5 -11 0 -14 -3 -6 -6z"/>
<path d="M8230 5820 c-9 -6 -10 -10 -3 -10 6 0 15 5 18 10 8 12 4 12 -15 0z"/>
<path d="M8405 5784 l-50 -46 53 43 c47 38 58 49 49 49 -1 0 -25 -21 -52 -46z"/>
<path d="M9435 5780 c-7 -44 9 -78 42 -86 30 -8 43 2 43 32 0 36 -16 60 -49
77 l-30 15 -6 -38z m65 -9 c0 -5 -7 -14 -15 -21 -9 -7 -13 -20 -10 -29 5 -14
3 -13 -11 1 -17 17 -17 18 1 38 19 21 35 26 35 11z"/>
<path d="M8144 5794 c-18 -14 -18 -15 4 -4 12 6 22 13 22 15 0 8 -5 6 -26 -11z"/>
<path d="M4240 5797 c0 -2 15 -14 33 -27 20 -15 27 -17 18 -6 -13 16 -51 41
-51 33z"/>
<path d="M7058 5759 c-21 -17 -38 -36 -38 -43 0 -6 -45 -43 -100 -81 -55 -39
-95 -72 -88 -74 6 -2 16 3 22 11 6 7 44 37 85 66 86 60 111 64 186 27 28 -14
56 -25 63 -25 7 0 10 -4 7 -10 -8 -13 -2 -13 83 10 86 23 189 28 221 11 12 -7
25 -10 27 -8 3 3 -15 13 -40 22 -37 14 -58 16 -104 10 -92 -14 -200 -7 -277
17 -38 12 -72 24 -75 26 -2 2 13 19 35 37 50 43 44 45 -7 4z"/>
<path d="M9169 5763 c-13 -16 -12 -17 4 -4 9 7 17 15 17 17 0 8 -8 3 -21 -13z"/>
<path d="M480 5730 c-6 -11 -8 -20 -6 -20 3 0 10 9 16 20 6 11 8 20 6 20 -3 0
-10 -9 -16 -20z"/>
<path d="M7694 5698 l-29 -33 33 29 c30 28 37 36 29 36 -2 0 -16 -15 -33 -32z"/>
<path d="M8075 5681 c-20 -27 -40 -52 -46 -55 -5 -2 -4 -3 3 -2 12 2 94 106
83 106 -3 0 -21 -22 -40 -49z"/>
<path d="M4475 5650 c-3 -5 -2 -10 4 -10 5 0 13 5 16 10 3 6 2 10 -4 10 -5 0
-13 -4 -16 -10z"/>
<path d="M9220 5649 c0 -5 5 -7 10 -4 6 3 10 8 10 11 0 2 -4 4 -10 4 -5 0 -10
-5 -10 -11z"/>
<path d="M7138 5615 c-3 -3 -32 -10 -64 -15 l-59 -9 68 4 c37 2 75 9 85 14 15
9 15 10 -4 11 -11 0 -23 -2 -26 -5z"/>
<path d="M6948 5583 c7 -3 16 -2 19 1 4 3 -2 6 -13 5 -11 0 -14 -3 -6 -6z"/>
<path d="M6908 5573 c7 -3 16 -2 19 1 4 3 -2 6 -13 5 -11 0 -14 -3 -6 -6z"/>
<path d="M2232 5545 c-52 -15 -137 -54 -117 -55 6 0 38 9 70 21 33 12 92 27
130 34 l70 13 -50 0 c-27 0 -74 -6 -103 -13z"/>
<path d="M6744 5508 l-19 -23 23 19 c21 18 27 26 19 26 -2 0 -12 -10 -23 -22z"/>
<path d="M2370 5494 c-94 -21 -218 -61 -270 -87 -37 -19 -52 -35 -82 -93 -49
-92 -78 -189 -78 -263 0 -54 3 -63 23 -71 29 -13 249 -61 254 -56 2 2 -35 23
-83 46 l-86 43 5 57 c10 89 54 216 85 245 l27 25 7 -41 c13 -76 70 -140 181
-204 39 -22 52 -26 70 -17 22 10 22 10 -5 17 -21 5 -28 13 -28 31 0 21 5 24
43 25 42 1 42 1 9 9 -46 11 -51 20 -11 21 50 1 69 11 90 50 l18 34 1 -38 c0
-25 4 -36 11 -31 7 4 9 21 5 44 -5 35 -4 37 18 33 27 -5 46 -40 46 -83 0 -72
-41 -111 -123 -114 -72 -2 -57 -21 16 -21 55 0 61 3 93 37 44 49 48 97 13 178
-24 54 -59 93 -117 130 l-43 28 30 7 c17 3 41 3 53 0 47 -15 2 15 -52 34 -53
18 -54 19 -30 29 l25 11 -25 -1 c-14 0 -54 -6 -90 -14z m86 -198 c37 -37 42
-51 20 -59 -16 -7 -74 27 -82 48 -8 19 2 45 17 45 6 0 26 -15 45 -34z"/>
<path d="M6684 5438 l-19 -23 23 19 c21 18 27 26 19 26 -2 0 -12 -10 -23 -22z"/>
<path d="M6643 5388 c-11 -13 -24 -30 -28 -38 -8 -16 -6 -14 34 33 14 15 22
27 19 27 -2 0 -14 -10 -25 -22z"/>
<path d="M7260 5389 c0 -5 5 -7 10 -4 6 3 10 8 10 11 0 2 -4 4 -10 4 -5 0 -10
-5 -10 -11z"/>
<path d="M3600 5315 c-23 -12 -178 -175 -167 -175 3 0 42 36 88 80 97 92 122
100 145 45 18 -43 6 -106 -33 -173 -15 -25 -22 -42 -15 -38 23 14 73 127 74
167 1 69 -47 118 -92 94z"/>
<path d="M6535 5244 c-9 -14 -15 -27 -13 -30 2 -2 12 10 22 26 21 37 15 40 -9
4z"/>
<path d="M7758 5243 c7 -3 16 -2 19 1 4 3 -2 6 -13 5 -11 0 -14 -3 -6 -6z"/>
<path d="M9410 5227 c0 -14 111 -69 164 -83 49 -12 26 13 -29 31 -30 11 -54
24 -52 30 2 5 27 11 55 13 87 5 58 20 -43 21 -75 1 -95 -1 -95 -12z"/>
<path d="M5990 5152 l-135 -2 3 -59 c4 -65 10 -71 84 -71 20 0 40 -4 43 -10 3
-5 1 -10 -6 -10 -8 0 -10 -3 -3 -10 5 -5 100 -10 210 -12 l201 -3 20 35 c11
19 34 60 51 90 l31 55 -182 0 c-100 0 -243 -1 -317 -3z"/>
<path d="M540 5090 l-23 -20 21 -23 c37 -40 26 -61 -16 -31 -12 8 -22 11 -22
5 0 -5 -3 -16 -6 -25 -5 -14 4 -16 64 -16 l71 0 -6 58 c-3 31 -6 57 -7 58 0 1
-13 4 -27 7 -19 5 -33 1 -49 -13z"/>
<path d="M699 5093 c0 -10 -3 -40 -5 -66 -5 -43 -3 -48 13 -45 15 3 18 13 18
62 0 39 -4 61 -12 64 -7 2 -13 -5 -14 -15z"/>
<path d="M9402 5099 c3 -9 27 -16 69 -20 67 -6 122 -26 113 -40 -3 -5 0 -9 5
-9 6 0 11 8 11 19 0 20 -66 45 -154 57 -39 5 -48 4 -44 -7z"/>
<path d="M956 5084 c-7 -17 24 -65 39 -60 6 1 11 19 13 39 3 33 1 37 -21 37
-14 0 -28 -7 -31 -16z"/>
<path d="M3280 5009 c-52 -44 -134 -107 -182 -140 -100 -68 -108 -87 -50 -115
47 -23 120 -23 196 0 75 22 67 31 -10 11 -71 -18 -145 -11 -171 17 -20 23 -21
23 118 130 72 56 209 177 199 177 -3 0 -48 -36 -100 -80z"/>
<path d="M7729 5039 c59 -27 122 -48 111 -37 -7 7 -161 68 -169 67 -3 0 23
-14 58 -30z"/>
<path d="M316 5014 c-38 -13 -71 -26 -74 -29 -3 -3 41 -5 97 -5 92 0 102 2 99
18 -3 11 -12 16 -30 15 -20 -1 -25 2 -21 13 3 8 4 13 2 13 -2 -1 -35 -12 -73
-25z"/>
<path d="M3546 4965 c-20 -24 -44 -52 -53 -60 -8 -9 -13 -18 -10 -21 4 -4 46
43 96 109 29 37 1 15 -33 -28z"/>
<path d="M7900 4980 c61 -19 126 -33 118 -25 -5 5 -158 46 -167 44 -3 -1 19
-9 49 -19z"/>
<path d="M6366 4952 c-3 -5 -62 -10 -131 -10 -69 -1 -135 -7 -146 -13 -15 -8
-24 -7 -36 3 -15 12 -15 11 -4 -10 12 -22 11 -23 -8 -13 -29 16 -39 13 -17 -4
17 -13 17 -15 4 -15 -9 0 -24 -7 -32 -16 -9 -8 -16 -11 -16 -5 0 6 -19 11 -43
11 -36 0 -43 -3 -44 -20 -2 -19 4 -20 210 -20 l212 0 33 60 c19 33 31 60 28
60 -3 0 -7 -4 -10 -8z"/>
<path d="M90 4930 c-13 -8 -12 -10 3 -10 9 0 17 5 17 10 0 12 -1 12 -20 0z"/>
<path d="M8 4923 c7 -3 16 -2 19 1 4 3 -2 6 -13 5 -11 0 -14 -3 -6 -6z"/>
<path d="M5478 4923 c6 -2 18 -2 25 0 6 3 1 5 -13 5 -14 0 -19 -2 -12 -5z"/>
<path d="M5428 4913 c7 -3 16 -2 19 1 4 3 -2 6 -13 5 -11 0 -14 -3 -6 -6z"/>
<path d="M7350 4773 c0 -12 5 -25 10 -28 13 -8 13 15 0 35 -8 12 -10 11 -10
-7z"/>
<path d="M5979 4765 c-5 -21 16 -560 27 -655 l6 -55 28 80 c15 44 39 111 54
149 19 50 23 66 12 56 -14 -11 -16 -7 -16 38 0 61 -7 82 -26 75 -8 -3 -14 1
-14 11 0 10 6 13 15 10 9 -4 15 0 15 10 0 19 -4 20 -31 4 -34 -21 -46 10 -54
130 -10 175 -9 169 -16 147z"/>
<path d="M6060 4760 c8 -15 8 -20 -1 -20 -7 0 -9 -15 -5 -47 10 -78 10 -86 2
-135 -6 -40 -5 -47 7 -42 10 3 17 30 21 84 4 44 5 83 2 88 -3 5 -6 27 -7 50
-2 27 -8 42 -16 42 -11 0 -11 -5 -3 -20z"/>
<path d="M6230 4703 c0 -36 2 -64 4 -62 6 6 46 112 46 122 0 4 -11 7 -25 7
-24 0 -25 -2 -25 -67z"/>
<path d="M150 4720 c-2 -55 -14 -98 -22 -85 -3 6 -9 29 -13 51 l-6 42 -42 -5
c-63 -7 -67 -10 -67 -47 0 -58 8 -67 35 -40 42 41 55 32 55 -37 l0 -61 -39 5
c-29 3 -41 0 -45 -10 -10 -24 3 -33 45 -33 36 0 40 -2 37 -22 -2 -14 -15 -29
-33 -37 -16 -8 -34 -19 -40 -25 -14 -16 -16 -68 -1 -63 6 2 10 11 10 20 -2 20
29 31 62 23 20 -5 26 -2 34 20 6 14 19 38 30 52 14 17 20 40 20 78 0 29 5 56
10 59 7 4 6 13 -1 27 -6 12 -9 38 -6 59 3 22 1 39 -3 39 -5 0 -11 8 -13 18 -3
9 -6 -3 -7 -28z"/>
<path d="M5900 4749 c0 -5 5 -7 10 -4 6 3 10 8 10 11 0 2 -4 4 -10 4 -5 0 -10
-5 -10 -11z"/>
<path d="M317 4680 c-10 -14 -15 -20 -12 -13 3 6 -13 2 -34 -10 -22 -12 -38
-23 -37 -25 2 -1 22 1 44 6 27 6 44 6 51 -1 15 -15 18 -7 11 33 l-5 34 -18
-24z"/>
<path d="M400 4689 c0 -5 5 -7 10 -4 6 3 10 8 10 11 0 2 -4 4 -10 4 -5 0 -10
-5 -10 -11z"/>
<path d="M5148 4677 c-24 -35 -81 -153 -70 -142 13 13 95 165 89 165 -3 0 -11
-10 -19 -23z"/>
<path d="M6655 4630 c26 -94 167 -433 206 -496 10 -17 19 -39 19 -49 0 -10 3
-15 6 -12 4 3 20 -13 37 -36 39 -54 177 -217 184 -217 2 0 -7 14 -21 31 -14
17 -26 39 -26 50 0 11 -4 18 -9 15 -8 -6 -116 126 -139 171 -8 14 -12 82 -12
189 0 92 -2 165 -5 162 -3 -3 -9 -69 -13 -148 l-7 -142 -41 83 c-50 100 -123
272 -149 349 -20 57 -43 96 -30 50z"/>
<path d="M435 4630 c-3 -6 1 -13 10 -16 14 -6 14 -9 -1 -31 -14 -23 -14 -27 0
-41 12 -12 18 -13 30 -3 12 10 13 18 5 33 -6 11 -9 31 -6 44 3 18 0 24 -14 24
-10 0 -21 -5 -24 -10z"/>
<path d="M330 4579 c0 -5 5 -7 10 -4 6 3 10 8 10 11 0 2 -4 4 -10 4 -5 0 -10
-5 -10 -11z"/>
<path d="M6912 4546 c-6 -26 -12 -56 -11 -69 0 -12 7 5 15 37 17 71 14 98 -4
32z"/>
<path d="M6403 4520 c0 -36 2 -50 4 -32 2 17 2 47 0 65 -2 17 -4 3 -4 -33z"/>
<path d="M330 4510 c0 -5 5 -10 10 -10 6 0 10 5 10 10 0 6 -4 10 -10 10 -5 0
-10 -4 -10 -10z"/>
<path d="M5036 4462 c-54 -113 -146 -427 -146 -497 1 -49 19 -6 25 57 6 79 48
228 99 357 45 115 56 154 22 83z"/>
<path d="M10 4465 c0 -9 5 -15 11 -13 14 5 14 21 0 26 -6 2 -11 -4 -11 -13z"/>
<path d="M1418 4443 c17 -2 47 -2 65 0 17 2 3 4 -33 4 -36 0 -50 -2 -32 -4z"/>
<path d="M6394 4290 c9 -198 47 -485 75 -560 12 -30 32 -68 45 -85 22 -27 26
-29 60 -18 20 6 36 8 36 5 -1 -22 -28 -35 -126 -63 -60 -16 -152 -46 -204 -66
-52 -19 -117 -42 -145 -50 -58 -17 -109 -42 -102 -49 3 -3 76 20 164 51 283
102 508 165 586 165 18 0 59 -7 92 -15 76 -20 97 -13 25 9 -58 17 -184 37
-174 27 3 -3 -19 -11 -48 -17 -29 -7 -54 -11 -56 -10 -9 10 16 40 47 56 35 17
72 50 57 50 -4 0 -20 -7 -36 -15 -17 -9 -30 -11 -30 -6 0 10 58 116 88 159 10
15 24 41 31 57 l12 30 -24 -26 c-14 -14 -32 -40 -42 -58 -11 -23 -20 -30 -28
-23 -12 10 -67 5 -67 -7 0 -10 -152 -3 -163 8 -5 5 -13 29 -18 53 -12 62 -37
325 -43 447 -3 57 -8 106 -12 110 -3 3 -3 -68 0 -159z m286 -520 c-13 -27 -31
-57 -41 -66 -16 -14 -20 -14 -44 2 -36 24 -48 49 -35 74 6 11 18 20 26 20 8 0
12 4 9 10 -3 6 1 7 10 4 25 -10 87 5 79 19 -5 9 -3 9 6 0 11 -10 10 -21 -10
-63z m-186 29 c-3 -6 0 -17 7 -25 6 -8 9 -17 5 -21 -3 -3 -6 -1 -6 6 0 8 -7
11 -15 7 -11 -4 -15 2 -15 24 0 22 4 28 15 24 8 -4 12 -10 9 -15z m36 1 c9
-16 8 -18 -5 -14 -8 4 -15 12 -15 20 0 20 7 17 20 -6z m-15 -91 c-4 -6 3 -21
16 -35 12 -13 20 -26 17 -29 -8 -8 -49 55 -43 65 3 6 8 10 11 10 3 0 2 -5 -1
-11z m105 -38 c0 -5 -7 -11 -14 -14 -10 -4 -13 -1 -9 9 6 15 23 19 23 5z"/>
<path d="M3746 4163 c-3 -3 -3 -10 0 -14 7 -12 34 -11 34 0 0 11 -26 22 -34
14z"/>
<path d="M359 4128 c-1 -2 -2 -33 -3 -70 -1 -61 0 -65 16 -57 21 11 22 21 8
35 -7 7 -8 25 -1 52 7 34 6 42 -5 42 -8 0 -14 -1 -15 -2z"/>
<path d="M5184 4064 c-44 -31 -88 -65 -99 -76 l-20 -20 25 12 c52 27 196 139
179 140 -4 0 -42 -25 -85 -56z"/>
<path d="M4956 4073 c-6 -14 -5 -15 5 -6 7 7 10 15 7 18 -3 3 -9 -2 -12 -12z"/>
<path d="M7085 3989 c-9 -17 -15 -33 -13 -35 3 -2 12 12 21 31 21 43 13 47 -8
4z"/>
<path d="M6517 3974 c46 -37 145 -95 152 -89 3 4 -1 10 -8 15 -10 5 -6 8 12 7
15 -1 29 -7 31 -14 3 -7 -1 -10 -10 -6 -7 3 -14 1 -14 -5 0 -12 26 -23 34 -15
3 4 6 14 6 24 0 20 -59 44 -103 41 -20 -2 -26 1 -21 9 5 9 2 10 -9 6 -9 -3
-19 -2 -22 2 -3 5 -22 18 -42 30 l-38 21 32 -26z"/>
<path d="M110 3866 c0 -47 -36 -86 -80 -86 -26 0 -30 -4 -30 -26 0 -34 8 -31
110 48 61 46 78 64 64 67 -10 2 -28 10 -41 18 -23 15 -23 15 -23 -21z"/>
<path d="M9452 3795 c-1 -81 -6 -116 -18 -133 -8 -12 -11 -22 -6 -22 23 0 33
49 29 155 l-3 110 -2 -110z"/>
<path d="M2240 3810 c8 -5 20 -10 25 -10 6 0 3 5 -5 10 -8 5 -19 10 -25 10 -5
0 -3 -5 5 -10z"/>
<path d="M1401 3604 c-28 -20 -30 -24 -14 -24 12 0 28 11 37 25 9 14 15 25 14
24 -2 0 -18 -12 -37 -25z"/>
<path d="M4627 3580 c4 -8 35 -55 67 -105 33 -49 79 -132 103 -183 38 -81 48
-95 80 -108 55 -24 151 1 167 43 6 14 2 12 -17 -6 -42 -39 -127 -48 -165 -18
-8 6 -39 61 -69 121 -52 105 -105 189 -153 246 -12 14 -18 18 -13 10z"/>
<path d="M9323 3470 c0 -30 2 -43 4 -27 2 15 2 39 0 55 -2 15 -4 2 -4 -28z"/>
<path d="M1287 3416 c-37 -51 -78 -113 -92 -137 l-25 -44 0 95 c0 65 -3 91
-10 84 -7 -7 -10 -52 -8 -115 l3 -104 86 130 c47 72 93 142 103 158 10 15 16
27 14 27 -3 0 -35 -42 -71 -94z"/>
<path d="M9332 3330 c0 -19 2 -27 5 -17 2 9 2 25 0 35 -3 9 -5 1 -5 -18z"/>
<path d="M5041 3334 c0 -11 3 -14 6 -6 3 7 2 16 -1 19 -3 4 -6 -2 -5 -13z"/>
<path d="M5840 3311 c5 -11 15 -23 21 -27 6 -3 3 5 -6 20 -20 30 -30 35 -15 7z"/>
<path d="M5904 3288 c-1 -18 -5 -46 -9 -63 l-7 -30 16 29 c16 29 22 96 9 96
-5 0 -9 -15 -9 -32z"/>
<path d="M1509 3173 c-13 -16 -12 -17 4 -4 9 7 17 15 17 17 0 8 -8 3 -21 -13z"/>
<path d="M1477 3153 c-4 -6 -6 -17 -4 -25 2 -7 2 -9 -1 -5 -7 14 -31 -14 -25
-31 4 -14 3 -15 -6 -2 -8 12 -14 11 -36 -10 -18 -17 -22 -27 -14 -34 7 -8 14
-6 23 6 8 11 22 16 35 13 17 -3 21 0 19 13 -2 9 2 22 10 28 8 5 12 21 10 35
-2 15 -6 20 -11 12z"/>
<path d="M9352 3055 c0 -16 2 -22 5 -12 2 9 2 23 0 30 -3 6 -5 -1 -5 -18z"/>
<path d="M9363 2925 c0 -27 2 -38 4 -22 2 15 2 37 0 50 -2 12 -4 0 -4 -28z"/>
<path d="M9373 2785 c0 -27 2 -38 4 -22 2 15 2 37 0 50 -2 12 -4 0 -4 -28z"/>
<path d="M9331 2754 c0 -11 3 -14 6 -6 3 7 2 16 -1 19 -3 4 -6 -2 -5 -13z"/>
<path d="M9342 2670 c0 -19 2 -27 5 -17 2 9 2 25 0 35 -3 9 -5 1 -5 -18z"/>
<path d="M9383 2645 c0 -33 2 -45 4 -27 2 18 2 45 0 60 -2 15 -4 0 -4 -33z"/>
<path d="M5680 2635 c32 -18 93 -20 88 -2 -3 7 -26 13 -59 14 -52 3 -53 2 -29
-12z"/>
<path d="M4717 2579 c8 -8 16 -8 30 0 16 9 14 10 -11 11 -22 0 -27 -3 -19 -11z"/>
<path d="M9393 2515 c0 -33 2 -45 4 -27 2 18 2 45 0 60 -2 15 -4 0 -4 -33z"/>
<path d="M4855 2430 c-3 -5 1 -10 9 -10 8 0 18 5 21 10 3 6 -1 10 -9 10 -8 0
-18 -4 -21 -10z"/>
<path d="M9403 2375 c0 -33 2 -45 4 -27 2 18 2 45 0 60 -2 15 -4 0 -4 -33z"/>
<path d="M0 2367 c0 -8 3 -35 6 -61 7 -46 7 -46 40 -40 19 3 42 7 51 8 10 0
20 4 23 8 5 7 23 12 85 24 17 3 39 9 50 13 52 21 127 39 144 34 10 -3 22 0 25
6 4 7 -2 11 -16 10 -13 0 -110 3 -215 6 -165 6 -193 5 -193 -8z"/>
<path d="M1367 2368 c2 -5 10 -8 18 -8 8 0 16 3 18 8 3 4 -5 7 -18 7 -13 0
-21 -3 -18 -7z"/>
<path d="M736 2361 c-11 -17 54 -29 194 -36 183 -9 208 -13 240 -36 21 -16 27
-26 20 -33 -8 -8 -14 -6 -21 4 -9 13 -10 13 -6 0 5 -20 76 -28 205 -22 l103 5
-37 38 c-21 22 -43 39 -49 39 -6 0 -24 -13 -40 -30 -16 -16 -33 -30 -39 -30
-5 0 7 18 29 40 21 22 35 43 31 47 -4 4 -11 1 -16 -7 -7 -11 -10 -12 -10 -2 0
7 -5 10 -12 6 -7 -4 -8 -3 -4 5 4 6 12 9 17 6 5 -4 9 -3 9 2 0 12 -607 16
-614 4z m558 -47 c3 -8 2 -12 -4 -9 -6 3 -10 10 -10 16 0 14 7 11 14 -7z m-62
-23 c-12 -7 -62 -4 -62 5 0 2 17 4 38 4 23 0 32 -3 24 -9z"/>
<path d="M6171 2238 c-6 -73 -15 -160 -18 -193 l-6 -60 32 29 c43 41 47 28 6
-17 -20 -22 -34 -48 -34 -60 1 -20 2 -20 6 -2 7 28 43 65 63 65 15 0 18 19 24
145 8 153 4 178 -21 148 -14 -17 -14 -17 -10 4 3 14 -1 24 -12 28 -15 6 -14 8
2 20 16 11 16 13 1 19 -8 3 -17 6 -18 6 -1 0 -8 -60 -15 -132z m68 7 c-2 -25
-7 -45 -12 -45 -5 0 -7 6 -4 14 3 7 0 19 -6 25 -8 8 -8 11 1 11 7 0 12 9 12
20 0 11 2 20 5 20 3 0 5 -20 4 -45z m-9 -175 c0 -5 -4 -10 -10 -10 -5 0 -10 5
-10 10 0 6 5 10 10 10 6 0 10 -4 10 -10z"/>
<path d="M1130 2280 c0 -5 5 -10 11 -10 5 0 7 5 4 10 -3 6 -8 10 -11 10 -2 0
-4 -4 -4 -10z"/>
<path d="M9413 2240 c0 -30 2 -43 4 -27 2 15 2 39 0 55 -2 15 -4 2 -4 -28z"/>
<path d="M70 2236 c0 -2 9 -6 20 -9 11 -3 18 -1 14 4 -5 9 -34 13 -34 5z"/>
<path d="M9423 2110 c0 -36 2 -50 4 -32 2 17 2 47 0 65 -2 17 -4 3 -4 -33z"/>
<path d="M9433 1970 c0 -30 2 -43 4 -27 2 15 2 39 0 55 -2 15 -4 2 -4 -28z"/>
<path d="M6000 1968 c0 -9 5 -20 10 -23 13 -8 13 5 0 25 -8 13 -10 13 -10 -2z"/>
<path d="M823 1875 c0 -8 4 -12 9 -9 5 3 6 10 3 15 -9 13 -12 11 -12 -6z"/>
<path d="M781 1854 c0 -11 3 -14 6 -6 3 7 2 16 -1 19 -3 4 -6 -2 -5 -13z"/>
<path d="M9443 1825 c0 -22 2 -30 4 -17 2 12 2 30 0 40 -3 9 -5 -1 -4 -23z"/>
<path d="M9453 1695 c0 -27 2 -38 4 -22 2 15 2 37 0 50 -2 12 -4 0 -4 -28z"/>
<path d="M9463 1560 c0 -30 2 -43 4 -27 2 15 2 39 0 55 -2 15 -4 2 -4 -28z"/>
<path d="M9473 1425 c0 -33 2 -45 4 -27 2 18 2 45 0 60 -2 15 -4 0 -4 -33z"/>
<path d="M9483 1300 c0 -30 2 -43 4 -27 2 15 2 39 0 55 -2 15 -4 2 -4 -28z"/>
<path d="M9493 1160 c0 -30 2 -43 4 -27 2 15 2 39 0 55 -2 15 -4 2 -4 -28z"/>
<path d="M4561 794 c0 -11 3 -14 6 -6 3 7 2 16 -1 19 -3 4 -6 -2 -5 -13z"/>
<path d="M3443 755 c0 -8 4 -12 9 -9 5 3 6 10 3 15 -9 13 -12 11 -12 -6z"/>
<path d="M7629 713 l-24 -28 28 24 c15 14 27 26 27 28 0 8 -8 1 -31 -24z"/>
<path d="M4604 646 c-9 -15 -14 -29 -11 -32 3 -3 13 6 23 20 9 15 14 29 11 32
-3 3 -13 -6 -23 -20z"/>
<path d="M4213 648 c-16 -20 -71 -300 -88 -449 -10 -92 -32 -162 -57 -182
l-23 -18 30 3 c38 4 61 48 84 163 11 53 17 71 19 52 3 -26 -12 -143 -25 -194
-4 -17 -1 -23 10 -23 23 0 29 14 38 89 4 36 17 128 28 204 31 210 30 267 -5
267 -16 0 -17 10 -5 63 10 40 9 44 -6 25z"/>
<path d="M790 589 c-7 -11 -10 -23 -7 -25 2 -2 9 7 15 21 14 30 7 33 -8 4z"/>
<path d="M6502 598 c-11 -14 -15 -48 -13 -116 l1 -44 31 31 c21 21 32 43 34
68 6 59 -25 94 -53 61z"/>
<path d="M6710 576 c0 -9 5 -16 10 -16 6 0 10 4 10 9 0 6 -4 13 -10 16 -5 3
-10 -1 -10 -9z"/>
<path d="M658 518 c-22 -40 -24 -49 -12 -59 11 -9 17 -4 30 26 8 20 14 47 12
59 -2 17 -8 12 -30 -26z"/>
<path d="M4543 485 c-18 -62 -22 -81 -43 -215 -32 -213 -41 -254 -53 -263 -7
-4 3 -6 23 -5 26 2 36 8 38 23 5 25 43 66 95 102 37 26 39 29 33 68 -11 83
-35 183 -52 221 -10 21 -21 55 -24 74 l-6 35 -11 -40z"/>
<path d="M400 420 c0 -11 4 -20 9 -20 5 0 7 9 4 20 -3 11 -7 20 -9 20 -2 0 -4
-9 -4 -20z"/>
<path d="M502 416 c-12 -26 -7 -32 14 -18 6 4 8 15 5 25 -6 17 -8 16 -19 -7z"/>
<path d="M485 350 c3 -5 10 -10 16 -10 5 0 9 5 9 10 0 6 -7 10 -16 10 -8 0
-12 -4 -9 -10z"/>
<path d="M470 337 c0 -9 41 -97 45 -97 7 0 -27 90 -36 96 -5 3 -9 3 -9 1z"/>
<path d="M3635 331 c-3 -5 -2 -12 3 -15 5 -3 9 1 9 9 0 17 -3 19 -12 6z"/>
<path d="M3617 287 c3 -5 -1 -13 -8 -18 -10 -6 -10 -9 -2 -9 7 0 17 8 22 18 7
14 6 19 -4 19 -8 0 -11 -5 -8 -10z"/>
<path d="M60 260 c0 -5 5 -10 11 -10 5 0 7 5 4 10 -3 6 -8 10 -11 10 -2 0 -4
-4 -4 -10z"/>
<path d="M3661 144 c0 -11 3 -14 6 -6 3 7 2 16 -1 19 -3 4 -6 -2 -5 -13z"/>
<path d="M3690 150 c0 -5 5 -10 11 -10 5 0 7 5 4 10 -3 6 -8 10 -11 10 -2 0
-4 -4 -4 -10z"/>
<path d="M3830 28 c0 -18 18 -34 28 -24 3 4 -2 14 -11 23 -16 16 -17 16 -17 1z"/>
</g>
</svg>
