<?xml version="1.0" standalone="no"?>
<!DOCTYPE svg PUBLIC "-//W3C//DTD SVG 20010904//EN"
 "http://www.w3.org/TR/2001/REC-SVG-20010904/DTD/svg10.dtd">
<svg version="1.0" xmlns="http://www.w3.org/2000/svg"
 width="960.000000pt" height="1080.000000pt" viewBox="0 0 960.000000 1080.000000"
 preserveAspectRatio="xMidYMid meet">

<g transform="translate(0.000000,1080.000000) scale(0.100000,-0.100000)"
fill="#000000" stroke="none">
<path d="M284 10778 c-4 -6 0 -16 9 -23 18 -13 24 -31 8 -20 -19 11 -20 -13
-2 -34 18 -20 40 -14 27 8 -3 5 1 14 9 21 18 15 19 10 4 -27 -15 -36 -13 -69
6 -96 13 -18 15 -19 15 -4 0 9 5 17 10 17 6 0 10 -6 10 -12 0 -22 -17 -41 -29
-34 -19 12 -12 -2 16 -30 23 -23 25 -28 11 -38 -12 -9 -13 -14 -3 -23 7 -7 16
-9 19 -6 3 4 6 1 6 -5 0 -7 -8 -12 -17 -12 -13 0 -14 -3 -5 -12 7 -7 12 -29
12 -49 0 -21 5 -41 11 -44 14 -9 23 1 13 16 -4 7 -9 47 -10 88 -2 42 -6 110
-8 151 -3 41 -5 98 -6 127 l0 51 -50 0 c-27 1 -53 -4 -56 -10z m51 -18 c3 -5
2 -10 -4 -10 -5 0 -13 5 -16 10 -3 6 -2 10 4 10 5 0 13 -4 16 -10z m29 -106
c12 -5 13 -9 3 -19 -14 -15 -27 -10 -27 11 0 16 2 16 24 8z"/>
<path d="M28 10659 l-27 -20 -1 -400 c0 -234 4 -399 9 -399 5 0 14 -13 20 -30
9 -27 14 -30 55 -30 54 0 58 -10 15 -41 -24 -17 -30 -27 -25 -45 3 -13 9 -35
12 -49 4 -15 2 -25 -4 -25 -6 0 -24 11 -40 25 -17 14 -33 25 -36 25 -3 0 -6
-72 -6 -160 l0 -161 30 16 30 16 0 99 c0 73 3 100 13 100 6 1 30 23 51 50 l39
50 752 0 751 0 34 35 c19 19 42 35 51 35 10 0 21 5 24 10 4 7 -269 10 -813 10
l-819 0 -45 56 -46 57 4 398 c3 220 3 399 2 399 -2 0 -15 -10 -30 -21z m602
-929 c0 -5 -4 -10 -10 -10 -5 0 -10 5 -10 10 0 6 5 10 10 10 6 0 10 -4 10 -10z"/>
<path d="M2108 10567 c-45 -40 -48 -45 -51 -99 -5 -85 3 -88 68 -33 l57 49 -6
50 c-3 28 -6 57 -6 64 0 20 -12 14 -62 -31z"/>
<path d="M1495 10560 c3 -5 8 -10 11 -10 2 0 4 5 4 10 0 6 -5 10 -11 10 -5 0
-7 -4 -4 -10z"/>
<path d="M7627 10369 c-560 -4 -1039 -10 -1063 -14 -29 -4 -44 -11 -44 -21 0
-8 -5 -14 -11 -14 -18 0 11 -30 30 -31 10 0 11 -2 4 -6 -22 -8 -14 -24 10 -19
12 3 73 7 135 10 63 3 118 9 124 12 7 4 8 2 4 -4 -4 -8 15 -12 61 -15 37 -2
-4 -4 -92 -5 -381 -5 -855 -129 -955 -250 -41 -50 -150 -330 -150 -387 0 -33
-12 -85 -19 -85 -3 0 -19 33 -35 73 -65 159 -141 197 -401 197 -85 0 -185 -6
-230 -14 -131 -23 -375 -95 -375 -111 0 -2 17 2 38 9 20 7 98 28 172 47 127
31 145 33 314 34 l178 0 54 -58 c72 -77 138 -166 130 -174 -3 -3 -66 12 -139
35 -72 23 -177 50 -232 61 -125 25 -330 40 -415 32 -53 -5 -34 -8 105 -13 94
-4 206 -14 250 -22 102 -21 278 -66 287 -75 4 -3 -46 -6 -110 -7 -82 -1 -128
-5 -153 -16 -19 -9 -126 -70 -237 -137 -361 -217 -408 -236 -667 -267 -32 -4
-44 -9 -35 -14 18 -10 193 14 269 36 72 21 134 52 386 198 115 67 233 133 260
146 45 21 155 40 155 27 0 -2 -36 -17 -80 -33 -115 -40 -116 -49 -7 -50 51 0
124 -1 162 -1 39 0 94 0 124 1 36 1 56 -3 59 -11 2 -7 11 -13 20 -13 10 0 -30
-23 -87 -50 -57 -28 -102 -53 -99 -55 3 -3 34 1 69 9 35 8 111 17 169 20 l105
5 -68 -13 c-37 -7 -69 -15 -72 -18 -3 -3 48 -8 112 -11 104 -6 119 -9 134 -28
14 -19 22 -21 71 -15 30 4 66 2 79 -3 23 -9 22 -10 -10 -10 -18 -1 -65 -12
-103 -26 -38 -14 -76 -25 -85 -25 -9 0 -45 -14 -79 -31 -39 -19 -110 -40 -186
-55 -68 -13 -167 -35 -221 -49 -98 -26 -267 -91 -267 -104 0 -3 86 -4 191 -3
l191 4 -51 -69 c-28 -37 -55 -73 -59 -79 -18 -21 -33 -55 -29 -67 2 -6 20 15
41 46 64 96 168 209 234 253 82 55 277 126 416 153 60 12 111 20 113 18 2 -2
-101 -105 -228 -228 -243 -235 -352 -358 -463 -524 -95 -142 -199 -357 -236
-489 -16 -60 -30 -112 -30 -115 0 -3 17 23 37 58 48 80 161 200 172 182 6 -10
21 -7 67 12 73 29 114 40 114 29 0 -4 -7 -64 -15 -132 -12 -91 -20 -127 -32
-133 -8 -5 -24 -18 -34 -28 -26 -26 -29 -25 -29 23 0 23 -3 39 -6 36 -5 -5
-25 -237 -28 -320 -1 -41 -13 -34 -27 15 -18 63 -24 63 -44 -3 -10 -33 -22
-60 -27 -60 -15 0 -106 -99 -156 -170 l-47 -64 -47 149 c-27 82 -52 153 -56
157 -8 8 -16 -250 -14 -439 0 -51 0 -93 -2 -93 -2 0 -15 38 -31 85 -15 47 -31
82 -36 80 -4 -3 -13 3 -18 14 -16 29 -13 38 4 15 14 -18 -28 112 -99 306 -30
82 -41 94 -39 43 1 -7 -3 -13 -7 -13 -5 0 -6 -10 -3 -22 3 -17 2 -19 -5 -10
-7 11 -11 8 -15 -9 -4 -13 -2 -26 3 -29 5 -3 7 -16 3 -29 -3 -13 -9 -18 -13
-12 -3 7 -7 -3 -7 -21 1 -18 -7 -80 -17 -138 -10 -58 -21 -161 -25 -230 -7
-124 -7 -125 -20 -80 -27 94 -41 178 -41 260 0 105 -9 122 -35 72 -30 -58
-155 -208 -155 -186 0 6 4 14 9 20 10 11 43 113 66 203 9 35 27 86 41 114 35
74 31 83 -22 45 -54 -38 -58 -44 -43 -54 7 -4 9 -3 6 2 -3 6 3 15 14 22 27 17
24 -1 -6 -37 -23 -27 -131 -78 -142 -67 -3 2 5 7 16 11 12 3 21 11 21 16 0 6
4 7 10 4 11 -7 54 14 46 22 -3 4 0 13 7 22 10 13 7 12 -13 -2 -14 -9 -51 -31
-83 -47 -32 -17 -56 -34 -53 -38 2 -4 -3 -8 -12 -9 -9 -1 -48 -13 -85 -27 -37
-14 -75 -26 -83 -26 -8 0 18 34 58 76 40 41 98 110 128 153 30 43 77 105 103
137 71 87 77 106 13 44 -31 -30 -56 -49 -56 -43 0 43 35 266 59 376 64 290
127 441 252 598 36 45 25 51 -23 12 -18 -16 -44 -37 -57 -48 -14 -11 -38 -32
-53 -47 -15 -14 -28 -24 -28 -20 0 3 -8 -3 -19 -14 -22 -23 -38 -36 -127 -105
-38 -29 -109 -86 -157 -127 -49 -41 -91 -72 -93 -69 -10 10 133 220 265 387
145 185 276 313 406 398 125 81 200 129 220 140 11 6 16 11 10 12 -5 0 -68
-32 -140 -71 l-130 -71 -125 5 c-69 3 -138 9 -155 15 -16 6 -64 13 -105 15
-68 5 -72 4 -45 -8 41 -18 213 -44 313 -47 45 -2 82 -5 81 -8 0 -3 -47 -48
-103 -100 -56 -52 -113 -111 -127 -130 -30 -43 -135 -175 -192 -243 -61 -72
-137 -188 -181 -274 -20 -40 -36 -75 -36 -79 0 -3 21 12 48 33 105 88 370 283
430 317 7 5 -1 -20 -18 -54 -66 -131 -136 -387 -176 -645 -22 -146 -50 -241
-86 -294 -18 -25 -78 -92 -133 -148 -62 -64 -95 -103 -85 -103 74 0 275 54
394 105 l38 16 -6 -37 c-4 -20 -27 -88 -52 -151 -24 -63 -44 -117 -44 -119 0
-19 39 10 110 81 93 93 97 94 99 3 1 -42 64 -293 91 -365 l18 -48 7 70 c8 83
25 198 29 203 5 5 51 -76 95 -167 35 -73 38 -83 30 -131 -15 -96 -77 -172
-183 -225 -38 -19 -45 -26 -32 -31 28 -11 187 3 234 20 23 8 42 13 42 11 0 -2
-11 -25 -25 -51 -37 -69 -32 -79 22 -38 52 39 122 78 130 71 9 -10 -49 -202
-75 -249 l-26 -46 -45 24 c-58 30 -103 39 -130 24 -13 -6 -48 -64 -86 -141
-36 -73 -92 -166 -127 -211 -62 -80 -62 -80 -46 -109 16 -27 16 -29 -16 -71
-17 -24 -38 -53 -46 -65 -8 -12 -67 -90 -131 -175 -237 -313 -296 -414 -322
-544 -21 -104 -53 -451 -63 -664 -7 -183 -7 -1140 1 -1148 3 -3 5 174 5 394 0
568 25 1128 61 1354 30 191 46 220 365 647 125 167 181 234 201 240 39 14 140
-33 290 -136 165 -111 166 -113 416 -470 29 -41 86 -122 127 -180 42 -58 80
-115 84 -126 8 -18 10 -16 16 13 4 18 11 36 14 39 8 8 172 -161 245 -252 55
-69 146 -164 188 -197 16 -12 23 -32 28 -75 3 -32 13 -114 21 -183 9 -84 11
-154 6 -213 l-7 -88 -112 158 c-196 277 -283 395 -283 385 0 -6 48 -77 107
-159 58 -81 148 -206 200 -277 l93 -130 0 -68 c0 -37 -4 -68 -8 -68 -27 0
-110 112 -188 254 -84 152 -214 427 -214 454 0 25 -90 178 -122 208 -18 17
-53 43 -78 58 l-45 27 45 -38 c93 -79 117 -118 226 -366 24 -54 84 -178 134
-275 l90 -177 -252 250 c-156 154 -191 187 -93 85 88 -91 215 -221 281 -290
67 -69 159 -161 205 -205 79 -75 88 -87 134 -192 45 -102 68 -135 242 -358
l193 -245 -43 -1 c-32 -2 -35 -3 -12 -6 48 -6 83 -23 100 -49 l15 -23 -45 1
c-67 1 -139 -41 -265 -157 -84 -76 -432 -435 -381 -392 45 37 61 45 61 28 0
-12 -237 -243 -350 -341 -107 -93 -167 -136 -177 -127 -7 7 42 56 123 123 27
23 63 54 79 69 42 38 -57 -38 -130 -100 -33 -29 -95 -78 -137 -110 -43 -31
-78 -59 -78 -62 0 -4 37 17 97 55 12 8 27 12 33 10 5 -1 -33 -34 -85 -73 -52
-38 -95 -71 -95 -73 0 -11 147 94 275 197 137 110 230 197 585 546 140 139
277 266 303 284 82 55 142 76 209 72 9 -1 31 -13 49 -28 l32 -27 -55 -11 c-98
-19 -158 -65 -418 -320 -135 -132 -270 -263 -300 -290 -30 -27 -84 -76 -120
-109 -36 -34 -91 -82 -123 -109 -33 -26 -54 -47 -49 -47 6 0 14 5 17 11 7 10
59 33 61 27 1 -2 12 6 25 16 13 11 2 -2 -26 -29 -110 -105 -185 -151 -155 -95
6 11 -32 -12 -85 -51 -52 -39 -95 -73 -95 -74 0 -5 113 63 140 84 13 11 28 17
32 15 10 -6 -64 -65 -175 -141 -91 -61 -104 -72 -67 -53 43 22 221 146 294
205 163 130 357 306 586 531 235 230 368 349 427 379 16 8 49 15 74 15 42 0
51 -4 82 -39 42 -47 60 -78 54 -94 -3 -7 -10 0 -16 16 -17 44 -56 36 -152 -33
-170 -121 -379 -299 -559 -476 -274 -269 -310 -300 -560 -481 l-104 -76 -101
12 c-55 7 -134 17 -175 21 -41 5 -185 23 -320 39 -399 50 -412 51 -485 55
l-70 4 70 -13 c39 -8 214 -35 390 -60 176 -25 336 -50 355 -54 l35 -9 -43 -1
c-32 -1 -49 -8 -69 -27 -23 -23 -37 -27 -112 -32 l-86 -6 85 -13 c93 -14 307
-35 885 -88 550 -51 677 -64 683 -70 9 -8 41 -137 42 -162 0 -17 -6 -23 -23
-23 -12 0 -47 -9 -77 -20 -64 -23 -145 -27 -157 -6 -9 15 -170 29 -588 51
-148 7 -277 16 -285 19 -8 2 -94 10 -190 16 -96 6 -218 15 -270 20 -52 5 -192
17 -310 25 -118 9 -242 20 -275 24 -38 6 -65 5 -72 -1 -8 -6 -40 -7 -80 -4
-38 4 -85 7 -106 8 -27 1 -36 5 -33 15 7 16 6 16 -38 -2 -34 -15 -36 -14 -36
5 0 11 -4 20 -10 20 -5 0 -10 -4 -10 -9 0 -5 -7 -17 -15 -25 -20 -20 -25 -19
235 -46 113 -11 259 -27 325 -35 530 -64 1112 -110 1638 -131 154 -6 167 -8
153 -23 -8 -9 -17 -33 -21 -53 l-7 -38 -897 -1 c-844 -2 -1252 -9 -1061 -20
117 -6 151 -6 1080 -8 l875 -2 21 -44 c12 -25 15 -40 8 -35 -8 8 -14 8 -19 0
-10 -16 93 -57 192 -75 70 -13 99 -24 143 -55 60 -41 94 -52 210 -70 41 -6
112 -24 157 -40 55 -19 95 -27 119 -24 21 3 68 -5 113 -18 73 -22 88 -23 366
-20 160 2 337 1 395 -3 l105 -7 62 -67 c35 -36 63 -73 63 -81 0 -13 -1 -13
-10 0 -8 13 -10 13 -10 -1 0 -9 11 -21 24 -28 30 -16 81 -103 137 -232 40 -91
46 -99 71 -99 16 0 28 2 28 5 0 13 -155 303 -204 383 -68 109 -144 205 -157
196 -5 -3 -30 2 -55 12 -70 27 -152 22 -304 -16 -124 -31 -147 -34 -285 -34
-141 -1 -155 1 -225 28 -41 16 -96 39 -121 51 -39 20 -63 24 -165 26 -192 3
-235 13 -313 72 -57 43 -80 54 -170 76 -85 21 -108 31 -124 53 -27 37 -25 74
9 109 25 26 34 29 96 29 39 0 68 4 68 10 0 6 -28 10 -64 10 -49 0 -69 -5 -90
-21 -33 -26 -37 -2 -3 28 60 55 181 78 274 53 52 -15 207 -74 235 -90 31 -18
72 -11 144 24 160 76 218 170 200 320 -10 75 -26 61 -26 -22 l0 -67 -32 55
c-18 30 -85 109 -149 176 -71 75 -127 143 -144 176 -14 29 -24 45 -21 35 3
-10 6 -27 6 -37 0 -10 15 -41 34 -69 19 -28 30 -51 25 -51 -6 0 -8 -4 -4 -9 6
-10 -9 -16 -67 -26 -43 -7 -58 -23 -35 -39 12 -9 13 -16 4 -31 -18 -32 -31
-42 -49 -37 -12 3 -15 -1 -12 -15 7 -27 43 -48 57 -34 6 6 16 11 22 11 5 0 -1
-9 -15 -20 -14 -10 -21 -22 -17 -26 12 -13 45 27 63 77 24 67 29 55 8 -21 -15
-54 -16 -72 -6 -143 10 -68 7 -187 -4 -187 -2 0 -40 15 -86 33 -46 19 -106 40
-135 47 -51 13 -51 14 -58 59 -3 25 -13 71 -21 101 -14 52 -14 61 6 135 11 44
25 123 30 175 12 117 18 147 38 185 20 40 30 47 152 106 147 71 193 102 287
191 139 132 162 139 272 84 65 -33 179 -76 201 -76 21 0 9 18 -17 25 l-27 6
43 24 c23 14 55 34 71 45 17 12 44 20 68 20 34 0 54 -10 129 -66 108 -82 233
-144 233 -118 0 4 -8 13 -17 20 -16 12 -11 13 37 14 68 0 93 -15 195 -111 41
-40 78 -69 81 -66 4 3 20 -1 36 -9 16 -8 58 -24 93 -35 44 -13 68 -27 76 -42
7 -12 36 -53 64 -92 29 -38 85 -119 125 -180 101 -152 150 -216 250 -320 74
-77 89 -98 104 -150 45 -154 159 -397 212 -456 13 -14 24 -35 24 -46 0 -16 5
-20 19 -16 16 4 19 0 18 -31 0 -19 2 -38 5 -41 3 -3 36 5 74 17 67 22 68 23
32 26 -21 2 -38 8 -38 14 0 5 -7 8 -15 4 -8 -3 -15 -1 -15 4 0 6 -8 18 -17 28
-20 20 -54 64 -105 137 -33 48 -128 216 -128 227 0 3 126 9 280 13 154 4 280
11 280 16 0 5 -37 9 -82 10 -150 1 -163 3 -160 18 2 8 6 67 9 130 11 210 -35
519 -103 695 -63 162 -198 391 -396 669 -150 211 -153 214 -578 701 -129 148
-210 248 -210 260 0 4 6 3 13 -3 8 -6 16 -8 20 -5 8 8 162 -177 161 -193 -1
-7 2 -11 6 -8 11 7 251 -246 243 -258 -3 -6 -1 -7 5 -3 23 14 549 -670 546
-709 -1 -8 3 -13 10 -12 6 1 10 -6 10 -15 -1 -10 2 -16 6 -13 12 8 166 -243
218 -354 24 -52 57 -129 72 -170 16 -42 29 -71 29 -65 2 28 -37 132 -95 252
-35 73 -64 136 -64 141 0 4 6 21 14 37 7 16 32 82 56 147 39 108 51 130 63
110 2 -5 2 -2 1 5 -2 6 1 12 6 12 6 0 10 -5 10 -12 0 -6 3 -8 6 -5 4 4 2 13
-5 21 -9 11 -9 15 1 19 10 3 9 9 -4 24 -10 11 -18 26 -18 34 1 33 126 -188
187 -331 l24 -55 -4 41 c-3 23 -23 80 -45 127 l-40 86 29 -21 c16 -12 29 -29
29 -37 0 -12 3 -12 13 -3 8 9 13 64 15 184 4 184 -3 231 -54 348 l-24 55 35
-37 c20 -21 38 -38 41 -38 2 0 4 46 3 103 l0 102 -62 45 c-155 111 -456 305
-602 387 -183 103 -278 167 -281 189 -1 8 3 13 9 11 7 -3 11 -10 9 -16 -1 -7
2 -10 7 -6 9 5 191 -92 191 -102 0 -3 -34 14 -76 36 -41 22 -72 36 -69 31 4
-6 43 -29 87 -51 44 -22 77 -35 73 -29 -6 9 -2 9 14 1 11 -7 21 -16 21 -21 0
-6 9 -10 19 -10 11 0 22 -4 25 -9 4 -5 50 -33 103 -62 119 -64 154 -86 367
-233 102 -71 166 -109 164 -99 -3 17 -57 58 -254 192 -61 42 -162 115 -225
162 -63 47 -175 131 -249 186 -213 159 -286 226 -341 312 -59 91 -151 274
-214 426 -79 188 -162 312 -235 350 -113 58 -262 83 -550 92 -213 6 -605 -10
-695 -29 -27 -5 -60 -16 -72 -24 -12 -8 -29 -14 -38 -14 -8 0 -56 -16 -106
-36 -50 -20 -92 -34 -94 -32 -2 2 -5 53 -6 114 -1 104 -14 160 -36 158 -4 0
-11 -13 -14 -30 l-7 -29 -2 35 c-1 19 -6 46 -10 60 -5 14 -6 -55 -3 -160 l6
-186 -69 -44 c-38 -24 -86 -54 -108 -68 -21 -13 -41 -20 -45 -15 -3 5 -36 47
-72 94 l-66 84 -31 154 c-17 84 -38 164 -47 177 -8 13 -32 32 -53 43 -39 20
-66 60 -56 85 7 18 -18 66 -57 111 -24 27 -30 41 -25 61 l7 26 25 -39 c14 -21
82 -95 152 -165 69 -70 127 -133 128 -140 2 -7 12 -50 23 -94 11 -45 25 -122
31 -170 11 -87 21 -116 34 -95 4 5 13 8 21 4 8 -3 15 0 15 6 0 6 -4 11 -9 11
-6 0 -8 8 -6 18 4 25 -18 124 -44 192 -12 30 -21 61 -21 69 0 8 -10 25 -22 38
-24 26 -14 30 16 8 49 -37 48 -24 -20 170 -84 242 -86 247 -90 242 -6 -6 47
-177 90 -290 21 -55 35 -101 32 -104 -6 -7 -306 291 -334 332 l-20 31 38 99
c22 54 38 100 36 102 -7 7 -87 -178 -98 -226 -11 -47 -10 -54 10 -79 12 -15
34 -47 49 -71 25 -42 26 -45 11 -85 -13 -35 -19 -41 -46 -44 l-32 -3 0 54 c0
80 -14 110 -71 148 -39 27 -53 44 -64 79 l-15 45 4 -39 5 -40 -56 55 c-48 46
-52 49 -28 16 16 -22 66 -68 111 -103 45 -35 85 -71 88 -80 3 -9 6 -39 6 -68
0 -92 -33 -99 -122 -25 -70 58 -208 240 -203 266 2 10 9 50 15 88 7 39 25 126
41 194 16 68 27 126 25 128 -17 17 -124 -522 -138 -697 l-3 -35 -56 75 c-31
42 -73 102 -95 135 -21 33 -64 94 -94 135 -31 41 -80 109 -109 152 -70 102
-144 171 -282 261 -145 95 -229 137 -273 137 -19 0 -42 7 -51 16 -14 15 -12
20 20 62 77 101 102 141 160 257 56 112 62 120 92 123 21 2 55 -9 102 -32 39
-20 68 -30 66 -23 -5 12 76 149 108 185 9 10 33 48 55 85 l40 68 26 -58 c15
-32 35 -75 44 -95 9 -21 19 -38 22 -38 3 0 5 56 5 124 0 121 0 123 20 111 27
-17 95 -29 95 -17 0 12 -24 22 -51 22 -11 0 -45 23 -75 52 -122 115 -225 343
-209 462 14 110 171 343 259 384 88 42 216 15 216 -46 0 -15 3 -52 6 -82 5
-51 4 -54 -10 -36 -20 25 -21 8 -1 -18 8 -10 19 -43 25 -72 15 -71 28 -76 27
-11 -1 28 5 79 12 112 13 59 13 59 31 37 13 -15 20 -48 25 -106 10 -123 30
-252 37 -241 3 6 13 35 23 65 10 30 27 73 38 95 26 53 121 205 127 205 3 0 1
-42 -6 -92 -6 -51 -15 -127 -19 -168 l-8 -75 40 50 c42 53 111 115 203 181 58
42 253 164 262 164 3 0 -8 -37 -24 -82 -35 -95 -58 -167 -58 -180 0 -4 19 12
43 36 l42 44 92 -18 c160 -33 427 -113 568 -170 39 -15 87 -31 108 -35 20 -3
37 -11 37 -18 0 -7 -22 -57 -49 -112 -27 -55 -48 -101 -48 -102 5 -3 133 80
172 111 24 20 46 36 49 36 3 0 -6 -26 -20 -57 -14 -32 -29 -65 -32 -73 -3 -9
10 -3 31 13 118 89 -88 -177 -218 -282 l-40 -32 100 5 c55 4 114 9 130 12 30
5 30 5 -8 -19 -46 -29 -87 -67 -87 -80 0 -5 7 -4 15 3 8 6 20 8 26 4 15 -9
-16 -34 -41 -34 -25 0 -42 -46 -47 -125 -4 -56 -1 -82 17 -130 35 -92 36 -119
8 -137 -12 -8 -34 -18 -48 -23 -44 -13 -224 -106 -248 -128 -13 -12 -33 -39
-43 -59 -11 -21 -20 -38 -22 -38 -1 -1 -42 -7 -92 -15 -78 -11 -108 -23 -223
-81 -74 -38 -136 -72 -139 -77 -3 -4 55 22 128 59 111 56 145 68 208 76 110
14 122 19 154 66 40 59 92 95 203 138 97 37 150 67 167 95 7 11 2 34 -17 82
-37 93 -43 149 -21 184 34 51 128 143 147 143 10 0 30 -7 44 -16 23 -15 24
-15 18 1 -6 15 -4 16 14 6 11 -6 29 -11 38 -11 14 0 12 6 -11 30 l-29 30 35 0
c31 1 32 2 16 15 -18 13 -18 14 5 26 13 7 34 19 48 28 l25 15 -19 -22 c-27
-31 -14 -28 49 13 30 19 55 31 55 26 0 -12 -203 -218 -220 -224 -8 -2 -12 -7
-9 -11 12 -12 102 16 221 69 122 55 190 97 246 149 l33 31 -6 -30 c-20 -86
-105 -359 -115 -369 -10 -10 12 -36 32 -36 9 1 7 5 -5 14 -16 13 -14 17 31 55
58 48 241 274 294 364 61 101 59 102 55 -10 -2 -57 -2 -103 0 -103 14 0 193
437 193 469 0 6 5 22 11 38 l11 28 15 -30 c9 -16 51 -90 94 -162 71 -120 83
-148 53 -125 -5 4 -2 0 6 -8 9 -8 14 -23 12 -32 -2 -10 1 -18 7 -18 6 0 11 4
11 9 0 5 7 11 15 15 9 3 15 0 15 -10 0 -8 -11 -19 -25 -24 -14 -5 -25 -12 -25
-15 0 -4 5 -3 10 0 21 13 9 -15 -15 -33 -14 -11 -25 -25 -25 -31 0 -6 -5 -11
-11 -11 -6 0 -17 -7 -25 -15 -13 -13 -12 -15 8 -20 13 -2 32 -4 43 -2 21 2 24
-10 11 -50 -6 -19 -4 -23 13 -23 12 0 21 5 21 10 0 6 7 10 15 10 8 0 15 5 15
11 0 7 7 17 15 23 11 8 12 15 4 26 -8 11 -12 12 -16 3 -5 -15 -53 -18 -53 -4
0 5 -8 12 -17 14 -12 3 -9 5 8 6 14 0 34 8 45 16 10 8 26 14 34 15 13 0 13 -2
1 -9 -12 -8 -12 -11 1 -24 25 -26 53 -25 56 1 3 18 9 23 22 19 22 -6 63 33 43
40 -7 3 -13 11 -13 19 0 20 -13 17 -28 -6 -7 -12 -8 -20 -2 -20 5 0 10 -4 10
-10 0 -16 -26 -12 -41 6 -11 14 -10 21 4 46 22 38 21 48 -2 48 -25 0 -34 14
-26 40 8 24 50 27 59 5 3 -8 17 -15 32 -15 22 0 25 -3 20 -24 -7 -28 2 -40 20
-25 26 21 44 2 44 -46 0 -42 11 -58 25 -35 9 14 27 12 22 -2 -2 -7 3 -18 12
-25 14 -11 14 -12 0 -13 -8 0 -28 -16 -43 -35 -15 -19 -36 -37 -47 -40 -10 -4
-19 -12 -19 -18 0 -7 -10 -19 -21 -27 -12 -8 -32 -25 -45 -37 -13 -13 -28 -23
-34 -23 -5 0 -10 -4 -10 -10 0 -5 -18 -29 -40 -51 -45 -46 -41 -69 11 -69 22
0 29 5 29 19 0 11 -5 21 -12 23 -7 3 -8 10 -4 17 7 11 10 11 17 0 7 -11 12
-12 28 -2 15 9 21 9 23 1 3 -7 13 -3 26 10 12 12 29 22 37 22 8 0 15 6 15 14
0 7 9 16 20 19 11 3 20 2 20 -2 0 -12 -65 -65 -77 -63 -7 2 -13 -5 -13 -14 0
-10 -5 -14 -15 -10 -9 3 -15 0 -15 -10 0 -8 -6 -17 -14 -20 -8 -3 -17 -16 -20
-30 -4 -14 -16 -26 -32 -30 -15 -4 -23 -12 -20 -19 3 -8 -12 -17 -41 -25 -84
-24 -35 -33 252 -44 148 -6 142 -4 165 -36 11 -16 25 -58 31 -92 15 -102 40
-196 52 -201 7 -2 67 -2 135 1 l122 4 0 89 c0 89 14 120 26 59 4 -16 13 -35
20 -41 12 -9 14 -107 14 -569 0 -307 3 -567 8 -577 4 -10 9 238 12 551 l5 569
100 -2 c55 -1 126 -4 158 -7 38 -4 57 -3 57 5 0 6 -10 11 -22 12 -13 0 -32 2
-43 4 -11 2 -73 5 -137 7 l-118 3 0 28 c0 29 25 35 25 6 1 -8 7 -13 13 -11 7
1 67 3 133 3 66 0 127 3 135 6 19 7 21 328 2 335 -7 3 -47 1 -88 -3 -103 -11
-221 -10 -195 1 11 5 33 9 48 9 15 1 39 8 53 17 19 13 22 19 13 31 -9 10 -9
17 -1 25 9 9 16 7 28 -8 8 -10 13 -14 10 -8 -6 12 25 26 57 26 38 0 48 -2 42
-12 -3 -5 -1 -10 4 -10 15 0 14 57 -1 64 -10 5 -10 7 0 12 6 3 12 12 12 20 0
8 6 11 15 8 11 -5 15 1 15 24 0 26 -4 31 -27 35 l-28 4 28 2 c25 1 27 4 27 45
0 26 -6 48 -15 56 -10 9 -15 9 -15 1 0 -14 -37 -15 -45 -1 -3 6 5 10 19 10 14
0 28 5 32 11 4 8 9 7 15 -2 5 -8 9 819 9 1879 l0 1893 -477 -3 c-263 -1 -936
-5 -1496 -9z m-710 -145 c-3 -3 -12 -4 -19 -1 -8 3 -5 6 6 6 11 1 17 -2 13 -5z
m-51 -20 c-21 -21 -21 -24 12 -61 22 -26 35 -32 72 -34 25 -1 61 1 81 5 28 6
39 4 45 -7 7 -10 37 -16 109 -21 193 -12 245 -18 245 -28 0 -5 25 -7 58 -5 57
4 91 -5 105 -29 5 -9 16 -10 38 -4 22 7 31 5 35 -4 4 -9 20 -12 54 -8 35 3 50
1 50 -7 0 -7 -5 -9 -11 -5 -7 4 -10 1 -7 -7 5 -17 58 -25 58 -10 0 6 5 11 10
11 6 0 10 -8 8 -17 -2 -12 2 -17 12 -14 48 12 102 13 96 2 -4 -6 -18 -11 -32
-11 -14 0 -23 -4 -20 -9 3 -5 16 -7 29 -5 12 2 16 2 10 -2 -21 -10 -14 -22 10
-18 20 4 20 4 2 -5 -11 -5 -47 -7 -80 -4 -59 4 -59 3 -31 -12 31 -16 50 -20
42 -7 -2 4 28 4 67 0 102 -10 299 -9 316 1 7 5 10 14 7 20 -11 17 -2 13 24 -9
15 -13 37 -20 65 -20 62 0 66 -8 53 -135 -8 -88 -7 -140 6 -270 9 -88 18 -180
19 -205 3 -45 3 -45 15 -17 7 16 12 57 12 93 0 50 3 64 15 64 8 0 15 -7 15
-16 0 -11 6 -15 18 -12 18 5 42 -13 42 -31 0 -24 66 -22 125 4 17 8 78 28 136
44 101 30 160 33 174 11 3 -5 -4 -6 -15 -3 -16 4 -19 0 -17 -23 1 -19 -2 -28
-10 -26 -7 1 -13 -4 -13 -12 0 -8 -7 -16 -15 -20 -8 -3 -15 -12 -15 -21 0 -33
135 -7 369 72 184 61 194 64 236 69 17 1 31 3 33 4 1 2 16 3 32 4 29 1 30 0
30 -45 0 -46 -1 -47 -37 -54 -88 -16 -343 -110 -343 -127 0 -4 -13 -8 -30 -8
-16 0 -30 -4 -30 -10 0 -5 -9 -10 -20 -10 -11 0 -28 -9 -37 -20 -10 -11 -25
-20 -34 -20 -9 0 -22 -7 -29 -15 -7 -8 -16 -12 -21 -9 -8 5 -80 -42 -87 -57
-1 -4 -30 -17 -63 -30 -52 -20 -64 -30 -77 -61 -17 -38 -37 -49 -44 -26 -3 7
-7 5 -11 -6 -4 -10 -3 -15 3 -11 6 3 10 1 10 -4 0 -6 -9 -11 -20 -11 -11 0
-20 -4 -20 -10 0 -6 30 -10 69 -10 l70 0 -10 -32 c-14 -49 -11 -64 15 -95 20
-24 30 -27 71 -25 68 3 78 14 73 84 -4 52 -2 57 16 60 12 2 130 2 263 0 241
-3 243 -3 248 -25 9 -37 23 -801 15 -811 -5 -4 -75 -1 -157 8 -264 28 -328 29
-568 11 -126 -9 -233 -21 -236 -27 -7 -11 -26 16 -72 108 -19 39 -61 108 -91
154 -31 46 -56 85 -56 86 0 2 10 -1 23 -6 60 -26 377 -107 377 -96 0 2 -21 16
-46 31 -45 26 -134 99 -331 268 -79 68 -99 92 -139 166 -113 208 -271 411
-439 560 l-60 54 90 -7 c91 -7 335 -41 380 -52 82 -20 -61 73 -237 155 -193
90 -475 187 -599 207 -22 4 -39 9 -39 11 0 3 22 31 48 62 89 104 182 243 182
272 0 16 -28 10 -34 -9 -7 -21 -154 -110 -251 -151 -38 -16 -112 -38 -164 -48
-90 -19 -97 -19 -166 -2 -162 38 -304 52 -545 53 l-235 1 -90 -48 c-49 -26
-123 -72 -162 -102 -40 -30 -73 -50 -73 -46 0 13 134 136 220 200 132 101 288
185 445 240 95 33 327 98 358 100 17 1 17 0 3 -15z m1600 -411 c26 5 33 -7 9
-17 -8 -3 -15 -18 -15 -33 0 -26 -1 -26 -15 -7 -8 10 -14 35 -14 54 1 19 3 27
6 17 4 -14 12 -18 29 -14z m-2977 -130 c110 -119 128 -143 108 -143 -8 0 -40
31 -70 69 -58 72 -61 75 -116 134 -19 20 -30 37 -24 37 7 0 52 -44 102 -97z
m2981 21 c0 -8 5 -12 10 -9 6 3 10 -1 10 -9 0 -9 -4 -16 -10 -16 -5 0 -10 -13
-10 -30 0 -30 -13 -40 -25 -20 -10 16 5 111 16 104 5 -3 9 -12 9 -20z m37 -36
c-3 -8 -6 -5 -6 6 -1 11 2 17 5 13 3 -3 4 -12 1 -19z m-32 -171 c-20 -11 -29
-3 -21 19 5 13 9 14 22 3 14 -11 14 -13 -1 -22z m-2155 -243 c-25 -8 -49 -20
-55 -27 -12 -15 -65 -49 -65 -42 0 3 -10 -4 -22 -15 -13 -11 -63 -49 -112 -83
-49 -34 -110 -81 -135 -104 l-46 -43 65 32 c184 87 442 159 620 173 95 7 95 5
-8 -53 -64 -36 -181 -123 -258 -190 -59 -52 -50 -47 86 42 114 75 362 208 341
182 -7 -8 -21 -18 -30 -21 -29 -9 -151 -159 -217 -266 -34 -54 -73 -131 -86
-171 -53 -150 -88 -266 -108 -351 -19 -80 -60 -329 -60 -367 0 -13 -1 -13 -10
0 -15 21 -3 199 22 343 11 65 18 121 15 124 -23 22 -241 -531 -263 -666 -16
-100 -28 -30 -43 244 l-7 130 -4 -95 c-1 -52 -2 -138 -2 -190 1 -65 -1 -87 -7
-70 -15 43 -12 342 4 452 19 126 42 231 61 281 8 20 14 41 14 44 0 17 -29 -36
-47 -87 -12 -30 -52 -138 -91 -240 -71 -187 -84 -235 -212 -800 -27 -118 -55
-233 -63 -255 l-14 -40 -7 55 c-10 92 -27 370 -28 465 l-1 90 -33 -140 c-18
-77 -36 -157 -39 -179 -4 -21 -8 -36 -9 -35 -20 22 -32 574 -16 684 12 80 38
185 59 239 6 16 9 31 7 34 -8 7 -85 -36 -143 -79 -78 -58 -175 -151 -223 -214
-24 -31 -45 -54 -47 -52 -6 6 65 170 118 272 193 376 539 744 871 927 111 61
156 76 228 76 l45 0 -45 -14z m2290 -1214 c0 -10 27 -7 37 5 4 4 2 5 -4 1 -7
-4 -13 -2 -13 3 0 15 19 14 36 -3 11 -11 11 -16 1 -19 -6 -3 -2 -6 11 -6 19
-1 22 -6 22 -41 0 -36 -3 -40 -24 -40 -30 0 -40 -13 -27 -37 5 -10 12 -27 16
-37 3 -10 8 -16 11 -13 3 3 -1 19 -9 36 -9 18 -11 33 -6 37 5 3 9 -2 9 -12 0
-13 3 -14 15 -4 10 9 15 9 15 1 0 -6 -4 -11 -10 -11 -5 0 -10 -7 -10 -16 0 -8
5 -12 11 -8 8 5 8 1 0 -14 -13 -25 -14 -65 -2 -77 11 -12 18 -81 10 -90 -4 -3
-14 27 -23 67 -14 59 -48 151 -103 285 -3 7 3 10 16 6 12 -3 21 -9 21 -13z
m117 -87 c-3 -10 -5 -4 -5 12 0 17 2 24 5 18 2 -7 2 -21 0 -30z m-106 -173
c17 -30 40 -67 50 -81 18 -26 18 -27 -1 -32 -20 -5 -29 -37 -10 -37 5 0 7 -7
4 -15 -4 -8 -1 -15 6 -15 7 0 9 -8 5 -19 -7 -24 9 -35 24 -17 9 11 72 15 110
7 2 -1 -2 -7 -8 -14 -6 -8 -8 -17 -5 -20 4 -3 15 4 25 16 16 19 18 20 19 5 0
-10 5 -18 11 -18 6 0 9 7 5 15 -3 8 -2 15 2 16 4 0 16 2 27 4 14 3 7 -8 -24
-38 -24 -23 -51 -42 -60 -44 -14 -2 -27 -18 -19 -25 6 -6 -27 -36 -34 -31 -5
2 -8 -6 -8 -19 0 -17 3 -19 9 -9 6 10 13 11 27 3 14 -8 23 -7 36 5 24 22 40 7
32 -32 -3 -20 -1 -35 5 -40 18 -10 1 -26 -20 -20 -12 4 -21 1 -25 -9 -3 -9
-12 -16 -19 -16 -7 0 -22 -16 -34 -35 -11 -19 -27 -35 -36 -35 -24 0 -29 28
-10 50 10 11 16 21 14 23 -47 28 -49 28 -49 2 0 -25 -14 -31 -63 -27 -17 2
-17 1 -3 -14 21 -21 20 -35 -1 -28 -17 5 -17 5 0 -6 9 -6 17 -21 17 -33 -1
-28 -25 -61 -39 -52 -6 3 -11 1 -11 -4 0 -6 6 -12 13 -13 6 0 17 -2 22 -2 6
-1 16 -5 23 -10 7 -4 20 -2 29 6 12 9 15 9 9 1 -5 -9 -1 -13 11 -13 31 -1 63
-34 69 -70 7 -46 -10 -90 -35 -90 -18 0 -20 5 -15 48 5 54 -15 94 -39 74 -7
-6 -25 -9 -40 -7 l-27 5 33 -35 c17 -19 32 -46 32 -60 1 -21 -4 -25 -27 -25
-54 0 -82 -14 -74 -37 5 -12 3 -13 -6 -5 -20 16 -46 -9 -50 -49 -2 -20 -8 -33
-15 -32 -12 3 -18 -17 -14 -41 1 -5 -6 -6 -15 -2 -13 5 -15 2 -10 -21 5 -19 4
-23 -3 -14 -7 11 -10 10 -15 -5 -3 -10 -4 -5 -2 13 1 18 -1 30 -5 27 -23 -14
-31 458 -10 591 7 44 16 145 20 225 l6 145 41 -55 c46 -62 113 -177 134 -230
31 -79 41 -68 30 34 -11 90 -35 191 -79 321 l-30 90 29 -35 c16 -19 43 -60 61
-90z m-1681 -157 c-10 -38 -29 -111 -43 -163 -21 -78 -73 -235 -82 -248 -2 -2
-47 8 -101 22 -126 32 -289 62 -379 71 -38 4 -74 10 -78 12 -11 7 108 89 229
159 90 53 433 211 461 213 7 1 5 -20 -7 -66z m175 -333 c-19 -85 -38 -157 -43
-162 -4 -4 -50 9 -102 28 -52 19 -101 37 -108 40 -9 2 6 20 38 45 28 22 95 84
148 137 61 61 98 91 100 82 1 -8 -13 -85 -33 -170z m1975 117 c20 -44 50 -49
50 -8 0 16 5 33 10 36 6 3 10 -5 10 -19 0 -14 4 -27 9 -30 5 -4 5 -21 -2 -42
-11 -36 -11 -36 -28 -15 -10 12 -27 21 -39 21 -15 0 -25 11 -36 35 -24 57 0
78 26 22z m430 23 c36 -19 32 -100 -5 -100 -20 0 -45 40 -45 71 0 39 15 48 50
29z m-542 -26 c13 -28 6 -74 -12 -74 -6 0 -22 9 -36 20 l-25 19 23 16 c12 9
22 23 22 31 0 22 16 16 28 -12z m287 7 c8 -27 -4 -50 -32 -57 -34 -9 -40 2
-12 25 20 16 21 21 10 35 -12 14 -11 16 7 16 11 0 23 -8 27 -19z m129 -42 c-3
-5 -14 -9 -25 -9 -10 0 -19 4 -19 9 0 5 11 9 25 9 13 0 22 -4 19 -9z m-739
-169 c3 -5 2 -10 -4 -10 -5 0 -13 5 -16 10 -3 6 -2 10 4 10 5 0 13 -4 16 -10z
m541 -52 c5 -13 7 -26 6 -30 -1 -4 7 -30 18 -58 25 -63 25 -65 -1 -89 -40 -37
-74 5 -57 68 8 26 6 43 -7 72 -10 20 -14 42 -11 48 12 19 44 12 52 -11z m102
-59 c14 -27 12 -89 -3 -90 -8 0 -33 83 -35 114 0 17 25 0 38 -24z m-455 -44
c2 -27 8 -60 12 -72 5 -17 3 -23 -7 -23 -41 0 -68 95 -40 138 20 30 29 18 35
-43z m687 16 c0 -52 -48 -70 -68 -25 l-12 25 -29 -20 c-16 -12 -34 -21 -41
-21 -14 0 -49 40 -50 58 0 18 48 15 58 -5 9 -15 12 -14 41 6 17 12 34 20 39
17 4 -2 14 -1 22 4 20 12 40 -7 40 -39z m-544 -21 c1 -42 -2 -58 -10 -50 -5 5
-20 10 -33 10 -16 0 -21 4 -16 16 3 9 -3 21 -16 30 -22 16 -29 44 -10 44 6 0
20 -5 31 -11 16 -9 24 -7 36 5 9 9 16 16 17 16 0 0 1 -27 1 -60z m139 20 c7
-12 -10 -20 -50 -23 -34 -2 -45 20 -13 26 42 8 57 7 63 -3z m-585 -164 c0 -3
-4 -8 -10 -11 -5 -3 -10 -1 -10 4 0 6 5 11 10 11 6 0 10 -2 10 -4z m914 -83
c19 -25 19 -26 1 -39 -11 -8 -14 -14 -8 -14 7 0 19 8 29 18 17 16 17 16 10 -8
-9 -28 -9 -37 0 -98 10 -67 -25 -93 -67 -51 -15 15 -20 30 -17 50 3 16 4 29 2
29 -1 0 -15 -7 -30 -15 -43 -22 -61 -18 -78 16 -12 24 -13 35 -5 45 15 18 24
18 44 -2 13 -13 21 -14 40 -6 21 10 23 14 12 41 -21 56 31 83 67 34z m-539
-48 c0 -13 -8 -21 -22 -23 -13 -2 -23 -7 -23 -11 0 -14 26 -31 34 -24 4 4 4 0
1 -9 -4 -9 -2 -19 4 -23 31 -19 -11 -85 -54 -85 -11 0 -37 8 -57 19 -26 13
-39 15 -42 7 -3 -6 -4 -4 -3 4 1 8 -8 29 -21 47 -30 42 -28 53 11 53 25 0 37
-6 47 -25 7 -13 17 -22 21 -19 5 3 6 -2 3 -10 -4 -10 2 -17 21 -22 36 -9 41 0
16 27 -12 13 -22 28 -22 33 -1 6 -3 22 -5 36 -5 40 2 46 47 46 37 -1 44 -4 44
-21z m265 6 c0 -11 -4 -22 -9 -26 -12 -7 -7 -34 13 -74 20 -38 20 -41 -3 -41
-11 0 -28 11 -39 25 -21 26 -31 22 -45 -17 -9 -26 -26 -22 -33 7 -4 17 -1 32
10 44 22 24 20 41 -4 41 -13 0 -20 7 -20 20 0 26 24 36 54 22 16 -7 27 -6 41
4 26 19 35 18 35 -5z m-182 -60 c21 -13 25 -77 6 -95 -25 -26 -36 -18 -33 24
2 21 0 42 -4 46 -23 23 3 43 31 25z m252 -6 c7 -8 18 -15 26 -15 22 0 26 -20
10 -45 -22 -34 -54 -33 -62 3 -4 15 -13 37 -20 50 -14 20 -13 22 10 22 13 0
29 -7 36 -15z m-4266 -60 c-3 -8 -14 -17 -25 -20 -17 -6 -23 -17 -20 -37 0 -4
-7 -4 -16 -1 -13 5 -9 13 23 40 45 38 45 38 38 18z m2356 -19 c0 -13 -98 -56
-126 -56 -53 0 -40 15 34 38 67 21 92 26 92 18z m2119 -53 c2 -2 -5 -3 -16 -3
-11 0 -20 7 -20 15 0 12 3 12 16 3 9 -7 18 -14 20 -15z m-19 -21 c0 -5 -13 -7
-30 -4 -27 4 -30 1 -30 -22 0 -23 -4 -26 -35 -26 -19 0 -35 -3 -35 -7 0 -10
-49 -33 -68 -33 -7 0 -12 6 -9 13 2 6 10 11 17 9 8 -2 10 3 6 13 -3 10 -2 13
4 10 15 -9 71 18 66 32 -3 6 5 14 17 16 40 8 97 7 97 -1z m120 -102 c0 -8 -63
-31 -68 -25 -3 3 7 16 23 31 22 20 30 23 36 12 5 -7 9 -15 9 -18z m-825 -30
c4 -6 -6 -10 -22 -9 -25 0 -26 1 -8 9 11 5 21 9 22 9 1 1 5 -3 8 -9z m-185
-50 c0 -5 -2 -10 -4 -10 -3 0 -8 5 -11 10 -3 6 -1 10 4 10 6 0 11 -4 11 -10z
m80 -190 c0 -5 -4 -10 -10 -10 -5 0 -10 5 -10 10 0 6 5 10 10 10 6 0 10 -4 10
-10z m430 6 c0 -3 -4 -8 -10 -11 -5 -3 -10 -1 -10 4 0 6 5 11 10 11 6 0 10 -2
10 -4z m-9 -153 c-8 -15 -10 -15 -11 -2 0 17 10 32 18 25 2 -3 -1 -13 -7 -23z
m164 -3 c-9 -14 -70 -23 -110 -16 -57 11 -30 26 46 26 42 0 68 -4 64 -10z
m-3251 -1099 l24 -10 -60 -111 c-33 -61 -58 -113 -55 -116 9 -9 53 42 49 57
-3 12 -2 12 6 0 12 -16 4 -44 -9 -35 -5 3 -9 1 -9 -5 0 -5 4 -12 9 -15 13 -8
54 61 45 75 -4 8 -3 9 4 5 6 -4 18 5 26 21 8 15 15 24 15 18 0 -5 -22 -46 -49
-90 -28 -44 -50 -85 -50 -91 0 -6 -9 -19 -19 -28 -18 -17 -21 -16 -63 29 -23
26 -46 53 -50 60 -4 7 14 48 41 96 27 46 57 99 67 116 20 34 36 39 78 24z m46
-67 c0 -8 -4 -13 -9 -9 -6 3 -14 -3 -20 -12 -6 -10 -11 -15 -11 -10 0 11 24
47 32 47 5 0 8 -7 8 -16z m135 -388 c16 -23 15 -27 -24 -89 -23 -35 -41 -68
-41 -73 0 -10 -12 -21 -64 -62 l-29 -23 -14 38 c-12 37 -12 39 15 60 l27 23 8
-25 c13 -38 27 -30 27 14 0 22 5 43 11 47 6 3 22 31 35 60 13 30 26 54 29 54
2 0 12 -11 20 -24z m64 -90 c-2 -2 -13 8 -23 22 l-19 27 24 -22 c12 -12 21
-24 18 -27z m-20 -10 c-3 -3 -21 -16 -41 -30 -24 -16 -35 -19 -31 -10 3 8 20
21 37 29 35 15 41 17 35 11z m598 -150 c1 0 3 -23 5 -50 3 -48 3 -49 -35 -62
-62 -22 -176 -82 -257 -136 -53 -36 -68 -42 -50 -24 14 15 38 34 55 42 37 18
87 58 63 50 -11 -3 -15 -1 -12 7 2 7 14 13 24 14 12 1 18 -3 14 -9 -4 -6 1 -6
14 1 28 15 35 28 17 34 -9 4 -12 1 -8 -9 3 -7 0 -14 -6 -14 -6 0 -11 7 -11 15
0 8 -3 14 -7 14 -25 -4 -34 3 -28 21 5 14 2 20 -9 20 -9 0 -16 5 -16 10 0 6 5
10 10 10 6 0 10 6 10 13 0 7 12 25 26 41 27 28 27 28 113 21 47 -4 87 -8 88
-9z m121 -43 c3 -28 0 -33 -17 -33 -15 0 -21 7 -22 23 -1 21 -1 21 -9 -3 l-7
-25 -12 28 c-17 43 -14 48 27 45 34 -3 37 -6 40 -35z m149 -8 c45 -47 56 -72
26 -60 -10 4 -47 15 -83 24 -62 15 -65 17 -68 49 -3 32 -3 32 39 32 37 0 48
-6 86 -45z m139 -5 c110 -32 154 -49 154 -59 0 -9 -68 -61 -80 -61 -6 0 -38
13 -73 28 -43 20 -74 43 -100 75 -47 57 -42 58 99 17z m1154 -60 c11 -6 24
-29 30 -51 12 -43 6 -64 -10 -39 -8 13 -10 12 -10 -2 0 -9 5 -20 10 -23 6 -3
10 -12 10 -18 -1 -15 -59 51 -70 79 -10 25 -2 64 12 64 5 0 18 -5 28 -10z
m-1316 -9 c4 -5 -3 -7 -14 -4 -23 6 -26 13 -6 13 8 0 17 -4 20 -9z m784 -53
c5 -7 28 -69 51 -136 42 -125 141 -333 206 -430 37 -57 43 -71 22 -53 -8 6
-16 8 -20 5 -9 -9 -52 64 -149 252 -89 172 -122 253 -137 332 -9 43 4 57 27
30z m452 -110 c19 -29 54 -74 78 -100 24 -26 41 -52 37 -58 -10 -16 -47 19
-40 37 2 8 1 12 -4 8 -16 -9 -126 139 -116 156 9 13 9 13 45 -43z m-1850 -12
c0 -3 -15 -14 -32 -26 l-33 -22 30 26 c31 27 35 29 35 22z m1676 -59 c6 -7 14
-31 18 -54 6 -39 4 -43 -15 -43 -11 0 -34 9 -50 21 -22 15 -29 28 -29 53 0 18
3 36 7 40 10 9 55 -2 69 -17z m164 -38 c0 -5 5 -7 12 -3 6 4 9 3 6 -2 -3 -5 8
-30 26 -55 90 -135 141 -206 157 -225 11 -11 22 -42 25 -70 3 -27 9 -67 14
-89 5 -22 7 -41 5 -43 -11 -11 -117 117 -157 189 -51 92 -122 275 -114 296 6
16 26 17 26 2z m334 -228 c28 -17 51 -38 52 -47 1 -8 -3 -13 -9 -11 -7 2 -12
9 -12 15 0 5 -4 14 -9 19 -5 5 -6 3 -2 -4 14 -24 -7 -13 -73 41 -118 95 -165
142 -157 155 6 9 31 -10 85 -62 42 -41 98 -88 125 -106z m-341 69 c4 -14 -4
-2 -17 25 -14 28 -25 57 -25 65 0 17 33 -52 42 -90z m-383 19 c7 -17 24 -47
38 -67 13 -20 74 -133 134 -252 61 -118 117 -223 126 -232 14 -17 13 -18 -8
-18 -28 0 -92 38 -84 51 3 5 1 9 -4 9 -9 0 -32 43 -32 60 0 20 18 9 29 -18 7
-16 28 -43 47 -61 l35 -33 -17 35 c-10 22 -22 33 -30 30 -8 -3 -14 0 -14 6 0
6 5 11 10 11 6 0 10 4 10 10 0 5 -6 7 -14 4 -7 -3 -16 2 -20 11 -3 9 -2 13 4
10 6 -3 10 1 10 10 0 9 -4 14 -9 11 -5 -3 -8 2 -7 12 0 9 -4 16 -11 15 -8 -2
-10 4 -6 14 4 11 3 14 -5 9 -8 -5 -10 -1 -6 11 5 15 4 16 -6 3 -10 -13 -11
-13 -6 3 7 23 -3 49 -17 40 -6 -3 -7 -1 -3 6 4 7 2 10 -5 9 -6 -2 -14 3 -17
11 -3 8 0 11 7 7 6 -4 11 -3 11 3 0 14 -18 23 -22 11 -2 -6 -9 0 -17 12 -13
22 -13 22 4 8 16 -13 17 -12 13 5 -2 13 -10 19 -23 17 -16 -2 -17 -1 -5 7 12
8 11 14 -10 36 -21 22 -21 25 -5 19 17 -7 17 -4 -5 27 -32 46 -34 48 -27 21 3
-13 1 -20 -5 -16 -5 3 -8 15 -5 25 3 10 1 22 -4 25 -5 3 -9 0 -9 -5 0 -6 -9
-11 -21 -11 -15 0 -19 5 -14 19 7 22 -23 38 -39 20 -8 -9 -8 -10 2 -5 6 4 12
3 12 -3 0 -6 -12 -8 -30 -4 -20 3 -30 1 -30 -6 0 -7 -4 -9 -10 -6 -5 3 -10 2
-10 -4 0 -5 6 -12 13 -15 9 -5 9 -7 0 -12 -19 -8 -3 -34 21 -34 17 0 18 2 6
10 -13 8 -12 10 3 10 10 0 17 -8 17 -19 0 -14 -5 -18 -20 -14 -11 3 -20 1 -20
-5 0 -6 8 -10 18 -9 25 1 112 -32 112 -44 0 -5 7 -9 15 -9 9 0 12 6 9 15 -4 8
-1 15 6 15 6 0 10 -8 8 -18 -1 -10 11 -35 28 -55 45 -55 98 -157 81 -157 -8 0
-22 18 -32 40 -10 22 -26 47 -36 56 -10 9 -16 21 -12 27 3 5 1 7 -5 3 -10 -6
-27 10 -27 27 0 4 -3 6 -7 5 -3 -2 -17 7 -30 18 -25 23 -115 57 -129 48 -5 -2
-11 5 -14 18 -3 13 -12 55 -20 93 -9 39 -18 78 -21 87 -4 12 -1 16 8 13 7 -2
38 2 68 9 30 8 58 14 61 15 4 1 12 -13 19 -30z m-30 -103 c0 -2 -7 -7 -16 -10
-8 -3 -12 -2 -9 4 6 10 25 14 25 6z m58 -37 c9 -12 9 -16 -1 -16 -7 0 -14 9
-14 20 -1 11 -1 18 0 16 2 -2 8 -11 15 -20z m-44 -20 c7 6 17 5 29 -4 13 -9
15 -15 7 -20 -7 -4 -16 -3 -22 3 -6 6 -17 8 -24 5 -9 -3 -14 2 -13 13 0 12 3
14 6 6 3 -8 9 -10 17 -3z m475 -29 c11 -24 11 -24 -3 -6 -9 11 -16 24 -16 30
0 12 5 7 19 -24z m461 -87 c159 -94 165 -99 337 -256 92 -83 198 -180 237
-215 92 -81 151 -187 210 -380 l8 -23 -123 3 -123 3 -92 120 c-109 141 -224
262 -385 403 l-117 102 -52 158 c-29 86 -55 164 -58 172 -4 10 5 7 29 -8 19
-13 77 -48 129 -79z m-429 40 c13 -16 12 -17 -3 -4 -10 7 -18 15 -18 17 0 8 8
3 21 -13z m-503 -27 c26 -13 61 -39 78 -58 36 -39 79 -137 65 -151 -5 -5 -12
-4 -16 4 -5 8 -4 10 3 5 15 -9 15 -3 0 29 l-12 26 -14 -23 c-10 -18 -12 -18
-7 -3 4 11 9 29 12 40 4 17 3 18 -7 5 -9 -12 -11 -10 -6 11 4 18 0 31 -11 40
-14 12 -16 12 -11 -1 4 -12 -4 -15 -36 -17 l-41 -1 33 9 c17 5 32 16 32 24 0
18 -16 20 -24 3 -3 -7 -3 -3 0 10 4 15 1 22 -9 22 -9 0 -17 -6 -20 -12 -2 -7
-8 -9 -13 -5 -5 4 -2 12 5 16 10 6 10 10 1 16 -14 9 -40 -24 -33 -42 3 -7 0
-13 -6 -13 -14 0 -15 37 -1 45 6 3 10 12 9 18 0 9 -2 9 -6 0 -2 -7 -9 -13 -14
-13 -4 0 -6 7 -3 15 5 11 2 13 -10 9 -11 -4 -13 -11 -7 -22 4 -10 16 -60 26
-112 10 -52 22 -99 27 -105 4 -5 8 -17 8 -28 0 -10 4 -16 9 -13 5 3 8 -12 7
-33 l-1 -39 28 24 c37 32 42 30 45 -12 1 -22 -2 -33 -8 -29 -6 4 -8 10 -5 15
3 4 -2 13 -9 19 -17 14 -29 0 -20 -23 4 -9 0 -18 -8 -21 -15 -6 -13 -49 2 -70
5 -5 11 -30 13 -55 7 -56 26 -110 39 -110 5 0 7 -9 3 -19 -8 -28 5 -73 20 -67
18 6 35 -13 27 -33 -5 -14 -4 -14 11 -2 9 7 17 19 17 27 0 19 36 36 73 33 62
-4 70 -1 65 26 -3 14 -2 25 2 25 7 0 18 -34 77 -227 9 -29 18 -53 20 -53 10 0
-56 294 -72 320 -3 5 -1 19 5 30 9 17 14 19 26 9 19 -15 18 -33 -1 -25 -17 6
-19 -2 -6 -23 5 -7 14 -11 20 -7 7 5 9 1 5 -8 -3 -9 -10 -16 -15 -16 -4 0 -6
-7 -3 -15 4 -8 10 -15 16 -15 5 0 6 5 3 10 -3 6 -1 10 4 10 6 0 11 16 11 35 0
19 5 35 10 35 6 0 10 5 10 11 0 5 -5 7 -12 3 -7 -4 -8 -3 -4 5 10 15 -3 53
-15 46 -5 -4 -14 5 -21 20 -14 32 -33 27 -33 -8 -1 -14 -5 -30 -10 -34 -4 -4
-5 0 -2 10 4 11 1 25 -8 33 -21 22 -19 36 5 29 16 -5 19 -3 13 12 -3 10 -11
24 -16 31 -7 9 -6 11 7 6 9 -3 16 -10 16 -15 0 -4 11 -25 25 -45 14 -20 25
-34 25 -30 0 17 -41 96 -50 96 -5 0 -7 7 -3 15 7 21 18 5 67 -104 61 -136 74
-260 50 -461 -5 -41 -7 -43 -20 -25 -8 10 -14 17 -14 14 0 -2 4 -30 10 -63 5
-32 10 -89 11 -127 1 -47 6 -69 14 -69 7 0 17 -26 24 -60 7 -33 14 -60 17 -60
3 0 3 38 -1 84 -6 71 -5 84 9 89 9 4 13 13 10 22 -3 8 -1 16 5 16 6 1 16 3 21
4 6 1 15 3 20 4 6 0 20 12 32 26 12 14 28 23 35 21 8 -4 13 3 13 17 1 12 7 36
14 52 13 30 13 30 20 7 l8 -24 19 21 c10 11 19 24 19 30 0 5 5 11 11 13 6 2
12 16 12 31 l0 27 18 -22 c18 -20 38 -20 25 1 -4 5 -8 50 -10 99 -3 56 -10
101 -20 121 -25 47 -6 37 42 -23 43 -55 57 -90 110 -276 49 -170 62 -229 55
-246 -5 -13 -3 -15 7 -9 10 6 11 2 6 -19 -4 -18 -3 -25 4 -21 5 3 10 0 10 -9
0 -8 3 -23 6 -33 5 -15 4 -16 -6 -3 -10 13 -11 12 -6 -3 3 -10 6 -23 6 -28 0
-6 5 -7 11 -3 9 5 10 -1 5 -20 -4 -16 -2 -26 4 -26 7 0 9 -8 5 -21 -4 -13 -3
-19 2 -16 6 4 8 -5 6 -21 -4 -22 -2 -24 7 -12 9 12 10 7 5 -20 -5 -28 -4 -32
5 -20 10 12 11 10 6 -10 -7 -32 3 -72 17 -63 6 4 8 -2 5 -15 -4 -12 -3 -20 1
-17 7 4 71 -232 106 -385 7 -30 22 -86 33 -125 11 -38 15 -61 9 -50 -24 41
-110 115 -163 141 -31 15 -90 37 -131 48 l-76 21 -128 185 c-116 169 -131 187
-175 207 -27 13 -55 23 -63 23 -19 0 -147 69 -164 88 -19 22 -74 195 -131 408
-24 93 -70 263 -100 377 -52 193 -166 671 -166 696 0 18 38 13 88 -13z m-31
-98 c-3 -8 -6 -5 -6 6 -1 11 2 17 5 13 3 -3 4 -12 1 -19z m1319 -133 c67 -55
224 -218 224 -232 0 -4 -28 20 -62 53 -35 33 -106 98 -158 144 -52 46 -104 92
-115 103 -42 40 40 -10 111 -68z m-1212 9 c3 -8 2 -12 -4 -9 -6 3 -10 10 -10
16 0 14 7 11 14 -7z m102 -47 c27 -75 27 -74 14 -54 -10 15 -14 16 -28 5 -15
-11 -15 -11 -4 3 9 12 10 24 2 43 -5 15 -10 32 -10 38 0 18 13 0 26 -35z m-26
-14 c0 -29 -12 -24 -17 7 -2 11 2 20 7 20 6 0 10 -12 10 -27z m85 -100 c8 -20
13 -38 10 -41 -2 -3 -7 1 -9 9 -3 8 -10 26 -15 42 -15 40 -4 33 14 -10z m85
28 c0 -6 -5 -13 -12 -17 -7 -4 -8 -3 -4 4 4 7 1 12 -9 12 -9 0 -13 -4 -10 -10
3 -5 2 -10 -4 -10 -13 0 -22 15 -14 24 10 10 53 7 53 -3z m-120 -16 c0 -8 -4
-15 -10 -15 -5 0 -7 7 -4 15 4 8 8 15 10 15 2 0 4 -7 4 -15z m89 -29 c7 -8 8
-17 3 -20 -6 -3 -12 3 -15 14 -6 24 -4 25 12 6z m-228 -36 c6 0 7 -5 3 -11 -9
-15 -24 9 -22 36 1 17 1 17 5 -2 2 -13 9 -23 14 -23z m136 8 c-3 -8 -6 -5 -6
6 -1 11 2 17 5 13 3 -3 4 -12 1 -19z m97 -140 c4 -17 2 -28 -4 -28 -5 0 -10
10 -10 23 0 12 -5 29 -10 37 -7 11 -10 5 -10 -22 0 -21 -3 -38 -8 -38 -4 0 -6
18 -4 40 2 22 8 40 13 40 5 0 3 11 -3 25 -6 14 -16 25 -22 25 -6 0 -4 5 4 10
12 7 18 0 31 -38 9 -26 19 -59 23 -74z m-214 43 c6 -11 6 -22 1 -25 -5 -3 -11
5 -13 19 -6 30 -2 32 12 6z m-470 -1 c0 -5 -6 -10 -14 -10 -8 0 -18 5 -21 10
-3 6 3 10 14 10 12 0 21 -4 21 -10z m-41 -30 c10 -25 16 -28 27 -19 19 16 18
4 -2 -15 -21 -22 -41 -20 -54 4 -11 20 -5 60 8 60 4 0 13 -14 21 -30z m2152
-67 c13 -16 12 -17 -3 -4 -10 7 -18 15 -18 17 0 8 8 3 21 -13z m-1620 -26
c-10 -9 -11 -8 -5 6 3 10 9 15 12 12 3 -3 0 -11 -7 -18z m19 -21 c0 -3 -4 -8
-10 -11 -5 -3 -10 -1 -10 4 0 6 5 11 10 11 6 0 10 -2 10 -4z m-1259 -153 l24
-28 -27 24 c-15 13 -32 21 -38 19 -6 -2 17 -31 51 -66 34 -34 65 -60 69 -57 3
2 32 -26 63 -63 31 -37 89 -100 130 -141 l75 -74 -95 -91 c-118 -112 -191
-164 -313 -223 -103 -49 -164 -99 -179 -147 -6 -17 -15 -67 -21 -110 -6 -44
-12 -81 -13 -82 -2 -2 -114 102 -249 232 l-246 235 96 101 c182 190 572 497
633 498 8 0 26 -12 40 -27z m70 -85 c16 -30 3 -20 -27 20 -23 30 -24 33 -5 17
13 -11 27 -28 32 -37z m2794 2 c6 -2 -38 -6 -98 -9 l-107 -6 43 -68 c24 -37
47 -64 52 -60 4 5 5 3 1 -4 -12 -21 17 -53 46 -53 16 0 28 -4 28 -10 0 -5 -13
-10 -30 -10 -23 0 -33 7 -45 30 -9 17 -40 68 -69 113 l-53 82 111 -1 c61 0
116 -2 121 -4z m-543 -350 c36 -58 91 -153 122 -211 l57 -107 -18 -88 c-11
-56 -19 -79 -21 -61 -2 15 -9 27 -17 27 -7 0 -15 7 -19 15 -8 21 -26 19 -27
-2 -1 -32 -49 118 -108 340 -32 120 -53 212 -46 205 7 -7 41 -60 77 -118z
m-3046 -202 c30 -28 54 -54 54 -58 0 -3 -55 -37 -122 -75 -68 -38 -162 -92
-210 -121 -192 -118 -268 -155 -306 -152 l-36 3 114 84 c138 100 350 274 405
330 21 23 41 41 43 41 2 0 28 -23 58 -52z m3263 -221 c1 -5 -3 -5 -9 -2 -5 3
-10 16 -9 28 0 21 1 21 9 2 5 -11 9 -24 9 -28z m-3407 -99 c2 -68 3 -125 2
-127 -3 -3 -367 29 -372 33 -1 2 46 31 105 64 60 34 140 81 178 106 39 24 73
45 76 45 4 1 9 -54 11 -121z m3293 42 c10 -11 16 -20 13 -20 -3 0 -13 9 -23
20 -10 11 -16 20 -13 20 3 0 13 -9 23 -20z m148 -90 c4 -30 3 -38 -3 -25 -8
19 -14 83 -6 74 2 -2 6 -24 9 -49z m-2420 -125 l18 -25 -41 0 c-41 0 -52 14
-28 38 18 18 31 14 51 -13z m-458 -38 c2 -1 0 -17 -2 -34 -5 -33 -6 -33 -57
-32 -28 1 -41 4 -30 6 12 2 24 13 27 24 3 10 10 19 17 19 6 0 8 -4 5 -10 -3
-6 1 -7 9 -4 24 9 19 24 -6 25 -50 1 -143 11 -148 16 -3 3 37 3 89 -1 52 -3
95 -7 96 -9z m461 -37 c-3 -11 -9 -29 -12 -40 -4 -16 -14 -20 -46 -20 -33 0
-39 3 -34 16 3 9 9 27 12 40 5 20 12 24 46 24 35 0 39 -2 34 -20z m47 5 c-3
-9 -8 -14 -10 -11 -3 3 -2 9 2 15 9 16 15 13 8 -4z m101 -124 c20 -34 36 -71
36 -82 0 -11 -23 -44 -52 -72 -49 -50 -42 -36 15 28 15 16 27 36 27 44 0 18
-53 113 -92 166 l-30 40 30 -31 c16 -18 46 -60 66 -93z m1740 103 c3 -8 2 -12
-4 -9 -6 3 -10 10 -10 16 0 14 7 11 14 -7z m-1857 -26 c-3 -8 -6 -5 -6 6 -1
11 2 17 5 13 3 -3 4 -12 1 -19z m1884 -15 c13 -16 12 -17 -3 -4 -10 7 -18 15
-18 17 0 8 8 3 21 -13z m-1894 -60 c-3 -10 -5 -2 -5 17 0 19 2 27 5 18 2 -10
2 -26 0 -35z m-44 30 c-7 -2 -19 -2 -25 0 -7 3 -2 5 12 5 14 0 19 -2 13 -5z
m-3 -28 c3 -12 -8 -126 -16 -172 -5 -26 -11 -33 -28 -33 -20 0 -22 5 -22 43 0
23 -3 73 -8 110 l-8 69 40 -4 c22 -2 40 -7 42 -13z m-2603 -31 c-3 -3 -12 -4
-19 -1 -8 3 -5 6 6 6 11 1 17 -2 13 -5z m2640 -46 c-2 -13 -4 -5 -4 17 -1 22
1 32 4 23 2 -10 2 -28 0 -40z m2044 -7 c41 -26 112 -95 79 -76 -8 5 2 -10 23
-33 27 -31 37 -51 37 -76 0 -19 3 -41 6 -50 5 -12 0 -16 -18 -16 -22 0 -28 9
-54 88 -25 73 -37 95 -81 140 -59 59 -57 65 8 23z m-2054 -73 c-2 -13 -4 -5
-4 17 -1 22 1 32 4 23 2 -10 2 -28 0 -40z m2266 -146 c6 -28 4 -32 -16 -32
-22 0 -23 4 -24 88 l-2 87 18 -56 c10 -31 21 -70 24 -87z m-2232 78 c21 11 39
18 39 15 0 -6 -76 -45 -88 -45 -5 0 -7 12 -3 28 5 24 6 25 9 5 l3 -23 40 20z
m-88 -24 c7 -18 -1 -26 -25 -26 -11 0 -18 7 -18 20 0 23 35 28 43 6z"/>
<path d="M7490 10041 c0 -6 4 -13 10 -16 6 -3 7 1 4 9 -7 18 -14 21 -14 7z"/>
<path d="M7560 9990 c0 -5 5 -10 11 -10 5 0 7 5 4 10 -3 6 -8 10 -11 10 -2 0
-4 -4 -4 -10z"/>
<path d="M7775 9920 c-3 -5 -1 -10 4 -10 6 0 11 5 11 10 0 6 -2 10 -4 10 -3 0
-8 -4 -11 -10z"/>
<path d="M8626 7617 c3 -10 9 -15 12 -12 3 3 0 11 -7 18 -10 9 -11 8 -5 -6z"/>
<path d="M8740 7355 c-11 -13 -10 -18 6 -30 16 -12 20 -11 28 2 5 10 3 20 -6
30 -13 12 -16 12 -28 -2z"/>
<path d="M8590 7280 c0 -5 5 -10 10 -10 6 0 10 5 10 10 0 6 -4 10 -10 10 -5 0
-10 -4 -10 -10z"/>
<path d="M8530 7032 c0 -14 50 -65 57 -58 3 3 -8 20 -26 38 -17 17 -31 27 -31
20z"/>
<path d="M8490 6958 c-12 -22 -12 -22 6 -6 10 10 15 20 12 24 -4 3 -12 -5 -18
-18z"/>
<path d="M8421 6855 c0 -5 6 -18 13 -28 13 -16 14 -16 20 -1 4 9 4 19 1 22 -3
3 -5 -1 -5 -8 0 -9 -5 -7 -15 6 -8 10 -14 15 -14 9z"/>
<path d="M9500 7373 c0 -5 5 -15 10 -23 8 -12 10 -11 10 8 0 12 -4 22 -10 22
-5 0 -10 -3 -10 -7z"/>
<path d="M9187 7013 c-10 -9 -9 -43 2 -43 13 0 23 32 13 42 -5 5 -11 5 -15 1z"/>
<path d="M9480 7050 c0 -5 5 -10 11 -10 5 0 7 5 4 10 -3 6 -8 10 -11 10 -2 0
-4 -4 -4 -10z"/>
<path d="M8324 4056 c2 -18 9 -30 19 -32 13 -2 15 2 7 14 -25 45 -29 47 -26
18z"/>
<path d="M8009 3535 c5 -11 17 -29 26 -40 l16 -20 -10 20 c-5 11 -17 29 -26
40 l-16 20 10 -20z"/>
<path d="M8060 3450 c6 -11 13 -20 16 -20 2 0 0 9 -6 20 -6 11 -13 20 -16 20
-2 0 0 -9 6 -20z"/>
<path d="M8040 3839 c0 -5 4 -8 8 -5 4 2 13 -4 20 -14 9 -14 8 -19 -3 -24 -7
-2 -16 0 -19 7 -3 9 -5 9 -5 0 -1 -20 39 -37 53 -23 8 8 6 10 -9 5 -19 -6 -19
-6 -3 8 17 13 16 15 -5 35 -26 24 -37 28 -37 11z"/>
<path d="M8277 3728 c-7 -21 4 -47 18 -42 7 3 15 -2 18 -10 4 -11 1 -13 -10
-9 -12 5 -14 1 -8 -18 10 -34 24 -57 25 -41 0 7 8 4 21 -9 24 -24 18 -39 -7
-18 -13 11 -12 5 5 -29 12 -23 26 -42 31 -42 6 0 3 12 -6 28 -15 26 -15 26 2
4 9 -13 18 -35 19 -51 1 -15 17 -47 35 -72 18 -24 30 -36 27 -26 -4 11 -3 16
3 12 6 -3 10 -12 10 -20 0 -24 16 -25 18 -1 1 12 -7 27 -18 34 -15 9 -20 9
-20 0 0 -18 -10 -3 -15 23 -3 13 -12 29 -21 36 -12 9 -13 16 -5 30 10 17 10
16 11 -4 0 -12 10 -27 21 -34 21 -11 21 -10 5 12 -18 26 -21 49 -7 49 5 0 14
-13 20 -30 5 -16 15 -30 21 -30 5 0 -1 17 -14 38 -13 20 -29 36 -34 35 -6 -1
-16 5 -24 15 -12 15 -11 16 5 3 9 -7 17 -9 17 -3 0 15 -26 33 -35 24 -5 -4 -5
-2 -2 5 10 16 -25 74 -41 68 -7 -3 -10 0 -7 5 7 11 -32 80 -45 80 -5 0 -10 -6
-13 -12z m70 -120 c-3 -8 -6 -5 -6 6 -1 11 2 17 5 13 3 -3 4 -12 1 -19z"/>
<path d="M7850 3658 c0 -9 5 -20 10 -23 13 -8 13 5 0 25 -8 13 -10 13 -10 -2z"/>
<path d="M7742 3649 c2 -6 8 -10 13 -10 5 0 11 4 13 10 2 6 -4 11 -13 11 -9 0
-15 -5 -13 -11z"/>
<path d="M8029 2700 c0 -3 -2 -13 -4 -22 -2 -10 0 -20 5 -23 12 -8 22 27 10
39 -5 5 -10 8 -11 6z"/>
<path d="M7020 2225 c13 -14 26 -25 28 -25 3 0 -5 11 -18 25 -13 14 -26 25
-28 25 -3 0 5 -11 18 -25z"/>
<path d="M9111 1754 c0 -11 3 -14 6 -6 3 7 2 16 -1 19 -3 4 -6 -2 -5 -13z"/>
<path d="M403 10297 c-2 -30 -1 -31 9 -9 7 14 8 26 2 32 -6 6 -10 -2 -11 -23z"/>
<path d="M2108 10242 c-16 -9 -29 -23 -30 -32 -1 -16 -1 -19 1 -114 l1 -59 32
25 c18 14 35 38 40 53 8 31 -1 145 -11 145 -3 0 -18 -8 -33 -18z"/>
<path d="M417 10243 c-3 -5 -1 -17 4 -28 7 -17 8 -17 8 8 1 27 -4 34 -12 20z"/>
<path d="M431 10134 c0 -11 3 -14 6 -6 3 7 2 16 -1 19 -3 4 -6 -2 -5 -13z"/>
<path d="M445 9990 c3 -5 8 -10 11 -10 2 0 4 5 4 10 0 6 -5 10 -11 10 -5 0 -7
-4 -4 -10z"/>
<path d="M2122 9719 c-85 -84 -92 -93 -77 -109 12 -13 15 -45 15 -163 l0 -146
45 48 45 48 0 88 0 87 41 49 42 50 426 -1 c734 -1 1047 2 1021 10 -17 5 -19 8
-7 9 9 1 17 4 17 9 0 12 59 34 75 29 7 -3 16 -1 19 6 3 9 7 9 14 -1 7 -11 11
-10 20 1 9 10 9 14 -1 14 -6 1 -28 4 -47 7 -19 3 -364 6 -766 6 l-731 0 -23
25 c-13 14 -26 25 -29 25 -3 0 -48 -41 -99 -91z"/>
<path d="M0 9786 c0 -9 5 -16 10 -16 6 0 10 4 10 9 0 6 -4 13 -10 16 -5 3 -10
-1 -10 -9z"/>
<path d="M2308 9793 c23 -2 59 -2 80 0 20 2 1 4 -43 4 -44 0 -61 -2 -37 -4z"/>
<path d="M2448 9793 c6 -2 18 -2 25 0 6 3 1 5 -13 5 -14 0 -19 -2 -12 -5z"/>
<path d="M2523 9793 c15 -2 37 -2 50 0 12 2 0 4 -28 4 -27 0 -38 -2 -22 -4z"/>
<path d="M2618 9793 c6 -2 18 -2 25 0 6 3 1 5 -13 5 -14 0 -19 -2 -12 -5z"/>
<path d="M2678 9793 c12 -2 32 -2 45 0 12 2 2 4 -23 4 -25 0 -35 -2 -22 -4z"/>
<path d="M2763 9793 c9 -2 23 -2 30 0 6 3 -1 5 -18 5 -16 0 -22 -2 -12 -5z"/>
<path d="M2908 9793 c6 -2 18 -2 25 0 6 3 1 5 -13 5 -14 0 -19 -2 -12 -5z"/>
<path d="M3098 9793 c7 -3 16 -2 19 1 4 3 -2 6 -13 5 -11 0 -14 -3 -6 -6z"/>
<path d="M3138 9793 c6 -2 18 -2 25 0 6 3 1 5 -13 5 -14 0 -19 -2 -12 -5z"/>
<path d="M3288 9793 c12 -2 30 -2 40 0 9 3 -1 5 -23 4 -22 0 -30 -2 -17 -4z"/>
<path d="M3363 9793 c9 -2 23 -2 30 0 6 3 -1 5 -18 5 -16 0 -22 -2 -12 -5z"/>
<path d="M60 9750 c-9 -6 -10 -10 -3 -10 6 0 15 5 18 10 8 12 4 12 -15 0z"/>
<path d="M0 9725 c0 -27 9 -32 27 -14 14 14 6 39 -13 39 -8 0 -14 -10 -14 -25z"/>
<path d="M36 9692 c-3 -5 1 -15 9 -22 16 -14 20 -3 6 19 -5 8 -11 9 -15 3z"/>
<path d="M4555 9650 c-13 -6 -2 -7 30 -3 28 3 52 7 54 9 9 8 -65 2 -84 -6z"/>
<path d="M5747 9270 c10 -11 19 -20 21 -20 1 0 -2 9 -8 20 -6 11 -15 20 -20
20 -6 0 -2 -9 7 -20z"/>
<path d="M5598 9183 c6 -2 18 -2 25 0 6 3 1 5 -13 5 -14 0 -19 -2 -12 -5z"/>
<path d="M5389 8943 c-13 -16 -12 -17 4 -4 9 7 17 15 17 17 0 8 -8 3 -21 -13z"/>
<path d="M2061 8794 c0 -11 3 -14 6 -6 3 7 2 16 -1 19 -3 4 -6 -2 -5 -13z"/>
<path d="M2062 8725 c0 -16 2 -22 5 -12 2 9 2 23 0 30 -3 6 -5 -1 -5 -18z"/>
<path d="M2103 8548 l-43 -44 0 -700 c0 -532 -3 -703 -12 -712 -12 -12 -12
-50 -8 -667 0 -55 -1 -137 -3 -182 -2 -56 0 -80 7 -76 6 4 41 33 79 66 l67 59
0 115 c0 94 -2 113 -13 105 -11 -9 -13 -1 -12 45 1 33 7 59 13 61 9 3 12 73
12 253 0 197 -3 249 -12 243 -10 -6 -10 -4 0 7 14 15 17 73 3 65 -5 -3 -11 1
-15 9 -3 8 -7 286 -8 617 -2 332 -5 643 -8 691 l-5 88 -42 -43z"/>
<path d="M55 8220 c-3 -11 -2 -28 4 -37 8 -15 10 -11 11 20 0 41 -5 47 -15 17z"/>
<path d="M33 8030 l-33 -39 0 -443 c0 -442 1 -443 20 -418 51 65 50 59 48 514
l-3 425 -32 -39z"/>
<path d="M5205 7426 c-16 -8 -43 -26 -60 -41 -30 -28 -18 -22 41 20 12 9 41
19 65 24 35 7 38 9 14 10 -16 0 -43 -6 -60 -13z"/>
<path d="M2181 7214 c0 -11 3 -14 6 -6 3 7 2 16 -1 19 -3 4 -6 -2 -5 -13z"/>
<path d="M5016 7195 c-3 -9 -5 -33 -5 -53 2 -33 2 -32 9 13 8 53 6 66 -4 40z"/>
<path d="M5445 7163 c-11 -3 -24 -10 -30 -15 -7 -7 -2 -9 15 -4 14 3 31 6 38
6 6 0 12 5 12 10 0 10 -3 11 -35 3z"/>
<path d="M5368 7133 c7 -3 16 -2 19 1 4 3 -2 6 -13 5 -11 0 -14 -3 -6 -6z"/>
<path d="M5203 7068 c-11 -13 -24 -30 -28 -38 -8 -16 -6 -14 34 33 14 15 22
27 19 27 -2 0 -14 -10 -25 -22z"/>
<path d="M5419 7033 c-13 -16 -12 -17 4 -4 9 7 17 15 17 17 0 8 -8 3 -21 -13z"/>
<path d="M50 6979 c0 -20 -10 -50 -25 -71 -22 -32 -25 -48 -25 -122 0 -82 1
-85 29 -105 16 -12 31 -21 33 -21 6 0 1 340 -5 347 -4 3 -7 -9 -7 -28z"/>
<path d="M6530 6996 c19 -8 64 -25 99 -37 36 -13 76 -36 93 -53 28 -29 29 -29
23 -7 -6 18 -4 22 6 17 8 -4 6 -1 -5 8 -21 17 -165 71 -216 80 l-35 6 35 -14z"/>
<path d="M6034 6991 c4 -5 -6 -12 -22 -15 -15 -4 -41 -17 -57 -30 -25 -20 -29
-29 -28 -73 0 -28 6 -59 12 -69 6 -12 11 -14 11 -6 0 33 33 81 63 94 70 29
344 8 445 -35 l33 -14 -41 -13 -40 -13 21 -23 c27 -29 12 -38 -47 -29 l-45 6
-75 -74 c-77 -78 -120 -152 -109 -187 6 -20 62 -56 72 -47 2 3 -4 8 -15 11
-11 4 -22 16 -25 27 -4 16 2 24 28 35 19 8 44 14 56 14 28 0 91 -39 86 -54 -3
-10 -32 -28 -62 -39 -5 -3 -7 -7 -3 -11 12 -14 70 26 137 93 65 64 171 220
171 250 0 10 13 3 37 -20 21 -20 33 -27 30 -16 -9 25 3 21 45 -13 l36 -30 -2
33 c-2 19 -6 39 -10 46 -5 7 2 11 21 11 l28 1 -25 21 c-77 64 -315 144 -505
168 -100 13 -228 13 -221 1z"/>
<path d="M5330 6910 c-11 -11 -20 -32 -19 -47 1 -27 1 -26 9 5 4 18 16 39 26
47 11 8 16 15 12 15 -5 0 -17 -9 -28 -20z"/>
<path d="M5216 6890 c12 -14 24 -32 27 -40 5 -13 6 -13 6 1 1 8 -11 26 -26 40
l-28 24 21 -25z"/>
<path d="M5321 6814 c0 -11 3 -14 6 -6 3 7 2 16 -1 19 -3 4 -6 -2 -5 -13z"/>
<path d="M5260 6730 c0 -5 5 -10 11 -10 5 0 7 5 4 10 -3 6 -8 10 -11 10 -2 0
-4 -4 -4 -10z"/>
<path d="M8670 6573 c-23 -10 -41 -31 -31 -37 5 -4 11 -1 13 6 3 7 15 13 29
13 13 1 25 6 27 11 4 11 -17 15 -38 7z"/>
<path d="M5312 6530 c0 -8 8 -37 18 -65 10 -27 18 -43 18 -35 0 8 -8 38 -18
65 -10 28 -18 43 -18 35z"/>
<path d="M8246 6466 c4 -10 -2 -12 -20 -9 -16 3 -26 1 -26 -6 0 -7 4 -10 9 -6
5 3 16 -2 24 -10 21 -21 24 -19 25 15 0 17 -3 30 -8 30 -5 0 -7 -6 -4 -14z"/>
<path d="M8170 6450 c0 -5 5 -10 10 -10 6 0 10 5 10 10 0 6 -4 10 -10 10 -5 0
-10 -4 -10 -10z"/>
<path d="M8203 6423 c-13 -3 -20 -10 -17 -18 7 -16 44 -7 44 11 0 8 -1 13 -2
13 -2 -1 -13 -4 -25 -6z"/>
<path d="M8325 6420 c-18 -8 -17 -9 8 -9 15 -1 27 4 27 9 0 12 -8 12 -35 0z"/>
<path d="M0 6096 l0 -314 35 -4 34 -4 3 297 3 297 -32 21 c-18 11 -35 21 -38
21 -3 0 -5 -141 -5 -314z"/>
<path d="M8148 6388 c-16 -5 -28 -14 -28 -19 0 -6 4 -7 10 -4 5 3 18 1 29 -5
21 -10 40 3 21 15 -6 4 -8 11 -5 16 4 5 5 9 3 8 -2 0 -15 -5 -30 -11z"/>
<path d="M8286 6385 c-3 -9 0 -15 9 -15 9 0 12 6 9 15 -4 8 -7 15 -9 15 -2 0
-5 -7 -9 -15z"/>
<path d="M9591 6354 c0 -11 3 -14 6 -6 3 7 2 16 -1 19 -3 4 -6 -2 -5 -13z"/>
<path d="M278 6172 c107 -106 196 -192 199 -192 7 0 -319 322 -364 359 -15 13
59 -62 165 -167z"/>
<path d="M7998 6330 c-1 -5 -14 -11 -29 -12 -16 -1 -26 -8 -26 -20 -2 -20 10
-21 70 -12 31 6 37 11 37 30 0 19 -5 24 -24 24 -13 0 -26 -4 -28 -10z"/>
<path d="M8115 6331 c-3 -5 -1 -12 5 -16 5 -3 10 1 10 9 0 18 -6 21 -15 7z"/>
<path d="M9535 6299 c-11 -4 -34 -8 -52 -8 -54 -1 -44 -16 12 -19 41 -2 54 1
59 14 8 21 6 23 -19 13z"/>
<path d="M8080 6270 c0 -5 5 -10 11 -10 5 0 7 5 4 10 -3 6 -8 10 -11 10 -2 0
-4 -4 -4 -10z"/>
<path d="M7942 6230 c-1 -38 -9 -51 -27 -43 -8 3 -23 2 -32 -3 -25 -11 -53
-13 -53 -3 0 4 10 11 22 15 20 6 20 7 3 17 -14 7 -21 6 -30 -7 -7 -9 -22 -16
-34 -16 -12 0 -21 -6 -21 -15 0 -18 -26 -20 -33 -2 -4 10 -6 10 -6 0 -1 -8
-14 -13 -32 -13 -17 0 -28 -4 -24 -10 3 -5 -12 -12 -34 -16 -22 -3 -42 -13
-45 -20 -3 -9 -21 -14 -46 -14 -40 0 -53 -13 -25 -24 17 -6 20 -26 4 -26 -5 0
-7 5 -4 10 4 6 -5 10 -22 8 -16 -1 -34 1 -41 6 -7 4 -12 2 -12 -4 0 -7 -6 -10
-14 -7 -10 4 -16 -2 -18 -16 -2 -16 -11 -23 -31 -25 -17 -2 -25 -8 -21 -14 5
-7 2 -8 -5 -4 -14 9 -51 -20 -51 -39 0 -7 11 -16 25 -19 14 -4 25 -10 25 -15
0 -12 -29 -23 -41 -15 -5 3 -9 1 -9 -4 0 -8 -62 -42 -90 -49 -8 -2 -34 -6 -58
-9 -23 -3 -45 -11 -49 -17 -3 -6 -1 -7 5 -3 7 4 12 2 12 -3 0 -6 -7 -11 -15
-11 -27 0 -16 -16 18 -26 51 -16 355 -18 373 -3 9 7 37 12 65 10 l49 -2 0 36
c0 19 4 35 9 35 5 0 7 8 4 19 -4 14 8 27 49 54 29 20 63 45 75 56 12 12 27 21
33 21 6 0 28 18 47 40 20 22 42 40 50 40 7 0 16 7 19 15 3 8 15 17 25 20 16 5
18 10 9 21 -10 11 -5 15 29 20 42 7 80 34 47 34 -9 0 -16 7 -16 15 0 12 5 13
27 4 19 -7 28 -7 34 3 10 16 13 16 -57 22 l-61 6 -1 -30z m-302 -120 c0 -5 -8
-10 -17 -10 -15 0 -16 2 -3 10 19 12 20 12 20 0z m-246 -182 c-3 -4 -9 -8 -15
-8 -5 0 -9 4 -9 8 0 5 7 9 15 9 8 0 12 -4 9 -9z m200 -93 c-4 -8 -10 -15 -15
-15 -5 0 -9 7 -9 15 0 8 7 15 15 15 9 0 12 -6 9 -15z"/>
<path d="M2118 6166 c-36 -30 -70 -60 -74 -67 -9 -16 -14 -59 -6 -59 3 0 27
18 54 41 27 23 53 37 60 33 6 -4 8 -3 5 3 -4 6 3 22 14 37 11 14 19 35 17 47
-3 18 -11 14 -70 -35z"/>
<path d="M7658 6202 c13 -12 30 -18 37 -15 17 6 20 23 5 23 -5 0 -10 -5 -10
-10 0 -6 -12 -3 -27 6 l-28 16 23 -20z"/>
<path d="M4905 6195 c11 -9 29 -21 40 -26 l20 -10 -20 16 c-11 9 -29 21 -40
26 l-20 10 20 -16z"/>
<path d="M7630 6150 c-13 -8 -12 -10 3 -10 9 0 17 5 17 10 0 12 -1 12 -20 0z"/>
<path d="M8310 6133 c0 -18 40 -16 65 3 19 14 17 15 -22 13 -28 -2 -43 -8 -43
-16z"/>
<path d="M8430 6078 c0 -7 13 -67 30 -133 16 -66 30 -127 30 -136 0 -9 7 -20
16 -23 27 -10 74 -7 74 6 0 35 -44 275 -53 286 -5 6 -29 12 -53 12 -29 0 -44
-4 -44 -12z"/>
<path d="M8560 6062 c0 -18 61 -246 70 -262 11 -19 4 27 -24 163 -12 55 -27
102 -33 105 -7 2 -13 -1 -13 -6z"/>
<path d="M5210 5999 c14 -11 106 -74 206 -139 l181 -118 7 -134 c3 -73 13
-176 21 -228 8 -52 15 -99 15 -105 0 -5 4 -4 9 4 5 8 5 26 1 40 -14 44 -30
304 -21 341 19 79 42 105 69 78 6 -6 78 -48 159 -94 l148 -82 17 -69 c11 -41
16 -52 13 -28 -3 22 -5 50 -5 62 0 31 -26 52 -138 113 -115 63 -212 123 -212
131 0 3 11 18 25 33 25 27 26 27 52 10 15 -9 60 -45 101 -78 178 -147 222
-169 288 -141 20 8 35 18 31 21 -3 3 -15 0 -27 -6 -34 -18 -102 -3 -152 32
-74 54 -229 187 -327 282 -72 69 -84 78 -52 39 23 -28 57 -65 75 -81 l34 -30
-25 -23 c-14 -13 -38 -46 -53 -72 -22 -39 -28 -44 -32 -29 -3 11 -30 37 -59
59 -63 45 -312 204 -349 222 l-25 12 25 -22z"/>
<path d="M6140 5997 c0 -28 54 -112 78 -122 13 -5 12 -1 -5 17 -24 26 -63 89
-63 102 0 15 37 0 119 -49 66 -39 84 -55 102 -91 22 -47 37 -52 108 -38 32 7
43 24 16 24 -21 0 -101 41 -185 95 -76 49 -144 85 -160 85 -5 0 -10 -10 -10
-23z"/>
<path d="M7944 5978 c-3 -4 -4 -8 -2 -9 27 -6 38 -5 38 5 0 14 -28 17 -36 4z"/>
<path d="M7642 5868 c-19 -19 -14 -26 12 -21 16 3 23 10 19 19 -6 17 -15 18
-31 2z"/>
<path d="M7920 5860 c-8 -5 -11 -12 -7 -16 4 -4 13 -2 19 4 15 15 7 24 -12 12z"/>
<path d="M7962 5850 c-10 -17 -10 -20 3 -20 9 0 21 -12 27 -27 10 -25 12 -26
15 -7 4 23 -12 74 -24 74 -5 0 -14 -9 -21 -20z"/>
<path d="M2105 5800 l-50 -50 -3 -178 c-2 -97 -3 -208 -2 -245 0 -62 -1 -68
-18 -63 -22 7 -60 -28 -42 -39 5 -3 7 -11 4 -17 -4 -6 -9 -5 -15 3 -7 11 -11
11 -21 1 -10 -10 -10 -14 0 -21 9 -6 7 -12 -9 -27 -19 -17 -21 -18 -30 -1 -9
16 -40 17 -378 17 -299 0 -371 -3 -380 -14 -7 -9 -37 -14 -86 -15 -66 -2 -75
0 -75 16 0 16 -10 18 -89 18 l-88 0 38 -77 c22 -42 39 -88 39 -102 0 -23 4
-26 34 -26 26 0 35 5 39 21 3 12 10 18 16 14 6 -3 9 -11 6 -16 -10 -15 7 -10
28 9 19 16 20 16 9 -3 -10 -20 -8 -20 349 -20 197 0 359 3 359 7 0 3 -6 9 -12
11 -8 4 -7 6 4 6 9 1 24 4 33 8 14 5 16 2 11 -13 -5 -18 1 -19 112 -20 118 0
232 -18 232 -35 0 -5 -165 -9 -412 -9 -227 0 -503 -1 -614 -1 l-201 0 -15 -47
-15 -47 74 3 c40 2 73 8 73 13 0 5 9 9 21 9 11 0 17 -4 14 -10 -3 -5 3 -10 15
-10 11 0 23 7 26 15 4 8 11 15 16 15 6 0 8 -7 4 -15 -4 -13 9 -15 92 -15 58 0
92 4 83 9 -9 6 -5 9 14 9 19 0 23 -3 14 -9 -9 -5 16 -9 64 -9 62 0 77 3 77 15
0 8 7 15 16 15 14 0 14 -3 4 -15 -11 -13 -4 -15 55 -15 57 0 66 2 56 14 -10
11 -2 16 41 26 29 6 61 14 71 17 13 3 17 -2 17 -26 0 -17 5 -31 10 -31 6 0 10
6 10 13 0 7 11 14 25 15 28 2 34 -14 8 -21 -10 -3 3 -5 30 -6 29 -1 47 3 47
10 0 7 -9 9 -21 6 -13 -3 -19 -1 -16 6 2 6 15 13 29 14 21 1 25 -2 21 -18 -5
-18 1 -19 118 -20 68 -1 128 -1 133 0 4 1 23 -9 40 -23 39 -29 105 -58 117
-50 5 3 6 -1 3 -9 -3 -8 -1 -18 5 -22 11 -6 13 -3 15 37 0 13 9 24 19 26 9 2
17 8 17 13 0 19 20 8 34 -18 12 -23 15 -24 16 -9 0 11 -8 28 -17 38 -15 17
-15 20 -3 28 8 6 20 10 25 10 6 0 4 -4 -4 -9 -12 -8 -13 -12 -1 -26 7 -9 19
-13 27 -11 8 3 26 -7 39 -22 16 -17 24 -21 20 -10 -6 20 10 34 17 16 4 -8 6
-7 6 4 1 9 -3 19 -9 23 -12 7 -2 32 16 39 11 4 12 2 4 -14 -7 -12 -7 -21 0
-25 5 -3 10 0 10 8 0 14 40 37 65 37 8 0 15 5 15 11 0 5 4 8 9 5 5 -3 11 1 15
9 3 8 2 14 -2 14 -19 -3 -25 2 -12 11 10 7 -31 10 -125 10 -120 0 -182 9 -165
23 21 16 112 27 241 28 94 1 140 4 119 9 l-35 7 38 2 c20 0 37 -3 37 -9 0 -5
7 -10 16 -10 8 0 12 5 9 10 -3 6 0 10 7 10 49 2 164 13 167 16 6 5 -27 34 -39
34 -7 0 -5 6 4 16 9 8 16 21 16 27 0 8 -3 8 -9 -1 -7 -11 -9 -11 -14 2 -3 8
-2 16 3 18 5 2 6 9 2 15 -6 9 -79 13 -289 13 l-281 1 -27 35 c-15 20 -43 52
-63 71 l-36 36 0 279 c-1 153 -3 278 -6 278 -3 0 -28 -23 -55 -50z m-991 -896
c23 -23 19 -40 -4 -19 -11 10 -20 22 -20 27 0 12 7 10 24 -8z m433 -21 c3 -7
-4 -9 -16 -6 -13 3 -21 1 -21 -8 0 -7 -3 -9 -6 -6 -9 9 17 38 29 34 6 -2 12
-8 14 -14z m448 -13 c3 -5 1 -10 -4 -10 -6 0 -11 5 -11 10 0 6 2 10 4 10 3 0
8 -4 11 -10z m35 0 c0 -5 -5 -10 -11 -10 -5 0 -7 5 -4 10 3 6 8 10 11 10 2 0
4 -4 4 -10z m130 -15 c-6 -8 -19 -11 -27 -8 -14 5 -14 8 2 19 22 16 40 8 25
-11z m160 -7 c0 -4 -7 -5 -15 -2 -9 4 -15 0 -15 -10 0 -9 -2 -16 -4 -16 -2 0
-11 -3 -20 -6 -12 -5 -16 0 -15 17 0 13 3 18 6 12 6 -16 23 -17 23 -3 0 20 24
39 32 26 4 -6 8 -14 8 -18z m123 18 c9 1 17 -2 17 -7 0 -5 -4 -9 -10 -9 -5 0
-10 -5 -10 -11 0 -5 5 -7 10 -4 16 10 11 -1 -7 -16 -11 -10 -14 -10 -9 -1 4 6
2 12 -3 12 -6 0 -11 8 -11 18 -1 15 -2 15 -15 -2 -8 -11 -15 -14 -15 -7 0 16
24 41 30 31 3 -4 13 -6 23 -4z m-215 -41 c0 -27 -13 -34 -21 -11 -3 7 0 19 6
25 15 15 15 15 15 -14z"/>
<path d="M5552 5708 c-7 -7 -12 -19 -11 -27 0 -14 1 -14 6 -1 4 8 13 20 22 27
9 7 11 13 6 13 -6 0 -16 -5 -23 -12z"/>
<path d="M5945 5510 c-17 -19 -17 -19 9 -7 14 7 26 15 26 20 0 13 -17 7 -35
-13z"/>
<path d="M572 5340 c25 -36 55 -85 66 -110 11 -25 25 -56 31 -70 l11 -25 -5
27 c-3 15 -1 36 4 45 14 25 44 124 39 128 -2 2 -14 -26 -27 -62 l-24 -65 -43
74 c-24 41 -56 85 -71 99 -18 17 -13 4 19 -41z"/>
<path d="M6041 5385 c-1 -30 10 -65 21 -65 12 0 347 -255 420 -320 31 -28 82
-90 114 -138 75 -115 155 -224 161 -218 6 6 -140 224 -203 302 -34 43 -106
105 -244 208 -235 176 -250 189 -260 224 -6 20 -8 22 -9 7z"/>
<path d="M0 5319 c0 -4 19 -13 43 -20 87 -23 142 -46 139 -57 -1 -7 2 -12 8
-12 5 0 10 -7 10 -15 0 -19 3 -19 -102 7 -49 11 -91 18 -95 15 -11 -11 1 -17
63 -28 32 -6 60 -12 62 -14 2 -2 -4 -14 -12 -28 -15 -22 -20 -23 -64 -16 -26
4 -49 5 -51 3 -13 -12 24 -23 108 -33 97 -11 129 -26 118 -55 -5 -13 -20 -15
-82 -11 -42 2 -92 7 -111 11 -30 5 -34 4 -34 -15 0 -16 6 -21 28 -22 l27 -1
-25 -7 c-24 -6 -25 -11 -27 -84 -2 -76 7 -101 30 -78 6 6 7 14 3 18 -4 4 -12
1 -17 -7 -12 -17 -6 4 21 85 17 49 18 50 65 57 26 4 52 11 58 17 5 5 15 7 21
5 6 -2 -22 -38 -61 -79 -40 -41 -75 -86 -79 -99 -4 -17 -11 -22 -25 -19 -18 5
-19 -5 -19 -390 l0 -395 50 -225 c27 -123 56 -263 65 -311 8 -48 22 -115 31
-149 9 -34 26 -121 39 -193 13 -73 31 -158 39 -190 8 -33 24 -122 36 -198 11
-76 23 -142 25 -146 2 -3 7 -49 10 -101 3 -52 11 -119 16 -149 5 -30 14 -172
20 -315 5 -143 12 -267 16 -275 3 -8 5 -31 4 -51 -1 -19 7 -174 19 -343 18
-255 19 -310 8 -323 -12 -15 -9 -16 27 -10 22 4 46 7 53 7 8 0 11 9 8 23 -3
12 -10 128 -17 257 -8 150 -17 242 -25 255 -8 13 -12 52 -11 107 1 53 -2 86
-8 85 -12 -2 -7 47 6 51 5 2 9 11 9 20 0 15 -2 15 -10 2 -8 -12 -10 -10 -11
10 0 14 -1 41 -2 60 -1 19 -6 38 -11 42 -6 4 -5 12 2 21 8 9 10 35 7 73 -9 98
-11 353 -3 348 5 -3 8 -12 8 -20 0 -16 5 -17 28 -5 9 5 51 12 92 16 92 9 101
10 225 29 416 63 1097 148 1139 143 21 -3 45 -11 52 -19 7 -7 25 -69 39 -138
152 -733 142 -652 95 -770 -54 -136 -70 -151 -70 -66 0 33 -5 58 -14 65 -19
16 -70 -4 -86 -35 -12 -21 -11 -31 9 -79 l22 -54 -39 -58 c-34 -50 -164 -193
-175 -193 -2 0 -3 10 -2 22 1 13 -2 28 -7 35 -5 7 -7 17 -4 22 4 5 0 14 -9 18
-12 7 -13 16 -6 40 5 18 7 41 4 53 -3 11 0 20 6 20 6 0 8 8 4 17 -6 15 -4 16
9 6 8 -7 18 -10 21 -7 3 3 4 -15 1 -41 -2 -26 0 -44 5 -41 9 6 20 -23 22 -64
2 -29 16 77 18 132 l1 37 -47 -2 -47 -2 -26 -208 -26 -207 63 0 63 0 2 33 c0
17 2 37 3 42 2 6 3 14 4 18 0 5 19 -6 42 -24 l41 -32 -7 -69 -7 -68 65 0 c63
0 66 1 69 25 3 25 5 24 97 -40 51 -35 122 -81 157 -102 35 -21 64 -40 64 -43
0 -3 -26 -5 -58 -6 -184 -2 -184 -2 -177 -24 5 -15 1 -22 -17 -29 -16 -7 17
-10 109 -10 122 -1 133 -3 147 -22 13 -19 22 -21 120 -17 73 2 109 7 118 17 7
8 9 12 3 9 -5 -3 -19 -2 -30 2 -13 5 10 10 65 15 47 4 105 14 130 21 24 7 46
11 48 9 3 -3 0 -42 -5 -87 -6 -46 -8 -86 -6 -91 2 -4 42 -7 87 -7 l83 0 7 77
c3 42 6 148 6 237 0 88 7 257 15 376 9 118 22 294 28 390 l13 175 65 -100
c101 -154 157 -256 189 -344 17 -45 30 -86 30 -91 0 -5 -13 -1 -30 8 -28 16
-30 16 -51 -5 -14 -14 -23 -36 -24 -65 -2 -24 -1 -33 2 -20 2 13 8 22 11 20
64 -32 82 -44 82 -55 0 -16 3 -15 -38 -4 -42 13 -32 -4 12 -19 26 -8 35 -18
40 -41 3 -17 10 -28 16 -24 6 4 6 15 0 31 -6 14 -10 33 -10 43 0 17 4 17 59
-5 86 -35 193 -48 279 -35 111 17 115 20 135 94 21 79 22 134 2 67 -8 -25 -17
-61 -20 -82 -7 -42 -9 -44 -120 -60 -75 -11 -96 -10 -172 6 -105 22 -133 34
-133 57 0 37 -71 234 -111 307 -23 43 -55 102 -71 134 -15 31 -41 70 -56 86
-15 16 -35 43 -45 60 -16 29 -16 30 2 25 11 -3 44 2 74 11 53 15 105 59 135
112 6 10 13 17 15 14 3 -3 26 -48 52 -100 123 -247 281 -480 326 -480 7 0 4 8
-9 20 -13 12 -22 34 -23 53 l-1 32 -7 -30 -6 -29 -51 64 c-83 106 -201 322
-304 557 -13 29 -25 51 -27 49 -2 -2 8 -29 22 -61 l25 -58 -47 -55 c-51 -60
-92 -82 -150 -82 -69 0 -67 -10 -48 261 9 134 20 285 24 334 7 87 8 89 21 57
7 -18 14 -31 16 -29 2 2 -4 25 -13 50 -16 44 -16 61 0 304 9 142 24 375 33
518 9 143 17 266 20 273 2 7 22 12 54 12 27 0 50 3 50 6 0 4 -11 17 -25 30
-26 24 -25 18 -27 216 -1 15 -5 25 -9 22 -11 -6 -12 8 -9 101 3 119 -12 67
-26 -87 -4 -44 -11 -75 -16 -72 -5 3 -7 12 -4 20 3 8 1 14 -4 14 -6 0 -10 -19
-11 -42 0 -24 -6 -61 -14 -83 l-13 -40 -2 45 c-1 25 -1 55 0 68 1 12 -4 22
-10 22 -7 0 -9 -8 -5 -20 4 -11 2 -20 -4 -20 -18 0 -7 286 13 355 4 11 -1 4
-10 -15 -9 -19 -21 -81 -27 -137 -6 -57 -14 -103 -19 -103 -4 0 -5 6 -2 14 3
8 -2 27 -11 43 -15 27 -15 27 -10 3 5 -24 -26 36 -39 73 -5 16 -8 16 -20 5 -8
-8 -16 -23 -19 -34 -2 -10 -5 6 -6 37 0 31 -4 71 -7 88 -6 28 -4 32 25 42 17
6 28 15 25 20 -3 5 5 9 17 9 22 0 22 0 3 15 -19 14 -19 14 1 16 11 1 26 1 33
0 6 -1 19 2 28 7 11 6 -22 12 -102 16 -142 9 -166 21 -168 86 -1 44 -15 51
-44 23 -43 -43 -94 -73 -139 -84 -26 -6 -61 -18 -78 -26 -105 -54 -153 -77
-251 -116 -224 -92 -296 -113 -664 -197 l-175 -40 -52 25 c-28 14 -87 49 -130
77 -43 29 -81 51 -86 50 -4 -1 -6 1 -6 5 3 20 -2 26 -11 13 -6 -10 -8 -4 -4
21 6 35 5 36 -25 34 -17 -1 -34 -5 -39 -9 -4 -5 0 -6 8 -4 9 1 16 -1 17 -6 1
-5 7 -13 15 -17 7 -5 9 -9 3 -9 -5 0 -23 9 -38 19 l-29 18 64 65 c35 35 92 91
128 123 44 39 54 52 32 39 -41 -23 -206 -185 -321 -314 l-85 -95 86 83 85 83
89 -54 c49 -30 122 -71 162 -92 39 -21 72 -42 72 -45 0 -24 111 -15 252 20 76
18 140 31 143 29 2 -3 7 -55 11 -116 l7 -111 66 -10 c36 -7 80 -14 96 -17 l30
-7 -3 161 c-3 146 -2 161 14 161 21 0 186 56 238 81 22 10 41 17 43 16 2 -2
-1 -17 -7 -33 -8 -26 -30 -248 -30 -311 0 -55 11 -12 20 78 5 52 15 125 22
163 l13 69 50 23 c49 23 49 23 18 24 -18 0 -33 4 -33 9 0 15 40 21 137 21 l92
0 4 -52 c2 -32 4 -18 4 35 0 48 3 90 7 94 9 9 7 26 21 -274 12 -282 16 -303
57 -303 10 0 17 -4 14 -9 -7 -11 129 -25 174 -19 16 3 30 1 30 -2 0 -4 37 -10
82 -14 122 -10 122 -10 114 -176 -4 -74 -11 -173 -16 -220 -16 -144 -39 -480
-40 -583 0 -53 -3 -116 -6 -139 -6 -38 -5 -40 10 -26 9 9 16 25 17 35 0 10 5
27 10 38 11 24 6 -98 -15 -380 -12 -158 -23 -321 -39 -578 -1 -20 1 -37 4 -37
4 0 10 44 14 97 3 54 8 107 10 118 4 21 -5 -233 -10 -275 -1 -14 -8 -109 -16
-212 -7 -104 -17 -188 -22 -188 -5 0 -7 11 -5 25 4 19 1 25 -11 23 -18 -3 -18
1 -7 122 3 41 13 176 21 300 8 124 17 245 20 270 2 25 7 92 11 150 3 58 7 107
9 110 2 3 6 63 10 134 6 114 0 234 -11 223 -2 -2 -13 -118 -24 -258 -11 -140
-27 -337 -35 -439 -17 -209 -19 -273 -7 -266 5 3 7 -21 5 -52 -6 -79 -11 -87
-14 -22 l-2 55 -7 -70 c-4 -38 -7 -95 -7 -125 l0 -55 7 60 c5 45 7 30 6 -60
-1 -91 -4 -121 -15 -126 -25 -10 -41 -84 -57 -274 -9 -104 -20 -199 -25 -210
-12 -27 -1 153 17 279 13 95 18 174 7 133 -3 -13 -11 -16 -26 -12 -21 5 -21 5
1 -6 12 -7 22 -17 22 -23 -1 -26 -27 -96 -33 -89 -4 4 -14 -3 -22 -14 -9 -12
-44 -31 -81 -43 -129 -43 -239 -10 -462 139 -52 35 -95 61 -96 59 -11 -12 -26
-49 -19 -45 5 4 10 0 10 -7 0 -9 -7 -12 -16 -8 -15 5 -72 44 -97 67 -7 6 -35
28 -63 50 -39 31 -50 44 -45 60 4 14 3 16 -4 6 -7 -9 -12 -10 -16 -2 -4 6 -11
9 -16 6 -5 -3 -7 3 -5 15 2 11 1 19 -3 19 -21 -3 -21 4 -1 34 13 17 27 35 32
38 5 4 4 15 -2 27 -18 34 -13 37 11 6 12 -16 53 -63 92 -104 39 -41 79 -90 89
-109 10 -19 20 -31 23 -28 11 11 -32 75 -103 152 -40 44 -73 84 -73 90 0 5 7
2 14 -8 13 -17 15 -13 21 37 4 31 5 65 2 76 -3 11 -1 23 4 26 5 3 9 -3 10 -13
2 -42 -2 -129 -7 -145 -3 -10 -1 -18 5 -18 5 0 13 16 17 35 3 19 14 51 24 71
l19 36 15 -29 c8 -16 22 -35 31 -43 13 -11 15 -10 9 6 -4 10 -20 36 -35 56
-42 54 -55 86 -41 100 9 9 12 7 12 -9 0 -12 18 -43 40 -70 95 -114 186 -211
198 -212 6 -1 12 -4 12 -8 0 -34 54 -251 65 -262 11 -11 27 -12 77 -5 l63 9
-2 43 c-1 34 1 42 16 42 9 0 36 16 58 35 40 34 41 34 54 15 10 -14 34 -24 74
-31 33 -5 69 -12 80 -15 16 -4 17 -3 5 5 -12 8 -15 34 -15 123 l0 113 -51 3
c-59 3 -58 6 -70 -115 -3 -40 -11 -73 -15 -73 -5 0 -9 5 -9 10 0 6 -9 10 -19
10 -22 0 -48 33 -77 97 l-19 41 -31 -30 -32 -30 -20 69 -21 68 21 22 c11 12
26 20 31 16 6 -4 8 0 4 11 -4 10 -7 22 -7 27 0 5 -6 9 -13 9 -8 0 -19 17 -25
38 -16 53 1 152 60 350 16 57 28 105 26 108 -5 4 -79 -246 -97 -326 -16 -69
-13 -123 8 -171 14 -31 17 -46 8 -51 -18 -11 -24 -2 -35 59 -27 142 -75 381
-83 412 -5 19 -7 36 -5 38 2 2 27 -5 55 -17 55 -21 101 -26 101 -11 0 5 2 15
5 23 4 9 -5 14 -27 15 -40 3 -135 49 -147 71 -5 9 -14 44 -21 77 -6 33 -14 69
-17 80 -4 14 3 10 28 -15 39 -39 161 -100 207 -103 30 -2 32 -4 27 -37 -7 -48
-1 -33 40 102 19 64 46 142 60 174 31 71 32 83 0 24 -13 -25 -39 -92 -56 -149
l-33 -103 -37 5 c-56 7 -149 53 -191 95 -37 35 -38 39 -38 104 0 129 21 373
40 463 11 52 40 137 70 202 53 120 56 128 40 138 -6 4 -10 3 -9 -2 4 -23 -2
-35 -17 -29 -8 3 -62 -5 -120 -19 -58 -14 -107 -25 -108 -25 -2 0 1 24 5 53
40 275 51 320 96 410 l23 47 93 2 c71 1 79 3 32 5 -43 3 -66 10 -82 25 -16 15
-25 17 -35 9 -7 -5 -29 -23 -48 -39 -45 -37 -73 -52 -100 -52 -20 0 -20 1 -5
31 24 45 10 48 -16 4 -21 -34 -24 -36 -58 -30 -20 4 -49 13 -66 20 -16 7 -37
16 -45 18 -8 3 1 6 20 7 19 1 46 6 60 10 14 4 -32 5 -103 2 -92 -4 -134 -2
-151 7 -13 7 -32 11 -42 8 -13 -3 -11 -5 9 -6 32 -1 37 -21 5 -21 -13 0 -57
-20 -98 -45 -85 -51 -110 -57 -86 -23 9 12 46 37 83 55 38 18 59 30 48 26 -11
-3 -41 -8 -67 -11 -44 -4 -47 -2 -64 30 -9 18 -19 28 -21 21 -2 -7 0 -21 6
-32 20 -37 13 -49 -41 -64 -52 -16 -168 -31 -168 -23 0 2 44 14 98 26 108 25
124 33 93 49 -16 9 -21 21 -21 54 1 37 2 40 14 24 12 -15 14 -15 19 -2 4 8 3
14 -1 14 -4 -1 -18 2 -31 6 l-24 8 24 19 c13 11 17 16 9 12 -8 -4 -41 -29 -73
-56 -32 -26 -70 -51 -84 -54 -16 -4 -57 2 -103 15 -173 50 -205 41 -359 -100
-65 -59 -130 -113 -145 -119 -15 -5 -72 -10 -126 -10 -60 0 -101 -4 -105 -11
-4 -6 4 -22 16 -36 l24 -25 -25 7 c-58 17 -90 74 -90 162 0 23 -5 45 -11 49
-18 11 -2 -114 20 -156 22 -42 105 -90 123 -72 20 20 29 14 22 -14 -5 -19 0
-32 18 -52 14 -15 30 -47 37 -72 20 -71 86 -201 126 -247 23 -27 63 -56 108
-78 40 -19 69 -35 64 -35 -4 0 -94 -12 -200 -26 -265 -35 -303 -38 -311 -26
-3 5 -12 38 -20 73 -8 35 -26 109 -40 164 -15 55 -31 131 -37 170 -6 38 -23
136 -39 216 -16 80 -29 161 -29 180 1 19 0 40 -2 48 -3 9 8 17 29 23 28 8 33
13 28 31 -3 12 -17 81 -31 152 -23 112 -30 167 -34 283 -1 13 -5 20 -11 17 -6
-4 -7 6 -4 25 4 20 3 30 -5 30 -8 0 -10 8 -6 21 4 12 3 24 -3 28 -7 4 -7 19
-2 41 4 19 8 29 9 21 1 -8 3 -12 6 -10 2 3 -4 33 -15 68 -22 75 -36 172 -24
170 25 -4 36 2 30 19 -5 13 -3 13 9 -3 8 -11 18 -24 22 -30 18 -21 103 -172
117 -207 9 -21 17 -52 17 -70 1 -21 3 -26 6 -13 18 75 40 8 50 -148 7 -115 8
-118 14 -62 4 33 5 75 3 93 -3 23 0 32 11 32 8 0 15 -7 15 -16 0 -8 7 -36 15
-62 8 -26 24 -83 35 -128 12 -44 31 -93 44 -109 l23 -29 37 22 c27 16 36 18
36 7 0 -7 5 -17 11 -21 8 -5 10 1 7 19 -4 19 2 32 20 49 27 25 116 138 109
138 -3 0 -35 -14 -72 -31 -76 -36 -83 -35 -140 29 l-38 43 24 17 c33 23 155
135 208 191 133 141 185 190 214 202 17 7 49 28 70 46 21 19 53 41 72 50 40
19 44 29 15 38 -24 8 -76 -22 -140 -81 -25 -23 -50 -43 -56 -45 -7 -2 -100
-88 -208 -191 -108 -104 -200 -188 -205 -188 -5 0 -14 7 -22 16 -11 13 -8 19
22 41 19 14 96 88 171 164 76 77 140 139 144 139 3 0 28 20 54 43 27 24 78 64
114 88 58 39 83 69 57 69 -16 0 -154 -98 -204 -145 l-48 -45 -127 1 c-70 0
-149 4 -177 9 -129 21 -164 30 -198 50 -49 29 -59 19 -11 -10 61 -38 191 -60
364 -60 l124 0 -39 -41 c-66 -68 -269 -249 -280 -249 -5 0 -28 26 -50 57 -43
60 -42 59 -154 245 -41 68 -93 142 -115 166 l-41 43 -3 114 c-2 66 -8 113 -13
109 -5 -3 -9 -17 -10 -32 -1 -15 -7 2 -14 38 -12 58 -11 69 4 105 19 43 62 89
47 50 -4 -11 -9 -33 -12 -50 -3 -20 1 -15 10 14 8 25 13 48 11 51 -3 4 13 27
35 50 l40 43 135 -5 c162 -6 157 -4 325 -164 63 -60 104 -96 92 -80 -13 17
-75 78 -138 137 -112 105 -117 108 -171 115 -45 5 -64 14 -93 41 -47 42 -141
113 -152 113 -4 0 -8 5 -8 10 0 19 23 10 83 -36 122 -91 188 -112 297 -94 l45
7 -47 2 c-41 1 -49 5 -67 34 -11 17 -43 55 -72 82 l-53 50 45 -52 c24 -29 52
-66 62 -83 l18 -30 -31 0 c-65 0 -243 117 -253 167 -4 22 -16 34 -44 46 -54
24 -173 56 -173 46z m170 -138 c0 -5 19 -20 43 -34 23 -14 65 -46 92 -71 l50
-45 -70 0 c-52 0 -66 2 -52 10 20 12 23 52 4 67 -7 7 -37 16 -65 23 -52 11
-54 14 -29 47 11 14 27 16 27 3z m-30 -726 c11 -13 10 -14 -4 -9 -9 3 -16 10
-16 15 0 13 6 11 20 -6z m-3 -217 c-3 -8 -6 -5 -6 6 -1 11 2 17 5 13 3 -3 4
-12 1 -19z m2443 2 c-20 -13 -50 -13 -50 0 0 6 15 10 33 10 24 0 28 -3 17 -10z
m-2426 -55 c5 -22 4 -26 -4 -15 -5 8 -10 24 -10 34 0 26 6 18 14 -19z m2698
-517 c-7 -7 -12 -8 -12 -2 0 6 3 14 7 17 3 4 9 5 12 2 2 -3 -1 -11 -7 -17z
m-1794 -184 c-7 -6 -168 -62 -168 -58 0 1 17 15 39 31 27 20 53 29 87 31 27 2
45 0 42 -4z m742 -59 c-14 -8 -32 -14 -41 -15 -8 0 -30 -11 -49 -25 -41 -30
-50 -31 -50 -5 0 40 35 60 103 60 59 -1 61 -1 37 -15z m-270 -5 c0 -5 -8 -10
-17 -10 -15 0 -16 2 -3 10 19 12 20 12 20 0z m-330 -56 c0 -2 -11 -4 -25 -4
-14 0 -25 4 -25 9 0 4 11 6 25 3 14 -2 25 -6 25 -8z m1837 -41 c-3 -10 -5 -2
-5 17 0 19 2 27 5 18 2 -10 2 -26 0 -35z m-40 -425 c-3 -7 -5 -2 -5 12 0 14 2
19 5 13 2 -7 2 -19 0 -25z m-4 -53 c-7 -21 -13 -19 -13 6 0 11 4 18 10 14 5
-3 7 -12 3 -20z m-813 -125 c22 -11 40 -24 40 -28 -1 -4 -7 -34 -15 -67 -8
-33 -15 -96 -16 -140 0 -44 -6 -127 -13 -185 -12 -94 -14 -101 -20 -65 -5 22
-12 54 -17 70 -7 23 -8 18 -4 -23 3 -29 8 -60 12 -70 4 -11 3 -14 -4 -7 -10
10 -68 232 -78 298 -3 20 -8 54 -11 75 -5 35 -5 36 10 17 8 -11 16 -16 16 -12
0 17 -28 73 -43 86 -28 22 -20 28 40 30 55 1 85 17 60 33 -25 16 5 7 43 -12z
m-85 0 c-3 -5 -12 -10 -18 -10 -7 0 -6 4 3 10 19 12 23 12 15 0z m902 -307
c-2 -16 -4 -5 -4 22 0 28 2 40 4 28 2 -13 2 -35 0 -50z m-2557 17 c0 -5 -4
-10 -10 -10 -5 0 -10 5 -10 10 0 6 5 10 10 10 6 0 10 -4 10 -10z m2547 -167
c-2 -16 -4 -3 -4 27 0 30 2 43 4 28 2 -16 2 -40 0 -55z m-70 -195 c-3 -7 -5
-2 -5 12 0 14 2 19 5 13 2 -7 2 -19 0 -25z m42 -132 c-9 -8 -10 -7 -5 7 3 10
7 35 8 55 1 35 2 35 5 -7 3 -26 -1 -48 -8 -55z m-773 28 c-4 -9 -9 -15 -11
-12 -3 3 -3 13 1 22 4 9 9 15 11 12 3 -3 3 -13 -1 -22z m11 -56 c-3 -8 -6 -5
-6 6 -1 11 2 17 5 13 3 -3 4 -12 1 -19z m62 -22 c-1 -19 -2 -19 -6 -2 -4 15
-7 16 -14 5 -7 -11 -9 -9 -9 8 0 16 4 21 15 17 8 -4 14 -16 14 -28z m698 -53
c-2 -16 -4 -3 -4 27 0 30 2 43 4 28 2 -16 2 -40 0 -55z m-757 46 c0 35 11 -7
45 -179 20 -102 39 -194 42 -205 3 -13 2 -17 -5 -10 -15 16 -41 113 -35 135 3
11 1 20 -5 20 -5 0 -12 9 -15 20 -3 12 -1 18 5 14 6 -4 3 4 -5 17 -16 26 -40
146 -32 160 3 4 1 10 -5 14 -5 3 -10 12 -10 18 0 7 4 6 10 -3 8 -12 10 -12 10
-1z m-31 -378 c26 -127 45 -231 41 -231 -11 0 -137 135 -144 154 -3 10 3 45
15 78 11 33 18 62 16 65 -3 3 -16 -5 -29 -16 -30 -29 -35 -11 -10 42 11 23 28
65 38 94 10 29 20 50 22 48 2 -2 25 -108 51 -234z m-189 144 c0 -8 -2 -15 -4
-15 -2 0 -6 7 -10 15 -3 8 -1 15 4 15 6 0 10 -7 10 -15z m-18 -60 c2 -25 0
-45 -3 -45 -12 0 -31 59 -25 75 11 29 24 15 28 -30z m915 -2 c-3 -10 -5 -4 -5
12 0 17 2 24 5 18 2 -7 2 -21 0 -30z m-885 -13 c3 -17 1 -33 -4 -36 -4 -3 -8
11 -8 30 0 44 6 47 12 6z m-1570 -52 c-8 -8 -9 -4 -5 13 4 13 8 18 11 10 2 -7
-1 -18 -6 -23z m-19 -55 c-6 -2 -9 -14 -7 -26 4 -21 4 -21 -5 -2 -5 12 -5 28
2 40 8 15 11 17 15 5 3 -7 0 -16 -5 -17z m1907 -78 c5 -21 5 -34 1 -29 -10 10
-24 80 -15 72 3 -4 10 -23 14 -43z m-344 -2 c-10 -10 -19 5 -10 18 6 11 8 11
12 0 2 -7 1 -15 -2 -18z m1276 -80 c34 -37 41 -60 20 -68 -16 -6 -82 23 -82
37 0 14 21 8 53 -14 24 -17 28 -18 18 -4 -19 23 -66 47 -77 38 -5 -4 0 3 10
16 24 28 27 28 58 -5z m-1492 -122 c0 -4 -10 -8 -22 -8 -17 -2 -19 0 -9 7 13
7 13 11 1 27 -13 16 -12 16 8 -1 12 -11 22 -22 22 -25z m730 -22 c19 -34 36
-65 38 -70 6 -15 -53 -3 -87 17 -43 25 -50 58 -20 90 12 13 25 24 28 24 3 0
22 -28 41 -61z m-743 -6 c-4 -3 -2 -12 4 -20 9 -10 7 -13 -10 -13 -11 0 -21 4
-21 8 0 9 21 32 29 32 2 0 1 -3 -2 -7z m718 -93 c18 -8 17 -9 -7 -9 -16 -1
-28 4 -28 9 0 12 8 12 35 0z m-535 -40 c-8 -5 -24 -9 -35 -9 l-20 0 20 9 c11
5 27 9 35 9 13 1 13 0 0 -9z m330 -92 c156 -91 198 -109 268 -113 56 -3 84 2
170 29 24 8 24 8 4 -12 -11 -11 -22 -26 -24 -33 -4 -11 -35 -15 -131 -17
l-127 -4 -70 38 c-38 21 -69 43 -69 49 3 26 -5 35 -63 73 -35 23 -76 53 -93
68 l-30 26 35 -24 c19 -14 78 -50 130 -80z m5 -56 c-3 -3 -11 0 -18 7 -9 10
-8 11 6 5 10 -3 15 -9 12 -12z"/>
<path d="M2081 2554 c0 -11 3 -14 6 -6 3 7 2 16 -1 19 -3 4 -6 -2 -5 -13z"/>
<path d="M2091 2504 c0 -11 3 -14 6 -6 3 7 2 16 -1 19 -3 4 -6 -2 -5 -13z"/>
<path d="M2101 2454 c0 -11 3 -14 6 -6 3 7 2 16 -1 19 -3 4 -6 -2 -5 -13z"/>
<path d="M2112 2410 c0 -14 4 -36 8 -50 6 -20 8 -21 8 -5 0 11 -4 34 -8 50 -7
27 -8 27 -8 5z"/>
<path d="M157 5243 c-4 -3 -7 -11 -7 -17 0 -6 5 -5 12 2 6 6 9 14 7 17 -3 3
-9 2 -12 -2z"/>
<path d="M1930 5180 c0 -5 5 -10 10 -10 6 0 10 5 10 10 0 6 -4 10 -10 10 -5 0
-10 -4 -10 -10z"/>
<path d="M2305 5170 c3 -5 12 -7 20 -3 21 7 19 13 -6 13 -11 0 -18 -4 -14 -10z"/>
<path d="M641 5070 c12 -23 24 -39 26 -36 5 5 -35 76 -43 76 -2 0 6 -18 17
-40z"/>
<path d="M50 5090 c0 -5 7 -10 15 -10 8 0 15 5 15 10 0 6 -7 10 -15 10 -8 0
-15 -4 -15 -10z"/>
<path d="M175 5089 c-10 -14 -1 -21 19 -13 9 3 13 10 10 15 -7 12 -21 11 -29
-2z"/>
<path d="M691 5083 c-1 -18 19 -67 25 -61 3 3 -2 21 -10 39 -8 19 -15 29 -15
22z"/>
<path d="M118 5073 c6 -2 18 -2 25 0 6 3 1 5 -13 5 -14 0 -19 -2 -12 -5z"/>
<path d="M506 5021 c5 -4 47 -41 92 -81 70 -61 81 -68 68 -41 -9 17 -21 31
-25 31 -5 0 -36 23 -69 50 -33 28 -64 50 -68 50 -4 0 -4 -4 2 -9z"/>
<path d="M635 4990 c28 -55 66 -112 71 -108 6 7 -54 114 -73 129 -14 12 -14 9
2 -21z"/>
<path d="M4728 5013 c6 -2 18 -2 25 0 6 3 1 5 -13 5 -14 0 -19 -2 -12 -5z"/>
<path d="M6431 4954 c0 -11 3 -14 6 -6 3 7 2 16 -1 19 -3 4 -6 -2 -5 -13z"/>
<path d="M50 4908 c-12 -22 -12 -22 6 -6 10 10 15 20 12 24 -4 3 -12 -5 -18
-18z"/>
<path d="M4791 4876 c-1 -16 101 -135 153 -178 47 -39 46 -36 -19 33 -38 41
-84 92 -102 114 -18 22 -32 36 -32 31z"/>
<path d="M600 4868 c0 -12 62 -128 70 -128 4 0 10 -14 12 -31 l5 -31 -51 7
c-82 10 -49 -2 64 -24 58 -12 114 -24 125 -27 20 -5 20 -5 1 10 -11 9 -28 16
-37 16 -10 0 -19 4 -21 8 -1 5 -16 15 -33 23 -21 10 -34 27 -45 58 -13 38 -88
138 -90 119z"/>
<path d="M165 4828 c10 -27 272 -122 361 -132 l49 -5 -60 18 c-33 10 -82 24
-110 30 -71 17 -120 42 -103 52 8 6 9 9 1 9 -6 0 -9 9 -5 22 4 18 2 20 -19 14
-40 -12 -93 -13 -107 -3 -9 7 -11 6 -7 -5z m125 -8 c0 -5 -5 -10 -11 -10 -5 0
-7 -4 -4 -10 9 -14 -8 -12 -46 5 -26 12 -28 15 -9 11 14 -3 32 -1 40 4 19 13
30 12 30 0z"/>
<path d="M320 4809 c0 -5 5 -7 10 -4 6 3 10 8 10 11 0 2 -4 4 -10 4 -5 0 -10
-5 -10 -11z"/>
<path d="M330 4780 c19 -13 30 -13 30 0 0 6 -10 10 -22 10 -19 0 -20 -2 -8
-10z"/>
<path d="M771 4774 c-1 -16 24 -35 35 -26 4 4 2 -1 -5 -10 -11 -15 -11 -21 -1
-33 7 -8 17 -15 22 -15 6 0 6 6 -1 14 -10 12 -8 13 9 9 24 -7 34 -19 20 -28
-13 -8 10 -45 29 -45 10 0 11 3 2 13 -18 23 -4 97 19 97 5 0 22 -12 39 -26 26
-22 32 -23 37 -10 3 9 3 23 0 32 -8 21 -115 17 -134 -5 -12 -14 -13 -14 -8 2
4 13 -1 17 -23 17 -16 0 -32 6 -34 13 -4 7 -6 8 -6 1z"/>
<path d="M990 4751 c0 -5 5 -13 10 -16 6 -3 10 -2 10 4 0 5 -4 13 -10 16 -5 3
-10 2 -10 -4z"/>
<path d="M1026 4746 c6 -15 37 -17 50 -3 4 4 18 7 30 7 18 0 22 -4 17 -17 -6
-16 -5 -16 10 -4 9 7 17 10 17 6 0 -4 7 -2 15 5 12 10 15 10 15 -3 0 -8 -6
-18 -12 -20 -8 -3 -7 -6 4 -6 9 -1 20 4 23 9 4 6 10 8 15 5 5 -3 11 -1 15 5 3
5 -1 10 -9 10 -9 0 -16 4 -16 9 0 4 -40 9 -90 10 -77 2 -89 0 -84 -13z"/>
<path d="M1300 4749 c0 -5 5 -7 10 -4 6 3 10 8 10 11 0 2 -4 4 -10 4 -5 0 -10
-5 -10 -11z"/>
<path d="M1336 4753 c-11 -11 -6 -23 9 -23 8 0 15 4 15 9 0 13 -16 22 -24 14z"/>
<path d="M1618 4749 c-10 -5 -18 -15 -18 -21 0 -9 3 -9 12 0 8 8 15 9 25 0 19
-15 26 -5 10 15 -9 12 -16 14 -29 6z"/>
<path d="M1851 4751 c-7 -5 -12 -14 -10 -20 3 -7 11 -3 21 9 18 21 13 26 -11
11z"/>
<path d="M1932 4743 c2 -9 8 -18 15 -20 7 -3 9 3 6 16 -6 25 -26 28 -21 4z"/>
<path d="M467 4739 c7 -7 15 -10 18 -7 3 3 -2 9 -12 12 -14 6 -15 5 -6 -5z"/>
<path d="M2030 4739 c0 -5 5 -7 10 -4 6 3 10 8 10 11 0 2 -4 4 -10 4 -5 0 -10
-5 -10 -11z"/>
<path d="M1395 4730 c3 -5 8 -10 11 -10 2 0 4 5 4 10 0 6 -5 10 -11 10 -5 0
-7 -4 -4 -10z"/>
<path d="M2255 4720 c3 -5 14 -10 23 -10 15 0 15 2 2 10 -20 13 -33 13 -25 0z"/>
<path d="M892 4694 c2 -21 4 -23 14 -10 13 18 24 21 24 5 0 -6 7 -17 15 -25
18 -18 18 -16 4 25 -8 23 -17 31 -35 31 -19 0 -23 -5 -22 -26z"/>
<path d="M1866 4707 c3 -10 9 -15 12 -12 3 3 0 11 -7 18 -10 9 -11 8 -5 -6z"/>
<path d="M9266 3973 c3 -412 8 -750 10 -752 2 -2 4 284 4 637 0 605 1 642 18
642 16 1 16 1 0 14 -15 11 -18 30 -18 110 0 58 -4 96 -10 96 -7 0 -8 -242 -4
-747z"/>
<path d="M1950 4700 c-9 -6 -10 -10 -3 -10 6 0 15 5 18 10 8 12 4 12 -15 0z"/>
<path d="M1180 4681 c0 -5 5 -13 10 -16 6 -3 10 -2 10 4 0 5 -4 13 -10 16 -5
3 -10 2 -10 -4z"/>
<path d="M2396 4665 c-9 -26 -7 -32 5 -12 6 10 9 21 6 23 -2 3 -7 -2 -11 -11z"/>
<path d="M1155 4660 c-3 -5 -1 -10 4 -10 6 0 11 5 11 10 0 6 -2 10 -4 10 -3 0
-8 -4 -11 -10z"/>
<path d="M900 4646 c0 -2 8 -10 18 -17 15 -13 16 -12 3 4 -13 16 -21 21 -21
13z"/>
<path d="M945 4590 c10 -11 20 -20 23 -20 3 0 -3 9 -13 20 -10 11 -20 20 -23
20 -3 0 3 -9 13 -20z"/>
<path d="M1000 4562 c8 -5 33 -12 55 -15 23 -4 34 -3 25 2 -21 12 -99 24 -80
13z"/>
<path d="M1106 4529 c11 -19 83 -83 87 -78 2 2 -19 24 -47 49 -27 25 -45 38
-40 29z"/>
<path d="M2722 4463 c-18 -30 -31 -58 -28 -60 3 -3 14 14 26 36 l21 41 32 -16
c30 -16 31 -16 18 -1 -7 10 -20 17 -28 17 -10 0 -12 6 -8 20 10 32 2 23 -33
-37z"/>
<path d="M161 4496 c-9 -10 -8 -16 4 -26 12 -10 15 -10 15 3 0 15 23 18 36 4
4 -4 12 -7 18 -7 14 1 -35 39 -50 40 -6 0 -17 -6 -23 -14z"/>
<path d="M9340 4485 c14 -8 30 -14 35 -14 6 0 -1 6 -15 14 -14 8 -29 14 -35
14 -5 0 1 -6 15 -14z"/>
<path d="M6260 4460 c0 -5 5 -10 10 -10 6 0 10 5 10 10 0 6 -4 10 -10 10 -5 0
-10 -4 -10 -10z"/>
<path d="M1210 4446 c0 -2 8 -10 18 -17 15 -13 16 -12 3 4 -13 16 -21 21 -21
13z"/>
<path d="M6230 4439 c0 -5 5 -7 10 -4 6 3 10 8 10 11 0 2 -4 4 -10 4 -5 0 -10
-5 -10 -11z"/>
<path d="M9440 4440 c8 -5 20 -10 25 -10 6 0 3 5 -5 10 -8 5 -19 10 -25 10 -5
0 -3 -5 5 -10z"/>
<path d="M9529 4401 c13 -12 28 -21 35 -21 12 0 -5 14 -39 31 -16 8 -15 6 4
-10z"/>
<path d="M1693 4363 c-17 -3 -23 -11 -23 -30 0 -23 3 -25 28 -20 15 3 101 15
192 27 91 12 170 23 175 25 14 5 -345 3 -372 -2z"/>
<path d="M2368 4143 c6 -2 18 -2 25 0 6 3 1 5 -13 5 -14 0 -19 -2 -12 -5z"/>
<path d="M2418 4143 c6 -2 18 -2 25 0 6 3 1 5 -13 5 -14 0 -19 -2 -12 -5z"/>
<path d="M191 4114 c0 -11 3 -14 6 -6 3 7 2 16 -1 19 -3 4 -6 -2 -5 -13z"/>
<path d="M251 3894 c0 -11 3 -14 6 -6 3 7 2 16 -1 19 -3 4 -6 -2 -5 -13z"/>
<path d="M720 3869 l-45 -41 48 33 c49 34 65 49 50 49 -4 0 -28 -19 -53 -41z"/>
<path d="M1290 3855 c0 -5 5 -17 10 -25 5 -8 10 -10 10 -5 0 6 -5 17 -10 25
-5 8 -10 11 -10 5z"/>
<path d="M221 3814 c0 -11 3 -14 6 -6 3 7 2 16 -1 19 -3 4 -6 -2 -5 -13z"/>
<path d="M2142 3800 c0 -14 2 -19 5 -12 2 6 2 18 0 25 -3 6 -5 1 -5 -13z"/>
<path d="M1330 3741 c0 -5 5 -13 10 -16 6 -3 10 -2 10 4 0 5 -4 13 -10 16 -5
3 -10 2 -10 -4z"/>
<path d="M1217 3699 c37 -58 94 -119 111 -119 11 0 7 6 -13 19 -17 10 -48 43
-69 74 -41 60 -62 79 -29 26z"/>
<path d="M1375 3700 c3 -5 11 -10 16 -10 6 0 7 5 4 10 -3 6 -11 10 -16 10 -6
0 -7 -4 -4 -10z"/>
<path d="M1506 3627 c3 -10 9 -15 12 -12 3 3 0 11 -7 18 -10 9 -11 8 -5 -6z"/>
<path d="M666 3575 c3 -11 8 -29 11 -40 3 -11 11 -40 19 -65 8 -25 18 -73 23
-105 l9 -60 1 47 c1 55 -19 138 -48 200 -12 23 -18 34 -15 23z"/>
<path d="M347 3485 c3 -27 7 -52 9 -54 7 -8 2 54 -6 79 -6 17 -7 9 -3 -25z"/>
<path d="M2045 3475 c-67 -17 -20 -17 70 0 63 12 66 13 25 13 -25 0 -67 -6
-95 -13z"/>
<path d="M8138 3345 c44 -61 61 -80 68 -72 4 4 2 7 -4 7 -7 0 -12 6 -12 13 0
7 -16 29 -37 48 -35 33 -36 33 -15 4z"/>
<path d="M2953 3320 c0 -25 2 -35 4 -22 2 12 2 32 0 45 -2 12 -4 2 -4 -23z"/>
<path d="M142 3260 c0 -14 2 -19 5 -12 2 6 2 18 0 25 -3 6 -5 1 -5 -13z"/>
<path d="M8230 3229 c12 -16 24 -28 27 -26 7 7 -19 46 -35 52 -8 3 -4 -8 8
-26z"/>
<path d="M152 3210 c0 -14 2 -19 5 -12 2 6 2 18 0 25 -3 6 -5 1 -5 -13z"/>
<path d="M2943 3185 c0 -27 2 -38 4 -22 2 15 2 37 0 50 -2 12 -4 0 -4 -28z"/>
<path d="M8280 3177 c0 -2 15 -16 33 -33 l32 -29 -29 33 c-28 30 -36 37 -36
29z"/>
<path d="M162 3150 c0 -14 2 -19 5 -12 2 6 2 18 0 25 -3 6 -5 1 -5 -13z"/>
<path d="M2841 3114 c0 -11 3 -14 6 -6 3 7 2 16 -1 19 -3 4 -6 -2 -5 -13z"/>
<path d="M172 3100 c0 -14 2 -19 5 -12 2 6 2 18 0 25 -3 6 -5 1 -5 -13z"/>
<path d="M8370 3070 c35 -45 48 -55 58 -45 7 6 -67 84 -81 85 -5 0 6 -18 23
-40z m35 -20 c10 -11 16 -20 13 -20 -3 0 -13 9 -23 20 -10 11 -16 20 -13 20 3
0 13 -9 23 -20z"/>
<path d="M2933 3050 c0 -25 2 -35 4 -22 2 12 2 32 0 45 -2 12 -4 2 -4 -23z"/>
<path d="M3852 3065 c0 -16 2 -22 5 -12 2 9 2 23 0 30 -3 6 -5 -1 -5 -18z"/>
<path d="M2823 3050 c-6 -17 -7 -30 -2 -30 9 0 24 48 17 55 -2 2 -9 -9 -15
-25z"/>
<path d="M181 3054 c0 -11 3 -14 6 -6 3 7 2 16 -1 19 -3 4 -6 -2 -5 -13z"/>
<path d="M8432 3013 c-7 -3 10 -28 46 -66 33 -34 74 -78 92 -97 18 -19 12 -10
-14 22 -25 31 -46 61 -46 68 0 6 -3 9 -7 7 -5 -3 -13 1 -20 8 -8 9 -9 15 -2
17 6 2 0 13 -13 24 -13 12 -29 19 -36 17z m29 -20 c13 -16 12 -17 -3 -4 -10 7
-18 15 -18 17 0 8 8 3 21 -13z"/>
<path d="M191 2984 c0 -11 3 -14 6 -6 3 7 2 16 -1 19 -3 4 -6 -2 -5 -13z"/>
<path d="M2779 2954 c-39 -101 -55 -148 -80 -233 -15 -53 -44 -149 -64 -215
-20 -65 -34 -121 -31 -123 3 -3 8 6 12 21 3 14 9 26 13 26 4 0 18 -30 30 -67
13 -38 40 -99 61 -138 44 -85 133 -210 138 -196 2 6 -10 28 -26 49 -67 86
-167 289 -174 354 -2 12 -7 26 -11 29 -5 4 -4 15 1 25 5 11 20 57 33 104 12
47 44 152 70 234 27 83 47 152 44 154 -2 3 -9 -8 -16 -24z"/>
<path d="M201 2934 c0 -11 3 -14 6 -6 3 7 2 16 -1 19 -3 4 -6 -2 -5 -13z"/>
<path d="M2922 2925 c0 -16 2 -22 5 -12 2 9 2 23 0 30 -3 6 -5 -1 -5 -18z"/>
<path d="M2911 2874 c0 -11 3 -14 6 -6 3 7 2 16 -1 19 -3 4 -6 -2 -5 -13z"/>
<path d="M2912 2790 c0 -14 2 -19 5 -12 2 6 2 18 0 25 -3 6 -5 1 -5 -13z"/>
<path d="M647 2747 c3 -29 7 -53 8 -55 1 -2 42 -2 91 0 l89 3 -35 16 c-19 9
-49 30 -67 46 -18 17 -46 33 -62 36 l-30 6 6 -52z"/>
<path d="M2576 2325 c-9 -26 -7 -32 5 -12 6 10 9 21 6 23 -2 3 -7 -2 -11 -11z"/>
<path d="M8990 2296 c19 -26 39 -50 44 -54 5 -3 -6 16 -24 42 -19 26 -39 50
-44 54 -5 3 6 -16 24 -42z"/>
<path d="M2872 2255 c0 -16 2 -22 5 -12 2 9 2 23 0 30 -3 6 -5 -1 -5 -18z"/>
<path d="M3161 2185 c0 -5 6 -21 14 -35 8 -14 14 -20 14 -15 0 6 -6 21 -14 35
-8 14 -14 21 -14 15z"/>
<path d="M9580 2135 c0 -8 4 -15 10 -15 5 0 7 7 4 15 -4 8 -8 15 -10 15 -2 0
-4 -7 -4 -15z"/>
<path d="M2862 2085 c0 -16 2 -22 5 -12 2 9 2 23 0 30 -3 6 -5 -1 -5 -18z"/>
<path d="M9151 2062 c6 -17 13 -32 15 -32 8 0 -3 41 -14 52 -10 10 -10 6 -1
-20z"/>
<path d="M2853 1935 c0 -22 2 -30 4 -17 2 12 2 30 0 40 -3 9 -5 -1 -4 -23z"/>
<path d="M5514 1858 l-19 -23 25 20 c14 11 27 21 29 22 2 2 0 3 -6 3 -5 0 -18
-10 -29 -22z"/>
<path d="M2843 1795 c0 -22 2 -30 4 -17 2 12 2 30 0 40 -3 9 -5 -1 -4 -23z"/>
<path d="M3260 1810 c-9 -6 -10 -10 -3 -10 6 0 15 5 18 10 8 12 4 12 -15 0z"/>
<path d="M3215 1780 c-3 -6 1 -7 9 -4 18 7 21 14 7 14 -6 0 -13 -4 -16 -10z"/>
<path d="M5165 1780 c-3 -6 1 -7 9 -4 18 7 21 14 7 14 -6 0 -13 -4 -16 -10z"/>
<path d="M421 1764 c0 -11 3 -14 6 -6 3 7 2 16 -1 19 -3 4 -6 -2 -5 -13z"/>
<path d="M3680 1769 c0 -3 19 -9 41 -13 40 -6 59 -2 46 10 -8 9 -87 12 -87 3z"/>
<path d="M422 1705 c0 -16 2 -22 5 -12 2 9 2 23 0 30 -3 6 -5 -1 -5 -18z"/>
<path d="M3970 1721 c18 -10 186 -41 215 -40 21 1 -188 48 -215 48 -13 0 -13
-1 0 -8z"/>
<path d="M2833 1655 c0 -27 2 -38 4 -22 2 15 2 37 0 50 -2 12 -4 0 -4 -28z"/>
<path d="M2823 1525 c0 -27 2 -38 4 -22 2 15 2 37 0 50 -2 12 -4 0 -4 -28z"/>
<path d="M2913 1520 c0 -25 2 -35 4 -22 2 12 2 32 0 45 -2 12 -4 2 -4 -23z"/>
<path d="M2911 1460 c-1 -8 -4 -26 -7 -40 -5 -19 -4 -22 5 -14 7 6 11 24 8 40
-2 16 -5 22 -6 14z"/>
<path d="M2813 1385 c0 -27 2 -38 4 -22 2 15 2 37 0 50 -2 12 -4 0 -4 -28z"/>
<path d="M2903 1330 c0 -36 2 -50 4 -32 2 17 2 47 0 65 -2 17 -4 3 -4 -33z"/>
<path d="M3755 1380 c-3 -5 -1 -10 4 -10 6 0 11 5 11 10 0 6 -2 10 -4 10 -3 0
-8 -4 -11 -10z"/>
<path d="M474 1326 c3 -27 6 -89 6 -137 l0 -89 29 0 c17 0 32 3 34 8 3 4 8 59
11 123 l7 116 -37 1 c-21 1 -42 7 -47 14 -5 8 -6 -6 -3 -36z m56 -160 c0 -2
-7 -9 -15 -16 -12 -10 -15 -10 -15 4 0 9 7 16 15 16 8 0 15 -2 15 -4z"/>
<path d="M2060 1332 c0 -4 10 -13 23 -21 22 -14 22 -14 3 8 -20 22 -26 25 -26
13z"/>
<path d="M2410 1327 c0 -14 31 -69 36 -64 3 3 -4 20 -15 38 -12 19 -21 30 -21
26z"/>
<path d="M2623 1293 c15 -2 39 -2 55 0 15 2 2 4 -28 4 -30 0 -43 -2 -27 -4z"/>
<path d="M2802 1235 c0 -16 2 -22 5 -12 2 9 2 23 0 30 -3 6 -5 -1 -5 -18z"/>
<path d="M4158 1253 c6 -2 18 -2 25 0 6 3 1 5 -13 5 -14 0 -19 -2 -12 -5z"/>
<path d="M2833 1175 c0 -27 2 -38 4 -22 2 15 2 37 0 50 -2 12 -4 0 -4 -28z"/>
<path d="M3756 1161 c-4 -5 3 -7 14 -4 23 6 26 13 6 13 -8 0 -17 -4 -20 -9z"/>
<path d="M2793 1105 c0 -27 2 -38 4 -22 2 15 2 37 0 50 -2 12 -4 0 -4 -28z"/>
<path d="M2004 1091 c5 -8 3 -17 -5 -22 -8 -5 -9 -9 -4 -9 6 0 16 4 23 9 10 6
9 11 -4 22 -14 11 -16 11 -10 0z"/>
<path d="M505 1070 c-4 -6 -4 -25 -1 -43 4 -27 3 -26 -7 6 l-11 39 -45 -7
c-26 -4 -50 -9 -54 -12 -13 -8 -1 -191 13 -208 7 -9 36 -35 63 -58 l50 -42 -6
122 c-6 115 -6 121 13 126 16 4 20 14 20 46 0 29 -4 41 -14 41 -8 0 -18 -5
-21 -10z"/>
<path d="M3346 1060 c4 -8 18 -29 32 -47 l24 -32 -29 -6 c-15 -3 -36 -8 -45
-10 -11 -2 -20 7 -27 24 -21 57 -11 -44 10 -108 l22 -63 51 6 c105 12 347 83
412 120 16 10 20 14 9 11 -11 -4 -72 -25 -135 -47 -93 -32 -238 -68 -272 -68
-12 0 -20 62 -9 73 6 6 11 15 11 19 0 12 -64 10 -77 -3 -7 -7 -12 -6 -16 5 -5
12 6 16 51 21 55 6 113 23 83 24 -8 1 -35 22 -59 49 -24 26 -40 40 -36 32z"/>
<path d="M2487 1033 c-40 -31 -49 -50 -15 -32 12 7 31 13 43 14 11 1 23 3 28
4 13 2 7 41 -6 41 -8 0 -30 -12 -50 -27z"/>
<path d="M3525 970 c50 -17 67 -19 110 -10 27 6 57 15 65 21 11 7 6 7 -15 2
-35 -9 -123 -9 -180 0 -32 5 -28 3 20 -13z"/>
<path d="M3840 970 c-9 -6 -10 -10 -3 -10 6 0 15 5 18 10 8 12 4 12 -15 0z"/>
<path d="M3420 950 c-8 -5 -10 -10 -5 -10 6 0 17 5 25 10 8 5 11 10 5 10 -5 0
-17 -5 -25 -10z"/>
<path d="M370 765 c0 -65 0 -66 47 -110 33 -32 59 -47 85 -51 42 -7 46 0 22
34 -8 12 -13 26 -9 31 3 5 1 12 -4 15 -5 3 -7 14 -4 24 3 14 -12 33 -57 70
-34 29 -66 52 -71 52 -5 0 -9 -29 -9 -65z"/>
<path d="M4161 656 c5 -4 275 -79 454 -126 97 -25 126 -37 154 -63 34 -32 29
-13 -6 28 -20 22 -189 73 -437 130 -142 33 -174 39 -165 31z"/>
<path d="M8006 423 c-6 -14 -5 -15 5 -6 7 7 10 15 7 18 -3 3 -9 -2 -12 -12z"/>
<path d="M9405 403 c2 -45 -10 -83 -26 -83 -6 0 -9 13 -7 29 1 16 -3 40 -11
54 -12 22 -17 24 -43 16 -40 -11 -43 -15 -28 -34 16 -19 30 -19 30 0 0 8 4 15
9 15 11 0 20 -57 10 -67 -4 -5 22 -44 58 -88 36 -44 88 -114 116 -155 69 -102
87 -114 87 -55 0 28 -18 61 -87 161 -49 70 -87 131 -85 136 1 5 -2 7 -7 4 -6
-4 -9 8 -8 28 1 19 6 31 11 28 6 -3 31 -4 57 -3 26 1 50 -2 54 -8 10 -17 65
-14 65 4 0 14 -50 29 -86 25 -26 -3 -83 11 -90 21 -12 20 -21 7 -19 -28z"/>
</g>
</svg>
